<svg width="100" height="100" viewBox="0 0 100 100" fill="none" xmlns="http://www.w3.org/2000/svg">
<circle cx="50" cy="50" r="50" fill="white"/>
<path d="M67.1875 39.0625H32.8125C31.9496 39.0625 31.25 39.7621 31.25 40.625V65.625C31.25 66.4879 31.9496 67.1875 32.8125 67.1875H67.1875C68.0504 67.1875 68.75 66.4879 68.75 65.625V40.625C68.75 39.7621 68.0504 39.0625 67.1875 39.0625Z" stroke="#2A72DE" stroke-width="3.5" stroke-linecap="round" stroke-linejoin="round"/>
<path d="M42.1875 39.0625C42.1875 36.9905 43.0106 35.0034 44.4757 33.5382C45.9409 32.0731 47.928 31.25 50 31.25C52.072 31.25 54.0591 32.0731 55.5243 33.5382C56.9894 35.0034 57.8125 36.9905 57.8125 39.0625" stroke="#2A72DE" stroke-width="3.5" stroke-linecap="round" stroke-linejoin="round"/>
</svg>
