<svg width="482" height="537" viewBox="0 0 482 537" fill="none" xmlns="http://www.w3.org/2000/svg">
<path d="M481.354 38.2308C481.354 24.8488 481.354 18.1578 478.749 13.0465C476.458 8.5505 472.803 4.89514 468.307 2.60432C463.196 0 456.505 0 443.123 0H38.2311C24.8491 0 18.1581 0 13.0468 2.60432C8.55081 4.89514 4.89545 8.5505 2.60461 13.0465C0.000305176 18.1578 0.000305176 24.8488 0.000305176 38.2308V494.277C0.000305176 510.849 0.000305176 519.135 3.42947 524.825C6.43533 529.812 11.1592 533.531 16.7134 535.281C23.0497 537.278 31.1037 535.331 47.2115 531.439L452.103 433.592C462.555 431.066 467.781 429.803 471.675 426.921C475.111 424.377 477.801 420.959 479.466 417.023C481.354 412.56 481.354 407.184 481.354 396.431V38.2308Z" fill="url(#paint0_linear_3255_17984)"/>
<defs>
<linearGradient id="paint0_linear_3255_17984" x1="503.826" y1="304.73" x2="111.832" y2="308.662" gradientUnits="userSpaceOnUse">
<stop offset="0.570915" stop-color="#0A73FF"/>
<stop offset="1" stop-color="#4795FF"/>
</linearGradient>
</defs>
</svg>
