<svg width="233" height="126" viewBox="0 0 233 126" fill="none" xmlns="http://www.w3.org/2000/svg">
<g clip-path="url(#clip0_0_5577)">
<path d="M230.971 126C232.319 121.806 233.003 117.435 232.999 113.038C232.999 93.332 219.479 76.7109 201.004 71.5407C202.35 68.3559 203.04 64.9435 203.036 61.4982C203.036 46.9555 190.965 35.1664 176.075 35.1664C173.579 35.1643 171.095 35.5006 168.693 36.1654C158.726 20.5022 140.949 10.0717 120.673 10.0717C94.4575 10.0717 72.4142 27.5113 66.0326 51.1586C35.6491 52.0738 11.3052 76.4131 11.3052 106.308C11.2986 113.04 12.5563 119.715 15.0158 126.004L230.971 126Z" fill="#0077B7"/>
<path d="M163.006 97.75L174.409 54.3449L175.07 54.5105L163.667 97.9157L163.006 97.75Z" fill="#458FB0"/>
<path d="M176.862 50.3468C175.828 54.2827 173.982 57.2209 173.982 57.2209C173.982 57.2209 173.813 53.7775 174.846 49.8416C175.879 45.9057 177.726 42.9675 177.726 42.9675C177.726 42.9675 177.896 46.411 176.862 50.3468ZM179.668 54.4511C176.644 57.2415 173.477 58.7643 173.477 58.7643C173.477 58.7643 175.215 55.7635 178.239 52.9738C181.264 50.1841 184.43 48.6606 184.43 48.6606C184.43 48.6606 182.693 51.6614 179.668 54.4511ZM180.231 59.7094C176.331 61.1248 172.81 61.3195 172.81 61.3195C172.81 61.3195 175.609 59.2198 179.508 57.8043C183.408 56.3889 186.93 56.1942 186.93 56.1942C186.93 56.1942 184.131 58.2939 180.231 59.7094Z" fill="#458FB0"/>
<path d="M167.28 56.4662C170.001 59.5401 172.993 61.3691 172.993 61.3691C172.993 61.3691 171.574 58.2128 168.854 55.1388C166.134 52.0649 163.14 50.2358 163.14 50.2358C163.14 50.2358 164.559 53.3922 167.28 56.4662ZM179.076 64.1098C175.176 65.5253 171.654 65.72 171.654 65.72C171.654 65.72 174.453 63.6202 178.353 62.2048C182.253 60.7893 185.774 60.5946 185.774 60.5946C185.774 60.5946 182.976 62.6922 179.076 64.1098Z" fill="#458FB0"/>
<path d="M166.126 60.8632C168.848 63.9371 171.84 65.7661 171.84 65.7661C171.84 65.7661 170.421 62.6098 167.701 59.5358C164.981 56.4619 161.987 54.6328 161.987 54.6328C161.987 54.6328 163.405 57.7892 166.126 60.8632ZM177.923 68.5047C174.023 69.9202 170.501 70.1149 170.501 70.1149C170.501 70.1149 173.298 68.0172 177.198 66.5961C181.098 65.1749 184.619 64.9859 184.619 64.9859C184.619 64.9859 181.822 67.0892 177.923 68.5047Z" fill="#458FB0"/>
<path d="M164.97 65.2602C167.692 68.3341 170.684 70.1631 170.684 70.1631C170.684 70.1631 169.265 67.0068 166.545 63.9328C163.825 60.8589 160.831 59.0298 160.831 59.0298C160.831 59.0298 162.249 62.1862 164.97 65.2602ZM176.767 72.9017C172.867 74.3172 169.345 74.5119 169.345 74.5119C169.345 74.5119 172.144 72.4121 176.044 70.9966C179.944 69.5812 183.465 69.3865 183.465 69.3865C183.465 69.3865 180.666 71.4862 176.767 72.9017Z" fill="#458FB0"/>
<path d="M163.817 69.6572C166.539 72.7311 169.531 74.5602 169.531 74.5602C169.531 74.5602 168.112 71.4038 165.392 68.3298C162.671 65.2559 159.678 63.4268 159.678 63.4268C159.678 63.4268 161.097 66.5839 163.817 69.6572ZM175.614 77.2994C171.714 78.7149 168.193 78.9096 168.193 78.9096C168.193 78.9096 170.992 76.8098 174.892 75.3944C178.792 73.9789 182.313 73.7842 182.313 73.7842C182.313 73.7842 179.514 75.884 175.614 77.2994Z" fill="#458FB0"/>
<path d="M162.664 74.0557C165.385 77.1296 168.378 78.9587 168.378 78.9587C168.378 78.9587 166.959 75.8023 164.239 72.7283C161.518 69.6544 158.525 67.8254 158.525 67.8254C158.525 67.8254 159.943 70.981 162.664 74.0557ZM174.46 81.6965C170.561 83.112 167.039 83.3067 167.039 83.3067C167.039 83.3067 169.838 81.2069 173.738 79.7915C177.638 78.376 181.159 78.1813 181.159 78.1813C181.159 78.1813 178.36 80.281 174.46 81.6965Z" fill="#458FB0"/>
<path d="M161.502 78.4527C164.224 81.5266 167.216 83.3557 167.216 83.3557C167.216 83.3557 165.797 80.1993 163.077 77.1253C160.357 74.0514 157.363 72.2224 157.363 72.2224C157.363 72.2224 158.781 75.3787 161.502 78.4527ZM173.301 86.0949C169.401 87.5104 165.88 87.7051 165.88 87.7051C165.88 87.7051 168.679 85.6053 172.578 84.1899C176.478 82.7744 180 82.5797 180 82.5797C180 82.5797 177.198 84.6795 173.301 86.0949Z" fill="#458FB0"/>
<path d="M160.358 82.8497C163.079 85.9236 166.072 87.7527 166.072 87.7527C166.072 87.7527 164.653 84.5963 161.933 81.5223C159.212 78.4484 156.219 76.6193 156.219 76.6193C156.219 76.6193 157.635 79.7757 160.358 82.8497ZM172.152 90.4912C168.252 91.9067 164.731 92.1014 164.731 92.1014C164.731 92.1014 167.53 90.0016 171.43 88.5862C175.329 87.1707 178.851 86.976 178.851 86.976C178.851 86.976 176.052 89.0765 172.152 90.4912Z" fill="#458FB0"/>
<path d="M159.196 87.2488C161.917 90.3228 164.91 92.1518 164.91 92.1518C164.91 92.1518 163.491 88.9954 160.771 85.9215C158.05 82.8475 155.057 81.0185 155.057 81.0185C155.057 81.0185 156.475 84.1749 159.196 87.2488ZM170.365 52.1201C171.641 55.9878 173.666 58.8109 173.666 58.8109C173.666 58.8109 173.621 55.3639 172.345 51.4969C171.069 47.63 169.044 44.8061 169.044 44.8061C169.044 44.8061 169.085 48.2524 170.365 52.1201Z" fill="#458FB0"/>
<path d="M54.5733 76.0284C63.0015 81.784 73.7813 80.9427 73.7813 80.9427L43.2573 60.0958C43.2573 60.0958 46.1451 70.272 54.5733 76.0284Z" fill="#00C5C9"/>
<path d="M43.2573 60.0952L73.7798 80.9428C73.7798 80.9428 70.8921 70.7666 62.4638 65.0095C54.0356 59.2525 43.2573 60.0952 43.2573 60.0952Z" fill="#00E1E6"/>
<path d="M61.7956 65.4212C65.2196 74.8931 74.4867 80.3333 74.4867 80.3333L62.0866 46.0324C62.0866 46.0324 58.3709 55.9492 61.7956 65.4212Z" fill="#00C5C9"/>
<path d="M62.0867 46.0324L74.4867 80.3333C74.4867 80.3333 78.2017 70.4165 74.7778 60.9445C71.3538 51.4726 62.0867 46.0324 62.0867 46.0324Z" fill="#00E1E6"/>
<path d="M41.6278 84.5742C28.7352 84.5742 17.863 93.0187 14.4893 104.553H68.7605C65.3926 93.0215 54.5204 84.5742 41.6278 84.5742ZM115.658 84.5742C102.765 84.5742 91.893 93.0187 88.5193 104.553H142.791C139.423 93.0215 128.55 84.5742 115.658 84.5742Z" fill="#7CC8EB"/>
<path d="M80.3873 76.0176C61.9716 76.0176 46.4416 88.0796 41.6272 104.556H119.148C114.333 88.0796 98.8008 76.0176 80.3873 76.0176Z" fill="#7CC8EB"/>
<path d="M208.521 47.5981C208.521 47.5981 210.244 44.8268 209.295 40.9933C208.345 37.1597 211.568 35.9361 212.933 37.3288C214.297 38.7216 214.482 42.882 208.521 47.5981ZM205.31 49.4015C205.31 49.4015 204.83 46.1954 201.593 43.8327C198.356 41.4701 200.042 38.5212 202.004 38.7429C203.965 38.9646 206.825 42.0563 205.31 49.4015ZM205.604 49.7746C205.604 49.7746 208.9 50.1483 211.414 53.2372C213.929 56.3261 216.896 54.5937 216.611 52.6851C216.326 50.7765 213.078 48.0777 205.604 49.7746ZM200.495 54.4523C200.495 54.4523 203.791 54.8261 206.305 57.9149C208.82 61.0038 211.787 59.2714 211.504 57.36C211.22 55.4485 207.97 52.7554 200.495 54.4523ZM197.029 59.8008C197.029 59.8008 200.325 60.1746 202.84 63.2634C205.354 66.3523 208.322 64.6199 208.037 62.7113C207.751 60.8027 204.504 58.1039 197.029 59.8008ZM193.033 66.5975C193.033 66.5975 196.329 66.9712 198.843 70.0601C201.358 73.149 204.325 71.4166 204.04 69.508C203.755 67.5994 200.507 64.9034 193.033 66.5975ZM200.548 54.4196C200.548 54.4196 200.068 51.2135 196.831 48.8508C193.594 46.4882 195.279 43.5393 197.243 43.761C199.208 43.9827 202.062 47.0723 200.548 54.4196ZM196.418 60.2463C196.418 60.2463 195.938 57.0402 192.701 54.6776C189.464 52.3149 191.15 49.366 193.111 49.5877C195.073 49.8094 197.932 52.899 196.418 60.2463ZM192.824 66.4312C192.824 66.4312 192.344 63.2251 189.107 60.8624C185.87 58.4997 187.555 55.5508 189.517 55.7725C191.479 55.9942 194.338 59.0838 192.824 66.4312Z" fill="#30637A"/>
<path d="M183.628 95.5819C183.709 95.5785 183.786 95.5471 183.845 95.4934C183.905 95.4396 183.943 95.367 183.953 95.2885C183.963 95.2067 185.04 86.9747 188.735 76.9023C192.14 67.6236 198.526 54.8375 209.617 46.6176C209.653 46.591 209.683 46.5577 209.705 46.5197C209.728 46.4818 209.743 46.4398 209.749 46.3962C209.755 46.3526 209.753 46.3083 209.741 46.2657C209.73 46.2232 209.71 46.1833 209.683 46.1482C209.655 46.1132 209.621 46.0837 209.582 46.0615C209.543 46.0393 209.5 46.0248 209.456 46.0189C209.411 46.0129 209.366 46.0156 209.322 46.0267C209.279 46.0379 209.238 46.0573 209.202 46.0839C197.97 54.4062 191.517 67.3216 188.081 76.6913C184.363 86.8312 183.279 95.1229 183.269 95.2053C183.263 95.249 183.267 95.2933 183.279 95.3358C183.291 95.3782 183.311 95.4179 183.339 95.4526C183.366 95.4874 183.401 95.5164 183.44 95.5381C183.479 95.5598 183.523 95.5737 183.567 95.5791C183.587 95.5817 183.608 95.5826 183.628 95.5819ZM219.634 74.8885C219.634 74.8885 221.848 73.4674 222.508 70.3821C223.168 67.2967 225.921 67.4936 226.419 68.9552C226.916 70.4169 225.591 73.4802 219.634 74.8885ZM216.687 75.1195C216.687 75.1195 217.464 72.6452 215.96 69.8612C214.455 67.0772 216.702 65.5103 218.04 66.3261C219.378 67.1418 220.355 70.3238 216.687 75.1195ZM216.769 75.4847C216.769 75.4847 219.015 76.8561 219.747 79.9258C220.479 82.9955 223.227 82.7375 223.691 81.2652C224.154 79.7929 222.757 76.7573 216.769 75.4847ZM211.443 77.1517C211.443 77.1517 213.69 78.5231 214.422 81.5928C215.154 84.6625 217.902 84.4046 218.365 82.9322C218.829 81.4599 217.432 78.4265 211.443 77.1517ZM207.068 79.8526C207.068 79.8526 209.315 81.224 210.047 84.2937C210.779 87.3634 213.527 87.1055 213.99 85.6331C214.454 84.1608 213.056 81.1274 207.068 79.8526ZM201.8 83.4225C201.8 83.4225 204.047 84.794 204.779 87.8636C205.511 90.9333 208.259 90.6754 208.722 89.2031C209.186 87.7308 207.791 84.6973 201.8 83.4225ZM211.492 77.146C211.492 77.146 212.269 74.6718 210.765 71.8878C209.26 69.1037 211.507 67.5369 212.845 68.3526C214.183 69.1684 215.161 72.3518 211.492 77.146ZM206.47 79.9699C206.47 79.9699 207.247 77.4956 205.742 74.7116C204.238 71.9276 206.484 70.3607 207.822 71.1765C209.16 71.9922 210.138 75.1742 206.47 79.9699ZM201.709 83.2307C201.709 83.2307 202.486 80.7565 200.982 77.9724C199.477 75.1884 201.724 73.6216 203.062 74.4373C204.4 75.2531 205.377 78.4357 201.709 83.2307Z" fill="#30637A"/>
<path d="M184.934 101.21C184.985 101.215 185.035 101.207 185.081 101.185C185.127 101.163 185.165 101.13 185.192 101.088C185.229 101.033 188.891 95.4534 195.087 89.4213C200.796 83.8646 209.886 76.7731 220.771 74.5525C220.842 74.538 220.904 74.4965 220.944 74.4372C220.984 74.3778 220.998 74.3054 220.983 74.236C220.968 74.1665 220.926 74.1057 220.865 74.0669C220.804 74.028 220.73 74.0143 220.659 74.0288C209.638 76.2771 200.455 83.4369 194.693 89.0504C188.456 95.1237 184.768 100.744 184.731 100.8C184.706 100.839 184.692 100.883 184.689 100.929C184.686 100.974 184.696 101.02 184.716 101.061C184.736 101.102 184.767 101.137 184.806 101.164C184.844 101.19 184.888 101.206 184.935 101.21H184.934Z" fill="#30637A"/>
<path d="M153.169 92.4972C144.853 92.4972 137.84 97.9445 135.666 105.384H170.672C168.497 97.9445 161.484 92.4972 153.169 92.4972ZM200.919 92.4972C192.603 92.4972 185.59 97.9445 183.416 105.384H218.422C216.247 97.9445 209.235 92.4972 200.919 92.4972Z" fill="#448CAD"/>
<path d="M178.172 86.9783C166.294 86.9783 156.276 94.7584 153.171 105.382H203.173C200.067 94.7591 190.05 86.9783 178.172 86.9783ZM48.297 95.6594C45.3115 95.6597 42.4072 96.6093 40.0233 98.3646C37.6393 100.12 35.9054 102.586 35.0835 105.389H61.5105C60.6886 102.586 58.9546 100.12 56.5707 98.3646C54.1868 96.6093 51.2825 95.6597 48.297 95.6594ZM84.3461 95.6594C81.3606 95.6597 78.4563 96.6093 76.0724 98.3646C73.6885 100.12 71.9545 102.586 71.1326 105.389H97.5603C96.7384 102.585 95.0043 100.12 92.6203 98.3644C90.2362 96.6091 87.3318 95.6596 84.3461 95.6594Z" fill="#448CAD"/>
<path d="M67.1716 91.4887C58.2043 91.4887 50.6418 97.3623 48.2969 105.385H86.0456C83.7021 97.3644 76.1397 91.4887 67.1716 91.4887Z" fill="#448CAD"/>
<path d="M183.134 112.407H61.1779C60.0956 112.407 59.0575 111.988 58.2922 111.24C57.5269 110.493 57.0969 109.479 57.0969 108.422C57.0969 107.365 57.5269 106.351 58.2922 105.604C59.0575 104.856 60.0956 104.436 61.1779 104.436H183.134C184.216 104.436 185.254 104.856 186.02 105.604C186.785 106.351 187.215 107.365 187.215 108.422C187.215 109.479 186.785 110.493 186.02 111.24C185.254 111.988 184.216 112.407 183.134 112.407Z" fill="#30637A"/>
<path d="M14.0808 23.0328C7.3907 23.0328 1.74909 27.415 0 33.4001H28.1608C26.4117 27.415 20.7701 23.0328 14.0808 23.0328ZM52.4938 23.0328C45.8037 23.0328 40.1621 27.415 38.413 33.4001H66.5738C64.8225 27.415 59.1838 23.0328 52.4938 23.0328Z" fill="#D0F1F2"/>
<path d="M34.1919 18.592C24.636 18.592 16.5781 24.8507 14.0796 33.4004H54.3057C51.8072 24.8514 43.7486 18.592 34.1919 18.592Z" fill="#D0F1F2"/>
<path d="M16.3393 31.913C14.3741 31.913 12.4624 32.5379 10.8931 33.6931C9.32387 34.8483 8.18233 36.471 7.64111 38.316H25.0367C24.4955 36.4711 23.3541 34.8485 21.785 33.6933C20.2158 32.5381 18.3043 31.9132 16.3393 31.913ZM40.0677 31.913C38.1027 31.9132 36.1911 32.5381 34.622 33.6933C33.0528 34.8485 31.9114 36.4711 31.3702 38.316H48.7658C48.2246 36.471 47.0831 34.8483 45.5138 33.6931C43.9445 32.5379 42.0328 31.913 40.0677 31.913Z" fill="white"/>
<path d="M28.7622 29.1691C25.9553 29.1694 23.2249 30.0621 20.9836 31.7123C18.7422 33.3625 17.1118 35.6804 16.3389 38.3156H41.1863C40.4133 35.6802 38.7828 33.3622 36.5413 31.7121C34.2998 30.0619 31.5692 29.1693 28.7622 29.1691ZM70.1226 4.14902C68.7079 4.14917 67.3317 4.59913 66.202 5.43088C65.0723 6.26263 64.2507 7.43096 63.8611 8.75923H76.3842C75.9946 7.43096 75.1729 6.26263 74.0433 5.43088C72.9136 4.59913 71.5374 4.14917 70.1226 4.14902ZM87.2054 4.14902C85.7906 4.14917 84.4144 4.59913 83.2848 5.43088C82.1551 6.26263 81.3334 7.43096 80.9439 8.75923H93.4669C93.0774 7.43096 92.2557 6.26263 91.126 5.43088C89.9963 4.59913 88.6201 4.14917 87.2054 4.14902Z" fill="white"/>
<path d="M79.0701 2.17279C77.0492 2.17295 75.0833 2.81569 73.4696 4.00385C71.8559 5.19201 70.6822 6.86098 70.126 8.75841H88.0141C87.4579 6.86098 86.2842 5.19201 84.6705 4.00385C83.0568 2.81569 81.0909 2.17295 79.0701 2.17279Z" fill="white"/>
<path d="M174.688 4.06586C171.773 4.06608 168.938 4.99302 166.611 6.70654C164.283 8.42006 162.591 10.827 161.788 13.5634H187.587C186.785 10.8269 185.092 8.41986 182.765 6.70633C180.437 4.9928 177.602 4.06592 174.688 4.06586ZM209.88 4.06586C206.965 4.06608 204.13 4.99302 201.803 6.70654C199.475 8.42006 197.783 10.827 196.98 13.5634H222.78C221.978 10.8267 220.285 8.41965 217.957 6.70611C215.63 4.99257 212.794 4.06577 209.88 4.06586Z" fill="#D0F1F2"/>
<path d="M193.111 0C184.356 0 176.974 5.73435 174.686 13.5663H211.536C209.245 5.73435 201.865 0 193.111 0Z" fill="#D0F1F2"/>
<path d="M204.941 12.252C203.529 12.2525 202.157 12.7015 201.03 13.5313C199.903 14.3611 199.084 15.5266 198.695 16.8516H211.188C210.799 15.5264 209.979 14.3607 208.852 13.5309C207.725 12.7011 206.352 12.2521 204.941 12.252ZM221.983 12.252C220.572 12.2521 219.199 12.7011 218.072 13.5309C216.945 14.3607 216.125 15.5264 215.736 16.8516H228.23C227.842 15.5264 227.022 14.3607 225.895 13.5309C224.768 12.7011 223.395 12.2521 221.983 12.252Z" fill="#38748F"/>
<path d="M213.866 10.2818C211.85 10.282 209.889 10.9232 208.279 12.1086C206.669 13.2939 205.498 14.9589 204.943 16.8518H222.79C222.235 14.9588 221.064 13.2937 219.454 12.1083C217.844 10.923 215.882 10.2818 213.866 10.2818Z" fill="#38748F"/>
<path d="M35.3147 73.3912C35.8922 73.3912 36.4461 73.1672 36.8545 72.7683C37.2629 72.3695 37.4923 71.8285 37.4923 71.2645C37.4923 71.8285 37.7218 72.3695 38.1301 72.7683C38.5385 73.1672 39.0924 73.3912 39.67 73.3912C39.0924 73.3912 38.5385 73.6153 38.1301 74.0142C37.7218 74.413 37.4923 74.954 37.4923 75.518C37.4923 74.954 37.2629 74.413 36.8545 74.0142C36.4461 73.6153 35.8922 73.3912 35.3147 73.3912ZM83.2444 37.1576C83.822 37.1576 84.3759 36.9335 84.7842 36.5347C85.1926 36.1358 85.422 35.5949 85.422 35.0308C85.422 35.5945 85.6512 36.1351 86.0591 36.5339C86.467 36.9327 87.0203 37.157 87.5975 37.1576C87.02 37.1576 86.4661 37.3816 86.0577 37.7805C85.6493 38.1793 85.4199 38.7203 85.4199 39.2843C85.4199 38.7206 85.1907 38.18 84.7828 37.7812C84.3749 37.3825 83.8216 37.1581 83.2444 37.1576ZM193.612 77.9368C194.19 77.9368 194.744 77.7127 195.152 77.3139C195.561 76.915 195.79 76.3741 195.79 75.8101C195.79 76.0896 195.846 76.3664 195.956 76.6246C196.066 76.8828 196.226 77.1174 196.429 77.3149C196.631 77.5124 196.872 77.669 197.136 77.7757C197.401 77.8824 197.684 77.9372 197.971 77.9368C197.393 77.9368 196.839 78.1609 196.431 78.5597C196.022 78.9586 195.793 79.4995 195.793 80.0636C195.793 79.784 195.737 79.5072 195.627 79.249C195.517 78.9908 195.357 78.7562 195.154 78.5587C194.952 78.3612 194.711 78.2046 194.447 78.0979C194.182 77.9912 193.899 77.9364 193.612 77.9368ZM101.831 78.182C102.153 78.182 102.462 78.0569 102.69 77.8344C102.918 77.6118 103.046 77.31 103.046 76.9953C103.046 77.31 103.174 77.6118 103.402 77.8344C103.63 78.0569 103.939 78.182 104.261 78.182C103.939 78.182 103.63 78.307 103.402 78.5295C103.174 78.7521 103.046 79.0539 103.046 79.3686C103.046 79.0539 102.918 78.7521 102.69 78.5295C102.462 78.307 102.153 78.182 101.831 78.182ZM77.8545 42.9679C78.1768 42.9679 78.4858 42.8429 78.7137 42.6204C78.9416 42.3978 79.0696 42.096 79.0696 41.7813C79.0696 42.096 79.1976 42.3978 79.4255 42.6204C79.6533 42.8429 79.9624 42.9679 80.2846 42.9679C79.9624 42.9679 79.6533 43.093 79.4255 43.3155C79.1976 43.5381 79.0696 43.8399 79.0696 44.1546C79.0696 43.8399 78.9416 43.5381 78.7137 43.3155C78.4858 43.093 78.1768 42.9679 77.8545 42.9679ZM41.7777 78.7717C42.1 78.7717 42.4091 78.6467 42.6369 78.4242C42.8648 78.2016 42.9928 77.8998 42.9928 77.5851C42.9928 77.8998 43.1208 78.2016 43.3487 78.4242C43.5765 78.6467 43.8856 78.7717 44.2078 78.7717C43.8856 78.7717 43.5765 78.8968 43.3487 79.1193C43.1208 79.3418 42.9928 79.6437 42.9928 79.9584C42.9928 79.6437 42.8648 79.3418 42.6369 79.1193C42.4091 78.8968 42.1 78.7717 41.7777 78.7717Z" fill="white"/>
<path d="M112.81 81.8389H134.259V85.1026C134.259 85.3287 134.167 85.5456 134.003 85.7055C133.84 85.8654 133.618 85.9553 133.386 85.9553H113.685C113.453 85.9553 113.231 85.8654 113.067 85.7055C112.904 85.5456 112.812 85.3287 112.812 85.1026V81.8389H112.81Z" fill="#D0F1F2"/>
<path d="M118.297 84.3232H128.774V87.5868C128.774 87.813 128.682 88.0299 128.518 88.1898C128.354 88.3497 128.132 88.4395 127.901 88.4395H119.172C118.941 88.4395 118.719 88.3497 118.555 88.1898C118.391 88.0299 118.299 87.813 118.299 87.5868V84.3232H118.297Z" fill="#D0F1F2"/>
<path d="M122.517 84.3232H124.551V101.387H122.517V84.3232Z" fill="#D0F1F2"/>
<path d="M130.128 104.764V103.281C130.128 102.778 129.923 102.296 129.559 101.94C129.195 101.585 128.702 101.385 128.187 101.385H118.801C118.286 101.385 117.792 101.585 117.428 101.94C117.064 102.296 116.86 102.778 116.86 103.281V104.764" stroke="#D0F1F2" stroke-width="5.69453" stroke-miterlimit="10"/>
<path d="M130.129 106.388C131.047 106.388 131.792 105.661 131.792 104.764C131.792 103.867 131.047 103.14 130.129 103.14C129.211 103.14 128.467 103.867 128.467 104.764C128.467 105.661 129.211 106.388 130.129 106.388Z" fill="#FF8C87"/>
<path d="M116.936 106.388C117.854 106.388 118.599 105.661 118.599 104.764C118.599 103.867 117.854 103.14 116.936 103.14C116.018 103.14 115.274 103.867 115.274 104.764C115.274 105.661 116.018 106.388 116.936 106.388Z" fill="#FF8C87"/>
<path d="M112.254 79.8168H134.816L133.376 52.3978C133.345 51.8067 133.083 51.2498 132.643 50.8421C132.204 50.4344 131.621 50.2071 131.015 50.2071H116.055C115.449 50.2071 114.866 50.4344 114.427 50.8421C113.987 51.2498 113.725 51.8067 113.694 52.3978L112.254 79.8168Z" fill="#FE9391"/>
<path d="M112.359 77.5583H134.707C135.047 77.5583 135.373 77.6903 135.614 77.9252C135.854 78.1602 135.989 78.4788 135.989 78.8111V82.7398C135.989 82.8539 135.943 82.9632 135.86 83.0438C135.778 83.1244 135.666 83.1697 135.549 83.1697H111.517C111.401 83.1697 111.289 83.1244 111.206 83.0438C111.124 82.9632 111.077 82.8539 111.077 82.7398V78.8111C111.077 78.4789 111.212 78.1604 111.453 77.9255C111.693 77.6906 112.019 77.5585 112.359 77.5583Z" fill="#FE8482"/>
<path d="M152.99 106.388H154.187L155.479 65.0372H151.698L152.99 106.388Z" fill="#D0F1F2"/>
<path d="M152.745 98.5514L152.99 106.386H154.186L154.43 98.5514H152.745Z" fill="#FE8482"/>
<path d="M90.1284 106.388H91.3252L92.6174 65.0372H88.8354L90.1284 106.388Z" fill="#D0F1F2"/>
<path d="M89.8831 98.5529L90.1275 106.387H91.3237L91.5681 98.5529H89.8831Z" fill="#FE8482"/>
<path d="M157.369 71.8489L87.0287 71.8489V66.8002L157.369 66.8002V71.8489Z" fill="#D0F1F2"/>
<path d="M161.929 68.1625L82.3866 68.1625V64.685C82.3866 64.44 82.4863 64.205 82.6637 64.0318C82.841 63.8586 83.0816 63.7612 83.3325 63.7612L160.986 63.7612C161.237 63.7612 161.477 63.8586 161.655 64.0318C161.832 64.205 161.932 64.44 161.932 64.685V68.1625H161.929Z" fill="#FE5E5A"/>
<path d="M107.905 54.5294H81.6243V50.6426H107.905C108.433 50.6426 108.939 50.8473 109.312 51.2118C109.685 51.5763 109.895 52.0706 109.895 52.586C109.895 53.1014 109.685 53.5958 109.312 53.9602C108.939 54.3247 108.433 54.5294 107.905 54.5294Z" fill="white"/>
<path d="M108.029 54.8782H80.656C80.555 54.8782 80.4581 54.839 80.3867 54.7692C80.3153 54.6994 80.2751 54.6048 80.2751 54.5062C80.2751 54.4075 80.3153 54.3129 80.3867 54.2431C80.4581 54.1734 80.555 54.1342 80.656 54.1342H108.029C108.446 54.1342 108.847 53.9722 109.142 53.6838C109.437 53.3954 109.603 53.0043 109.603 52.5965C109.603 52.1887 109.437 51.7976 109.142 51.5092C108.847 51.2208 108.446 51.0588 108.029 51.0588H80.656C80.555 51.0588 80.4581 51.0196 80.3867 50.9499C80.3153 50.8801 80.2751 50.7855 80.2751 50.6868C80.2751 50.5882 80.3153 50.4935 80.3867 50.4238C80.4581 50.354 80.555 50.3148 80.656 50.3148H108.029C108.339 50.3095 108.647 50.3645 108.935 50.4768C109.224 50.589 109.486 50.7562 109.707 50.9686C109.929 51.181 110.105 51.4343 110.225 51.7137C110.345 51.9931 110.406 52.2931 110.406 52.5961C110.406 52.8992 110.345 53.1991 110.225 53.4786C110.105 53.758 109.929 54.0113 109.707 54.2237C109.486 54.4361 109.224 54.6032 108.935 54.7155C108.647 54.8277 108.339 54.8828 108.029 54.8774V54.8782Z" fill="#8FCCCF"/>
<path d="M85.9805 59.7556H108.29V63.5998H85.9805C85.4586 63.5998 84.958 63.3973 84.5889 63.0369C84.2198 62.6764 84.0125 62.1875 84.0125 61.6777C84.0125 61.1679 84.2198 60.6791 84.5889 60.3186C84.958 59.9581 85.4586 59.7556 85.9805 59.7556Z" fill="white"/>
<path d="M109.205 63.9935H85.8837C85.2616 63.9935 84.6651 63.7521 84.2253 63.3226C83.7854 62.893 83.5383 62.3104 83.5383 61.7029C83.5383 61.0954 83.7854 60.5128 84.2253 60.0833C84.6651 59.6537 85.2616 59.4124 85.8837 59.4124H109.205C109.306 59.4124 109.403 59.4516 109.474 59.5213C109.545 59.5911 109.586 59.6857 109.586 59.7844C109.586 59.883 109.545 59.9776 109.474 60.0474C109.403 60.1172 109.306 60.1564 109.205 60.1564H85.8837C85.4637 60.1564 85.0609 60.3193 84.7639 60.6093C84.4669 60.8994 84.3001 61.2927 84.3001 61.7029C84.3001 62.1131 84.4669 62.5065 84.7639 62.7965C85.0609 63.0866 85.4637 63.2495 85.8837 63.2495H109.205C109.306 63.2495 109.403 63.2887 109.474 63.3584C109.545 63.4282 109.586 63.5228 109.586 63.6215C109.586 63.7201 109.545 63.8148 109.474 63.8845C109.403 63.9543 109.306 63.9935 109.205 63.9935Z" fill="#30637A"/>
<path d="M87.8618 55.2739H110.171V59.1175H87.8618C87.3399 59.1175 86.8394 58.915 86.4704 58.5546C86.1014 58.1942 85.894 57.7054 85.894 57.1957C85.894 56.686 86.1014 56.1972 86.4704 55.8368C86.8394 55.4764 87.3399 55.2739 87.8618 55.2739Z" fill="white"/>
<path d="M111.09 59.4846H87.7684C87.1464 59.4846 86.5499 59.2433 86.11 58.8137C85.6702 58.3841 85.4231 57.8015 85.4231 57.194C85.4231 56.5866 85.6702 56.004 86.11 55.5744C86.5499 55.1448 87.1464 54.9035 87.7684 54.9035H111.09C111.191 54.9035 111.288 54.9427 111.359 55.0125C111.431 55.0822 111.471 55.1768 111.471 55.2755C111.471 55.3742 111.431 55.4688 111.359 55.5385C111.288 55.6083 111.191 55.6475 111.09 55.6475H87.7684C87.3484 55.6475 86.9457 55.8104 86.6487 56.1005C86.3517 56.3905 86.1849 56.7839 86.1849 57.194C86.1849 57.6042 86.3517 57.9976 86.6487 58.2876C86.9457 58.5777 87.3484 58.7406 87.7684 58.7406H111.09C111.191 58.7406 111.288 58.7798 111.359 58.8496C111.431 58.9193 111.471 59.0139 111.471 59.1126C111.471 59.2113 111.431 59.3059 111.359 59.3756C111.288 59.4454 111.191 59.4846 111.09 59.4846Z" fill="#FE5E5A"/>
<path d="M142.511 43.3332C143.594 42.1998 140.223 40.2123 139.612 39.3341C116.772 60.8986 147.643 81.5686 157.826 50.5008C159.384 45.7484 159.159 47.1881 155.551 45.4557C155.278 44.9704 155.308 44.9668 155.551 45.4557C151.944 43.7233 151.307 45.2788 150.693 48.3996C146.683 68.8052 126.522 60.0708 142.511 43.3332Z" fill="#3C3F57"/>
<path d="M134.563 105.77H152.461C153.116 101.092 154.084 95.978 155.364 90.3928C150.184 89.0932 145.476 85.7123 140.231 84.6649C137.53 91.7586 135.14 99.1315 134.563 105.77Z" fill="#292B3B"/>
<path d="M157.648 92.5521C154.01 91.305 150.216 90.9689 146.355 90.9512C146.329 90.9512 146.345 90.7245 146.298 90.738C141.132 91.85 139.202 84.8807 140.092 82.5529C143.705 73.1022 147.086 60.0873 149.375 51.7849C150.893 46.2737 151.985 44.4262 154.504 41.7132C154.834 41.4461 155.35 41.3693 155.635 41.2308C160.92 38.6563 167.286 41.8887 167.432 47.9812C167.481 50.0177 167.371 51.7878 167.05 54.3842C165.523 66.7106 162.471 80.8532 157.648 92.5521Z" fill="white"/>
<path d="M157.376 44.2815C157.376 44.2815 152.369 60.1877 148.806 65.7842L149.091 69.8558L152.888 68.5412C152.888 68.5412 157.647 53.3093 158.457 44.5692L157.376 44.2815Z" fill="#FE5E5A"/>
<path d="M156.333 42.8637L160.698 48.8752L162.628 40.9544L159.58 40.0825L156.333 42.8637Z" fill="#D0F1F2"/>
<path d="M158.823 43.5558L154.249 48.9171L153.518 42.3428L155.968 40.6964L158.823 43.5558Z" fill="#D0F1F2"/>
<path d="M169.043 53.1855C169.376 50.324 169.832 50.2011 169.522 48.2633C168.794 43.6645 166.466 41.655 161.996 40.7554C162.18 49.698 142.113 100.052 142.243 100.062C148.471 100.55 152.013 101.606 154.453 102.652C161.56 87.2356 167.677 64.9484 169.043 53.1855Z" fill="#3C3F57"/>
<path d="M166.685 79.4303C166.685 79.4303 157.452 76.4622 155.403 77.7704C153.353 79.0785 161.813 82.8737 167.546 81.6117L166.685 79.4303Z" fill="white"/>
<path d="M165.225 78.1146C165.511 79.5407 165.814 81.045 166.204 82.4995C195.016 73.0809 192.004 55.6327 167.191 42.7222C162.074 40.0597 160.157 47.3175 164.082 49.1174C186.871 59.5671 186.575 67.7281 165.225 78.1146ZM154.025 41.7253C154.025 41.7253 150.314 44.7808 147.913 55.4394C145.374 66.712 134.235 95.2316 134.235 95.2316L137.582 95.658C137.582 95.658 149.792 61.259 151.187 54.8709C153.516 44.2123 159.336 37.675 154.025 41.7253Z" fill="#3C3F57"/>
<path d="M154.754 66.4302C154.738 66.475 162.316 55.4405 162.316 55.4405L161.152 52.9534L166.027 46.8425C166.027 46.8425 164.889 42.2237 163.712 41.192C162.534 40.1602 161.5 40.0835 161.5 40.0835C161.5 40.0835 162.472 45.4448 154.754 66.4302ZM155.55 42.508L147.53 66.8011L149.931 51.3873L151.693 50.2533L152.002 44.3555C152.002 44.3555 153.44 41.0868 155.913 40.092C158.387 39.0972 155.55 42.508 155.55 42.508Z" fill="#6A6E91"/>
<path d="M162.64 33.6953C159.258 38.1286 153.355 39.4211 150.582 37.4031C147.808 35.3851 149.214 30.8196 152.595 26.3892C155.976 21.9587 159.943 21.3363 162.72 23.3543C165.496 25.3724 166.021 29.2613 162.64 33.6953Z" fill="white"/>
<path d="M162.3 32.7642L156.407 31.9826C156.297 32.7699 155.388 40.2757 155.582 43.1244C155.765 44.0062 157.224 44.461 158.84 44.1398C160.295 43.8513 161.368 43.0341 161.439 42.2312H161.446C161.335 40.5251 161.92 35.517 162.3 32.7642Z" fill="white"/>
<path d="M150.789 31.846C151.383 31.917 152.026 32.0122 152.439 32.4386C152.585 32.5906 152.692 32.7768 152.849 32.9175C152.958 33.0149 153.088 33.088 153.201 33.1811C153.45 33.3879 153.6 33.6835 153.743 33.9706C153.945 34.377 154.393 35.4997 153.525 35.4493C153.325 35.4296 153.136 35.349 152.986 35.2191C152.476 34.8083 152.284 34.1098 151.789 33.6799C151.699 33.6038 151.604 33.5326 151.505 33.4668C151.191 33.2501 150.876 33.0326 150.541 32.8472C150.386 32.7744 150.243 32.6785 150.117 32.5629C150.001 32.4386 149.932 32.2552 149.995 32.0982C150.103 31.8225 150.49 31.8104 150.789 31.846ZM161.744 34.8446C161.744 34.8446 160.136 34.2413 161.34 32.7704C162.543 31.2995 163.212 29.5075 162.669 29.3916C162.126 29.2758 160.767 29.6801 160.672 28.3435C160.576 27.0069 159.755 27.8369 158.797 27.1668C157.839 26.4967 153.754 24.9029 153.899 22.5054C154.045 20.108 154.975 19.0684 156.072 19.6916C157.169 20.3147 156.896 19.2986 158.109 19.7676C159.323 20.2366 159.273 20.8541 160.987 21.5227C162.702 22.1914 167.099 24.7281 165.931 27.1299C165.931 27.1299 167.741 28.6221 166.441 30.5143C165.14 32.4066 162.518 36.3055 161.744 34.8446Z" fill="#1A1C2E"/>
<path d="M163.618 36.3473C162.831 37.3791 160.775 37.9355 160.01 37.3791C159.244 36.8227 159.691 35.8464 160.478 34.8146C161.266 33.7829 162.622 33.2684 163.389 33.8255C164.156 34.3826 164.405 35.3156 163.618 36.3473Z" fill="white"/>
<path d="M159.885 35.6514C159.885 35.6514 160.643 35.6514 159.843 36.4799C159.042 37.3084 154.495 42.5319 149.62 39.109C146.611 36.995 148.428 34.0334 148.692 33.3867C148.955 32.7401 149.374 32.4879 149.439 34.1279C149.505 35.7679 150.749 37.3255 152.433 37.5955C154.117 37.8655 157.36 37.059 158.341 36.6007C158.893 36.346 159.411 36.0273 159.885 35.6514Z" fill="#1A1C2E"/>
<path d="M142.616 42.3908C145.398 41.3022 149.347 39.5357 149.878 38.099C150.557 36.2586 144.59 37.2249 140.316 40.0353C141.113 40.7224 142.265 41.6128 142.616 42.3908Z" fill="white"/>
<path d="M139.928 103.485C138.145 103.485 136.411 104.052 134.987 105.101C133.563 106.149 132.528 107.621 132.037 109.295H147.818C147.327 107.621 146.292 106.149 144.868 105.101C143.445 104.052 141.71 103.485 139.928 103.485ZM161.454 103.485C159.671 103.485 157.937 104.052 156.513 105.101C155.089 106.149 154.054 107.621 153.563 109.295H169.344C168.853 107.621 167.818 106.149 166.394 105.101C164.971 104.052 163.236 103.485 161.454 103.485Z" fill="#A09EB8"/>
<path d="M151.195 100.995C148.648 100.995 146.171 101.805 144.138 103.302C142.104 104.799 140.625 106.902 139.924 109.293H162.463C161.762 106.903 160.283 104.8 158.25 103.303C156.218 101.806 153.741 100.996 151.195 100.995Z" fill="#A09EB8"/>
<path d="M140.692 108.035C139.899 108.035 139.128 108.287 138.494 108.753C137.861 109.22 137.4 109.875 137.182 110.619H144.202C143.983 109.875 143.523 109.22 142.89 108.754C142.257 108.288 141.485 108.035 140.692 108.035ZM150.269 108.035C149.476 108.035 148.705 108.287 148.071 108.753C147.438 109.22 146.977 109.875 146.759 110.619H153.78C153.562 109.875 153.101 109.22 152.468 108.753C151.834 108.287 151.063 108.035 150.269 108.035Z" fill="#FFBCBA"/>
<path d="M145.705 106.928C144.572 106.928 143.469 107.289 142.565 107.956C141.66 108.622 141.002 109.559 140.691 110.623H150.719C150.408 109.559 149.75 108.623 148.846 107.956C147.941 107.289 146.839 106.928 145.705 106.928Z" fill="#FFBCBA"/>
<path d="M143.962 21.7018C146.598 21.7018 148.735 19.6148 148.735 17.0404C148.735 14.466 146.598 12.379 143.962 12.379C141.326 12.379 139.189 14.466 139.189 17.0404C139.189 19.6148 141.326 21.7018 143.962 21.7018Z" fill="white"/>
<path d="M149.95 24.6715C150.874 24.6715 151.623 23.9398 151.623 23.0372C151.623 22.1346 150.874 21.4029 149.95 21.4029C149.026 21.4029 148.276 22.1346 148.276 23.0372C148.276 23.9398 149.026 24.6715 149.95 24.6715Z" fill="white"/>
<path d="M118.323 54.0692L118.332 55.3262C118.052 55.0844 117.699 54.9395 117.326 54.914C116.799 54.8856 116.338 55.0405 115.992 55.3617C115.568 55.7561 115.347 56.3721 115.353 57.1424C115.363 58.6104 116.645 60.2753 117.758 60.2689C117.97 60.269 118.179 60.218 118.366 60.1204L118.379 62.012C118.38 62.2029 118.453 62.3868 118.584 62.5288C118.715 62.6709 118.894 62.7613 119.088 62.7829L119.094 63.6278C119.094 63.6844 119.117 63.7386 119.158 63.7786C119.199 63.8185 119.254 63.841 119.312 63.841L124.266 63.8076C124.324 63.8076 124.38 63.7851 124.421 63.7452C124.462 63.7052 124.485 63.651 124.485 63.5944L124.479 62.7495C124.673 62.7252 124.851 62.6323 124.98 62.4882C125.109 62.3442 125.179 62.1591 125.177 61.9679L125.121 54.0265L118.323 54.0692ZM117.754 59.7147C117.409 59.7147 116.959 59.4027 116.577 58.894C116.169 58.3482 115.923 57.6917 115.918 57.1381C115.914 56.5242 116.075 56.0481 116.382 55.7617C116.601 55.5623 116.892 55.4549 117.191 55.4626H117.295C117.704 55.4846 118.075 55.7589 118.338 56.1774L118.361 59.3828C118.295 59.4827 118.206 59.5653 118.1 59.6232C117.994 59.6811 117.875 59.7125 117.754 59.7147Z" fill="white"/>
<path d="M98.7681 42.6801C98.7681 42.6801 99.1231 33.0234 103.708 25.4067" stroke="#2F7D80" stroke-width="2.27781" stroke-miterlimit="10"/>
<path d="M105.085 25.1119C105.102 24.5384 104.64 24.0597 104.053 24.0427C103.466 24.0256 102.976 24.4768 102.958 25.0502C102.941 25.6237 103.403 26.1025 103.99 26.1195C104.577 26.1365 105.067 25.6854 105.085 25.1119Z" fill="#2F7D80"/>
<path d="M101.005 24.495C101.023 23.9215 100.561 23.4428 99.9735 23.4258C99.3863 23.4087 98.8962 23.8598 98.8787 24.4333C98.8613 25.0068 99.3232 25.4855 99.9104 25.5026C100.498 25.5196 100.988 25.0685 101.005 24.495Z" fill="#2F7D80"/>
<path d="M106.434 32.0491C106.451 31.4756 105.989 30.9969 105.402 30.9799C104.815 30.9629 104.325 31.414 104.307 31.9875C104.29 32.561 104.752 33.0397 105.339 33.0567C105.926 33.0737 106.417 32.6226 106.434 32.0491Z" fill="#2F7D80"/>
<path d="M101.414 30.1691C101.414 30.1691 101.261 27.2892 100.189 24.9684M100.346 33.4122C100.346 33.4122 102.06 32.3272 104.828 32.0017M97.2941 41.6272C97.2941 41.6272 96.8575 31.9733 92.2156 24.3922" stroke="#2F7D80" stroke-width="2.27781" stroke-miterlimit="10"/>
<path d="M91.9418 25.1019C92.5289 25.0803 92.987 24.5981 92.9649 24.0248C92.9429 23.4514 92.4491 23.0041 91.862 23.0256C91.275 23.0471 90.8169 23.5294 90.839 24.1027C90.861 24.6761 91.3548 25.1234 91.9418 25.1019Z" fill="#2F7D80"/>
<path d="M96.0185 24.4547C96.6056 24.4332 97.0636 23.951 97.0416 23.3776C97.0195 22.8043 96.5258 22.3569 95.9387 22.3785C95.3516 22.4 94.8936 22.8822 94.9156 23.4556C94.9377 24.0289 95.4314 24.4762 96.0185 24.4547Z" fill="#2F7D80"/>
<path d="M90.6543 32.0497C91.2413 32.0282 91.6994 31.5459 91.6773 30.9726C91.6553 30.3992 91.1615 29.9519 90.5744 29.9734C89.9874 29.9949 89.5293 30.4772 89.5514 31.0505C89.5734 31.6239 90.0672 32.0712 90.6543 32.0497Z" fill="#2F7D80"/>
<path d="M94.5435 29.1349C94.5435 29.1349 94.6738 26.2542 95.7266 23.9249M95.6378 32.368C95.6378 32.368 93.9149 31.2957 91.1443 30.9923" stroke="#2F7D80" stroke-width="2.27781" stroke-miterlimit="10"/>
<path d="M99.9739 50.1445H95.9148L94.1177 40.5119H101.771L99.9739 50.1445Z" fill="#FA7C78"/>
<g opacity="0.6">
<path d="M122.778 48.2495C122.778 47.0714 123.314 47.0714 123.314 45.8932C123.314 44.7151 122.778 44.7151 122.778 43.537C122.778 42.3588 123.314 42.3588 123.314 41.1807C123.314 40.0026 122.778 40.0026 122.778 38.8244M121.2 52.9613C121.2 51.7832 121.737 51.7832 121.737 50.6051C121.737 49.4269 121.2 49.4269 121.2 48.2488C121.2 47.0707 121.737 47.0707 121.737 45.8925C121.737 44.7144 121.2 44.7144 121.2 43.5363" stroke="white" stroke-width="2.13039" stroke-linecap="round" stroke-linejoin="round"/>
</g>
<path d="M125.485 35.5969C134.935 35.5969 142.597 28.1146 142.597 18.8848C142.597 9.65502 134.935 2.17279 125.485 2.17279C116.034 2.17279 108.373 9.65502 108.373 18.8848C108.373 28.1146 116.034 35.5969 125.485 35.5969Z" fill="white"/>
<path d="M127.008 15.3544C127.008 14.5315 126.193 14.1066 125.189 14.1066C124.021 14.1066 122.934 14.7966 122.363 15.9122L117.524 13.5495C118.91 11.0007 121.656 9.24911 126.005 9.24911C130.272 9.24911 133.453 11.0014 133.453 14.3198C133.453 18.3814 129.104 19.0984 129.104 21.1413H123.501C123.502 17.9295 127.008 16.9738 127.008 15.3544ZM122.716 25.3358C122.716 23.5594 124.183 22.2036 126.304 22.2036C128.425 22.2036 129.892 23.5573 129.892 25.3358C129.892 27.0881 128.425 28.5213 126.304 28.5213C124.183 28.5213 122.713 27.0874 122.713 25.3358H122.716Z" fill="#70738C"/>
</g>
<defs>
<clipPath id="clip0_0_5577">
<rect width="233" height="126" fill="white"/>
</clipPath>
</defs>
</svg>
