<svg width="275" height="274" viewBox="0 0 275 274" fill="none" xmlns="http://www.w3.org/2000/svg">
<g filter="url(#filter0_d_0_5465)">
<circle cx="137.688" cy="134" r="117.6" fill="#020202" stroke="#FFA412" stroke-width="4.8"/>
<path d="M76.2391 181.552V193.744C76.2391 194.448 75.8871 194.8 75.1831 194.8H73.5703C73.2503 194.8 73.0071 194.73 72.8407 194.589C72.6743 194.435 72.5207 194.211 72.3799 193.917L68.7127 186.966C68.5591 186.672 68.4055 186.346 68.2519 185.987C68.1111 185.629 67.9895 185.283 67.8871 184.95H67.6759C67.7143 185.296 67.7463 185.648 67.7719 186.006C67.7975 186.352 67.8103 186.698 67.8103 187.043V194.8H65.0263V182.608C65.0263 181.904 65.3847 181.552 66.1015 181.552H67.6951C68.0023 181.552 68.2327 181.629 68.3863 181.782C68.5527 181.923 68.7127 182.141 68.8663 182.435L72.4183 189.174C72.5719 189.469 72.7319 189.795 72.8983 190.154C73.0647 190.512 73.2247 190.883 73.3783 191.267H73.6087C73.5703 190.883 73.5383 190.512 73.5127 190.154C73.4999 189.782 73.4935 189.418 73.4935 189.059L73.4743 181.552H76.2391ZM84.5466 185.066C86.1466 185.066 87.2922 185.341 87.9834 185.891C88.6874 186.429 89.0394 187.235 89.0394 188.31C89.0522 189.181 88.8346 189.834 88.3866 190.269C87.9386 190.691 87.1642 190.902 86.0634 190.902H80.7642V189.309H85.2762C85.7114 189.309 85.9866 189.219 86.1018 189.04C86.2298 188.848 86.2938 188.586 86.2938 188.253C86.281 187.805 86.1466 187.498 85.8906 187.331C85.6474 187.152 85.2314 187.062 84.6426 187.062C84.1178 187.062 83.7082 187.133 83.4138 187.274C83.1194 187.414 82.9146 187.683 82.7994 188.08C82.6842 188.477 82.6266 189.053 82.6266 189.808C82.6266 190.602 82.697 191.216 82.8378 191.651C82.9786 192.074 83.2154 192.368 83.5482 192.534C83.8938 192.701 84.3674 192.784 84.969 192.784C85.4042 192.784 85.9418 192.771 86.5818 192.746C87.2346 192.707 87.8874 192.65 88.5402 192.573L88.809 194.32C88.4378 194.499 88.0154 194.64 87.5418 194.742C87.0682 194.845 86.5818 194.915 86.0826 194.954C85.5834 195.005 85.1034 195.03 84.6426 195.03C83.4394 195.03 82.4666 194.858 81.7242 194.512C80.9946 194.154 80.4634 193.61 80.1306 192.88C79.8106 192.15 79.6506 191.216 79.6506 190.077C79.6506 188.835 79.817 187.85 80.1498 187.12C80.4826 186.39 81.0074 185.866 81.7242 185.546C82.441 185.226 83.3818 185.066 84.5466 185.066ZM95.9409 182.685V191.766C95.9409 192.112 96.0177 192.362 96.1713 192.515C96.3377 192.656 96.6065 192.726 96.9777 192.726H98.2065L98.5137 194.646C98.2833 194.723 98.0017 194.787 97.6689 194.838C97.3361 194.902 97.0033 194.947 96.6705 194.973C96.3377 195.011 96.0561 195.03 95.8257 195.03C94.9681 195.03 94.2961 194.8 93.8097 194.339C93.3361 193.878 93.0993 193.232 93.0993 192.4L93.0801 182.685H95.9409ZM98.5905 185.315V187.178H91.4289V185.411L93.2721 185.315H98.5905ZM116.315 185.315L113.973 194.051C113.922 194.282 113.806 194.467 113.627 194.608C113.448 194.736 113.237 194.8 112.994 194.8H110.843C110.587 194.8 110.363 194.723 110.171 194.57C109.979 194.403 109.864 194.192 109.826 193.936L108.789 188.598C108.75 188.33 108.718 188.067 108.693 187.811C108.667 187.542 108.629 187.274 108.578 187.005H108.347C108.309 187.274 108.27 187.542 108.232 187.811C108.194 188.067 108.155 188.33 108.117 188.598L107.08 193.936C107.042 194.192 106.926 194.403 106.734 194.57C106.542 194.723 106.318 194.8 106.062 194.8H103.931C103.688 194.8 103.477 194.736 103.297 194.608C103.118 194.467 103.003 194.282 102.952 194.051L100.609 185.315H103.47L104.776 191.459C104.827 191.715 104.872 191.978 104.91 192.246C104.949 192.502 104.981 192.758 105.006 193.014H105.256C105.294 192.758 105.333 192.502 105.371 192.246C105.422 191.978 105.467 191.715 105.506 191.459L106.542 186.179C106.581 185.923 106.689 185.718 106.869 185.565C107.048 185.398 107.272 185.315 107.541 185.315H109.384C109.64 185.315 109.858 185.398 110.037 185.565C110.229 185.718 110.344 185.93 110.382 186.198L111.4 191.459C111.438 191.715 111.483 191.971 111.534 192.227C111.586 192.483 111.63 192.746 111.669 193.014H111.899C111.95 192.746 111.989 192.49 112.014 192.246C112.053 191.99 112.098 191.728 112.149 191.459L113.454 185.315H116.315ZM123.529 185.066C124.719 185.066 125.673 185.232 126.39 185.565C127.107 185.885 127.619 186.41 127.926 187.139C128.246 187.869 128.406 188.848 128.406 190.077C128.406 191.28 128.246 192.246 127.926 192.976C127.619 193.706 127.107 194.23 126.39 194.55C125.673 194.87 124.719 195.03 123.529 195.03C122.351 195.03 121.398 194.87 120.668 194.55C119.951 194.23 119.433 193.706 119.113 192.976C118.793 192.246 118.633 191.28 118.633 190.077C118.633 188.848 118.793 187.869 119.113 187.139C119.433 186.41 119.951 185.885 120.668 185.565C121.398 185.232 122.351 185.066 123.529 185.066ZM123.529 187.139C123.043 187.139 122.659 187.222 122.377 187.389C122.095 187.555 121.897 187.85 121.782 188.272C121.667 188.694 121.609 189.296 121.609 190.077C121.609 190.845 121.667 191.44 121.782 191.862C121.897 192.285 122.095 192.579 122.377 192.746C122.659 192.899 123.043 192.976 123.529 192.976C124.015 192.976 124.399 192.899 124.681 192.746C124.963 192.579 125.161 192.285 125.276 191.862C125.391 191.44 125.449 190.845 125.449 190.077C125.449 189.296 125.391 188.694 125.276 188.272C125.161 187.85 124.963 187.555 124.681 187.389C124.399 187.222 124.015 187.139 123.529 187.139ZM133.913 185.315L134.259 187.197L134.528 187.446V194.8H131.686V185.315H133.913ZM138.54 185.066L138.272 187.696H137.484C137.036 187.696 136.569 187.76 136.083 187.888C135.596 188.016 134.982 188.208 134.24 188.464L134.048 186.87C134.713 186.282 135.385 185.834 136.064 185.526C136.742 185.219 137.401 185.066 138.041 185.066H138.54ZM150.401 185.315L147.925 188.618C147.809 188.797 147.662 188.97 147.483 189.136C147.304 189.302 147.157 189.424 147.041 189.501V189.578C147.157 189.642 147.304 189.776 147.483 189.981C147.662 190.186 147.809 190.39 147.925 190.595L150.728 194.8H147.56L144.315 189.462L147.233 185.315H150.401ZM144.065 181.36L144.085 186.909C144.085 187.357 144.059 187.792 144.008 188.214C143.957 188.637 143.88 189.053 143.777 189.462C143.867 189.859 143.937 190.269 143.989 190.691C144.04 191.101 144.065 191.485 144.065 191.843V194.8H141.224V181.36H144.065ZM145.39 188.656V190.384H143.182V188.656H145.39ZM164.082 181.322C164.492 181.322 164.972 181.334 165.522 181.36C166.072 181.373 166.636 181.437 167.212 181.552L166.866 183.53C166.712 183.517 166.527 183.51 166.309 183.51C166.092 183.498 165.855 183.491 165.599 183.491C165.343 183.478 165.08 183.472 164.812 183.472C164.543 183.472 164.274 183.472 164.005 183.472C163.468 183.472 163.039 183.517 162.719 183.606C162.412 183.683 162.194 183.85 162.066 184.106C161.938 184.362 161.874 184.746 161.874 185.258C161.874 185.718 161.925 186.077 162.028 186.333C162.143 186.589 162.328 186.768 162.584 186.87C162.853 186.973 163.218 187.024 163.679 187.024H171.224V188.925H163.525C163.026 188.925 162.636 188.982 162.354 189.098C162.072 189.213 161.874 189.405 161.759 189.674C161.656 189.942 161.605 190.339 161.605 190.864C161.605 191.35 161.65 191.728 161.74 191.997C161.842 192.266 162.021 192.458 162.277 192.573C162.533 192.675 162.892 192.726 163.352 192.726C164.018 192.714 164.652 192.618 165.253 192.438C165.855 192.259 166.367 191.997 166.789 191.651L167.058 193.245C166.687 193.667 166.29 194.013 165.868 194.282C165.445 194.55 164.965 194.742 164.428 194.858C163.903 194.973 163.269 195.03 162.527 195.03C161.58 195.03 160.805 194.915 160.204 194.685C159.615 194.454 159.186 194.077 158.917 193.552C158.648 193.027 158.514 192.317 158.514 191.421C158.514 190.41 158.706 189.61 159.09 189.021C159.474 188.419 160.152 188.074 161.125 187.984V187.869C160.319 187.792 159.749 187.504 159.416 187.005C159.084 186.506 158.917 185.776 158.917 184.816C158.917 184.035 159.013 183.414 159.205 182.954C159.397 182.48 159.698 182.128 160.108 181.898C160.53 181.667 161.068 181.514 161.72 181.437C162.373 181.36 163.16 181.322 164.082 181.322ZM169.189 184.95V191.786C169.189 192.131 169.26 192.381 169.4 192.534C169.541 192.688 169.778 192.765 170.111 192.765H171.301L171.628 194.646C171.41 194.723 171.141 194.787 170.821 194.838C170.514 194.902 170.207 194.947 169.9 194.973C169.605 195.011 169.356 195.03 169.151 195.03C168.306 195.03 167.653 194.813 167.192 194.378C166.744 193.942 166.52 193.341 166.52 192.573V187.888L166.789 184.95H169.189ZM190.751 181.552L187.141 193.994C187.077 194.224 186.949 194.416 186.757 194.57C186.578 194.723 186.361 194.8 186.105 194.8H183.417C183.148 194.8 182.917 194.723 182.725 194.57C182.546 194.416 182.431 194.224 182.38 193.994L178.751 181.552H181.785L184.204 191.114C184.255 191.357 184.306 191.606 184.357 191.862C184.421 192.106 184.473 192.349 184.511 192.592H185.01C185.049 192.349 185.093 192.099 185.145 191.843C185.209 191.587 185.273 191.338 185.337 191.094L187.737 181.552H190.751ZM196.293 185.315V194.8H193.471V185.315H196.293ZM195.506 181.13C196.069 181.13 196.351 181.418 196.351 181.994V183.011C196.351 183.587 196.069 183.875 195.506 183.875H194.277C193.714 183.875 193.432 183.587 193.432 183.011V181.994C193.432 181.418 193.714 181.13 194.277 181.13H195.506ZM206.015 185.066C207.27 185.066 208.166 185.45 208.703 186.218C209.254 186.973 209.529 188.227 209.529 189.981C209.529 190.71 209.458 191.382 209.318 191.997C209.19 192.611 208.953 193.149 208.607 193.61C208.274 194.058 207.807 194.41 207.206 194.666C206.604 194.909 205.823 195.03 204.863 195.03C204.53 195.03 204.146 195.011 203.711 194.973C203.276 194.947 202.828 194.902 202.367 194.838C201.919 194.787 201.49 194.717 201.081 194.627C200.671 194.525 200.319 194.41 200.025 194.282L202.29 192.65C202.534 192.726 202.802 192.797 203.097 192.861C203.391 192.912 203.692 192.95 203.999 192.976C204.306 192.989 204.575 192.989 204.806 192.976C205.241 192.963 205.586 192.874 205.842 192.707C206.111 192.528 206.303 192.227 206.418 191.805C206.534 191.37 206.591 190.768 206.591 190C206.591 189.296 206.54 188.752 206.438 188.368C206.348 187.971 206.175 187.696 205.919 187.542C205.676 187.376 205.33 187.293 204.882 187.293C204.46 187.293 204.076 187.382 203.73 187.562C203.385 187.741 203.001 187.978 202.578 188.272L202.367 186.928C202.7 186.57 203.058 186.25 203.442 185.968C203.826 185.686 204.236 185.469 204.671 185.315C205.106 185.149 205.554 185.066 206.015 185.066ZM202.866 181.36L202.886 184.432C202.886 184.867 202.86 185.29 202.809 185.699C202.77 186.096 202.694 186.486 202.578 186.87L202.847 187.12L202.866 194.416L200.025 194.282V181.36H202.866ZM217.281 185.066C218.881 185.066 220.026 185.341 220.718 185.891C221.422 186.429 221.774 187.235 221.774 188.31C221.786 189.181 221.569 189.834 221.121 190.269C220.673 190.691 219.898 190.902 218.798 190.902H213.498V189.309H218.01C218.446 189.309 218.721 189.219 218.836 189.04C218.964 188.848 219.028 188.586 219.028 188.253C219.015 187.805 218.881 187.498 218.625 187.331C218.382 187.152 217.966 187.062 217.377 187.062C216.852 187.062 216.442 187.133 216.148 187.274C215.854 187.414 215.649 187.683 215.534 188.08C215.418 188.477 215.361 189.053 215.361 189.808C215.361 190.602 215.431 191.216 215.572 191.651C215.713 192.074 215.95 192.368 216.282 192.534C216.628 192.701 217.102 192.784 217.703 192.784C218.138 192.784 218.676 192.771 219.316 192.746C219.969 192.707 220.622 192.65 221.274 192.573L221.543 194.32C221.172 194.499 220.75 194.64 220.276 194.742C219.802 194.845 219.316 194.915 218.817 194.954C218.318 195.005 217.838 195.03 217.377 195.03C216.174 195.03 215.201 194.858 214.458 194.512C213.729 194.154 213.198 193.61 212.865 192.88C212.545 192.15 212.385 191.216 212.385 190.077C212.385 188.835 212.551 187.85 212.884 187.12C213.217 186.39 213.742 185.866 214.458 185.546C215.175 185.226 216.116 185.066 217.281 185.066Z" fill="#F1C983"/>
<path d="M150.839 106.323C151.292 106.072 151.723 105.826 151.987 105.391C152.111 105.187 152.22 104.984 152.413 104.845C152.611 104.703 152.788 104.466 152.958 104.268C153.119 104.081 153.289 103.834 153.552 103.754C153.868 103.658 153.774 104.067 153.672 104.332C153.563 104.619 152.757 105.147 152.861 105.456C152.965 105.764 153.906 105.061 154.091 104.918C154.528 104.58 154.477 104.17 154.684 103.715C154.805 103.449 154.941 103.364 155.108 103.657C155.234 103.875 155.123 104.148 155.045 104.365C154.889 104.807 154.616 105.273 154.254 105.588C154.565 105.376 154.932 104.857 155.109 104.525C155.232 104.294 155.582 103.224 155.961 103.384C156.72 103.708 155.239 105.776 154.831 105.997C155.217 105.734 155.484 105.355 155.761 104.981C155.923 104.762 156.284 104.228 156.458 104.685C156.715 105.359 155.458 106.146 154.96 106.598C155.381 106.414 155.639 106.143 156.025 105.838C156.481 105.477 156.586 105.937 156.185 106.387C156.016 106.577 155.616 106.897 155.527 106.965C154.593 107.678 153.955 107.819 152.83 107.927C152.426 107.966 151.727 108.463 151.442 108.258C150.89 107.86 150.937 106.89 150.839 106.323L150.839 106.323Z" fill="#E7A192"/>
<path d="M151.399 105.18C151.399 105.18 142.724 107.597 141.847 107.54C140.969 107.482 138.936 99.849 138.122 96.0814C138.046 95.7308 136.892 95.7099 135.586 94.6082C135.046 94.1535 133.45 95.0237 132.916 94.6082C131.891 95.6902 131.607 97.2562 132.23 98.6307C134.206 102.997 135.905 111.378 140.454 111.465C146.469 111.58 152.571 108.439 152.571 108.439L151.399 105.18H151.399Z" fill="#33A5AD"/>
<path d="M153.272 106.221C153.272 106.221 152.924 105.629 152.864 105.453C152.76 105.144 153.566 104.617 153.676 104.329C153.778 104.065 153.871 103.655 153.555 103.751C153.292 103.832 153.122 104.079 152.962 104.265C152.791 104.464 152.614 104.701 152.416 104.843C152.223 104.982 152.115 105.184 151.99 105.388C151.891 105.552 151.762 105.683 151.624 105.804C151.95 106.097 153.272 106.221 153.272 106.221V106.221Z" fill="#E7A192"/>
<path d="M115.005 163.472H153.279V156.879H115.005V163.472Z" fill="#FFCE72"/>
<path d="M117.145 163.472H119.072V156.879H117.145V163.472Z" fill="#FAAA41"/>
<path d="M121.19 163.472H123.117V156.879H121.19V163.472Z" fill="#FAAA41"/>
<path d="M125.24 163.472H127.166V156.879H125.24V163.472Z" fill="#FAAA41"/>
<path d="M129.285 163.472H131.211V156.879H129.285V163.472Z" fill="#FAAA41"/>
<path d="M133.33 163.472H135.256V156.879H133.33V163.472Z" fill="#FAAA41"/>
<path d="M137.371 163.472H139.297V156.879H137.371V163.472Z" fill="#FAAA41"/>
<path d="M141.42 163.472H143.347V156.879H141.42V163.472Z" fill="#FAAA41"/>
<path d="M145.465 163.472H147.392V156.879H145.465V163.472Z" fill="#FAAA41"/>
<path d="M149.51 163.472H151.437V156.879H149.51V163.472Z" fill="#FAAA41"/>
<path d="M110.144 156.878H148.417V150.284H110.144V156.878Z" fill="#FFCE72"/>
<path d="M112.288 156.878H114.214V150.284H112.288V156.878Z" fill="#FAAA41"/>
<path d="M116.333 156.878H118.26V150.284H116.333V156.878Z" fill="#FAAA41"/>
<path d="M120.378 156.878H122.305V150.284H120.378V156.878Z" fill="#FAAA41"/>
<path d="M124.424 156.878H126.35V150.284H124.424V156.878Z" fill="#FAAA41"/>
<path d="M128.469 156.878H130.395V150.284H128.469V156.878Z" fill="#FAAA41"/>
<path d="M132.514 156.878H134.44V150.284H132.514V156.878Z" fill="#FAAA41"/>
<path d="M136.563 156.878H138.49V150.284H136.563V156.878Z" fill="#FAAA41"/>
<path d="M140.608 156.878H142.535V150.284H140.608V156.878Z" fill="#FAAA41"/>
<path d="M144.654 156.878H146.58V150.284H144.654V156.878Z" fill="#FAAA41"/>
<path d="M116.72 150.286H154.993V143.694H116.72V150.286Z" fill="#FFCE72"/>
<path d="M118.859 150.286H120.786V143.694H118.859V150.286Z" fill="#FAAA41"/>
<path d="M122.905 150.286H124.831V143.694H122.905V150.286Z" fill="#FAAA41"/>
<path d="M126.95 150.286H128.877V143.694H126.95V150.286Z" fill="#FAAA41"/>
<path d="M130.999 150.286H132.925V143.694H130.999V150.286Z" fill="#FAAA41"/>
<path d="M135.04 150.286H136.966V143.694H135.04V150.286Z" fill="#FAAA41"/>
<path d="M139.089 150.286H141.016V143.694H139.089V150.286Z" fill="#FAAA41"/>
<path d="M143.13 150.286H145.057V143.694H143.13V150.286Z" fill="#FAAA41"/>
<path d="M147.18 150.286H149.106V143.694H147.18V150.286Z" fill="#FAAA41"/>
<path d="M151.225 150.286H153.152V143.694H151.225V150.286Z" fill="#FAAA41"/>
<path d="M113.382 143.693H151.655V137.101H113.382V143.693Z" fill="#FFCE72"/>
<path d="M115.517 143.693H117.444V137.101H115.517V143.693Z" fill="#FAAA41"/>
<path d="M119.562 143.693H121.489V137.101H119.562V143.693Z" fill="#FAAA41"/>
<path d="M123.612 143.693H125.538V137.101H123.612V143.693Z" fill="#FAAA41"/>
<path d="M127.657 143.693H129.584V137.101H127.657V143.693Z" fill="#FAAA41"/>
<path d="M131.698 143.693H133.625V137.101H131.698V143.693Z" fill="#FAAA41"/>
<path d="M135.747 143.693H137.675V137.101H135.747V143.693Z" fill="#FAAA41"/>
<path d="M139.792 143.693H141.719V137.101H139.792V143.693Z" fill="#FAAA41"/>
<path d="M143.838 143.693H145.764V137.101H143.838V143.693Z" fill="#FAAA41"/>
<path d="M147.887 143.693H149.814V137.101H147.887V143.693Z" fill="#FAAA41"/>
<path d="M108.517 137.098H146.791V130.506H108.517V137.098Z" fill="#FFCE72"/>
<path d="M110.661 137.098H112.587V130.506H110.661V137.098Z" fill="#FAAA41"/>
<path d="M114.706 137.098H116.633V130.506H114.706V137.098Z" fill="#FAAA41"/>
<path d="M118.755 137.098H120.681V130.506H118.755V137.098Z" fill="#FAAA41"/>
<path d="M122.796 137.098H124.722V130.506H122.796V137.098Z" fill="#FAAA41"/>
<path d="M126.841 137.098H128.768V130.506H126.841V137.098Z" fill="#FAAA41"/>
<path d="M130.891 137.098H132.817V130.506H130.891V137.098Z" fill="#FAAA41"/>
<path d="M134.936 137.098H136.862V130.506H134.936V137.098Z" fill="#FAAA41"/>
<path d="M138.981 137.098H140.908V130.506H138.981V137.098Z" fill="#FAAA41"/>
<path d="M143.03 137.098H144.958V130.506H143.03V137.098Z" fill="#FAAA41"/>
<path d="M113.681 130.506H151.955V123.913H113.681V130.506Z" fill="#FFCE72"/>
<path d="M115.817 130.506H117.743V123.913H115.817V130.506Z" fill="#FAAA41"/>
<path d="M119.862 130.506H121.789V123.913H119.862V130.506Z" fill="#FAAA41"/>
<path d="M123.911 130.506H125.838V123.913H123.911V130.506Z" fill="#FAAA41"/>
<path d="M127.957 130.506H129.884V123.913H127.957V130.506Z" fill="#FAAA41"/>
<path d="M131.997 130.506H133.924V123.913H131.997V130.506Z" fill="#FAAA41"/>
<path d="M136.051 130.506H137.978V123.913H136.051V130.506Z" fill="#FAAA41"/>
<path d="M140.092 130.506H142.018V123.913H140.092V130.506Z" fill="#FAAA41"/>
<path d="M144.137 130.506H146.064V123.913H144.137V130.506Z" fill="#FAAA41"/>
<path d="M148.187 130.506H150.113V123.913H148.187V130.506Z" fill="#FAAA41"/>
<path d="M155.491 132.786C155.491 132.786 156.296 136.522 157.045 136.872C157.793 137.222 165.646 135.292 166.099 134.406C166.552 133.52 165.912 132.594 164.234 132.658C162.727 132.715 161.737 133.273 160.515 133.091C159.442 132.931 158.393 130.894 158.393 130.894L155.491 132.787V132.786Z" fill="#2C2A43"/>
<path d="M142.146 141.278C142.146 141.278 140.133 144.527 140.43 145.298C140.726 146.069 147.719 150.13 148.66 149.805C149.601 149.482 149.783 148.371 148.53 147.253C147.405 146.249 146.306 145.963 145.552 144.984C144.89 144.124 145.549 141.93 145.549 141.93L142.146 141.278Z" fill="#2C2A43"/>
<path d="M130.399 113.723C130.399 113.723 133.567 115.371 135.044 115.178C136.522 114.986 149.159 115.981 150.636 117.201C152.113 118.421 146.069 142.792 146.069 142.792L141.059 141.957C141.059 141.957 142.855 124.14 142.555 124.012C142.256 123.883 134.691 123.912 121.794 123.912C118.647 123.912 115.137 117.298 119.119 112.674L130.399 113.723Z" fill="#268CCB"/>
<path d="M148.478 132.421C148.616 131.79 148.755 131.15 148.891 130.507H148.903C148.762 131.147 148.619 131.787 148.478 132.421H148.478ZM150.263 123.914H150.186C150.321 123.142 150.44 122.41 150.54 121.73C150.57 121.747 150.601 121.762 150.632 121.777C150.524 122.455 150.4 123.171 150.263 123.914H150.263Z" fill="#5D94C2"/>
<path d="M150.109 124.722V124.347C150.135 124.202 150.161 124.057 150.186 123.913H150.262C150.213 124.179 150.162 124.448 150.109 124.722V124.722Z" fill="#5F838E"/>
<path d="M147.194 116.243C143.391 115.6 137.658 115.158 135.638 115.158C135.37 115.158 135.167 115.166 135.043 115.182C135.262 115.154 135.727 115.139 136.368 115.139C138.763 115.139 143.597 115.341 147.049 115.765C147.095 115.924 147.144 116.083 147.194 116.243H147.194ZM134.784 115.197C133.226 115.197 130.398 113.727 130.398 113.727L129.671 113.659L130.399 113.727C130.399 113.727 133.226 115.197 134.784 115.197Z" fill="#5D94C2"/>
<path d="M148.906 130.508H148.894C149.343 128.397 149.771 126.268 150.113 124.349V124.723C149.76 126.557 149.339 128.535 148.906 130.508Z" fill="#5C7776"/>
<path d="M148.481 132.423C147.472 128.781 145.908 125.363 144.448 122.103C143.233 119.39 140.534 117.963 137.814 117.242C136.241 116.826 134.567 116.736 132.973 116.383C131.644 116.089 130.578 114.957 129.671 113.659L130.398 113.727C130.398 113.727 133.226 115.197 134.784 115.197C134.785 115.197 134.786 115.197 134.786 115.197C134.876 115.197 134.963 115.192 135.043 115.182C135.167 115.166 135.37 115.158 135.638 115.158C137.658 115.158 143.391 115.6 147.194 116.243C147.514 117.264 147.914 118.282 148.458 119.182C148.966 120.02 149.631 121.233 150.543 121.731C150.443 122.411 150.324 123.143 150.19 123.915C150.165 124.059 150.139 124.204 150.113 124.35C149.771 126.269 149.343 128.398 148.895 130.509C148.758 131.151 148.619 131.791 148.481 132.423L148.481 132.423Z" fill="#2674B9"/>
<path d="M131.706 111.007C131.706 111.007 146.754 111.906 148.189 113.319C149.623 114.732 159.306 131.398 159.306 131.398L155.316 134.275C155.316 134.275 147.383 122.578 143.561 118.019C142.693 116.983 141.492 116.293 140.159 116.07C138.529 115.796 136.151 115.438 134.371 115.342C131.385 115.181 130.031 113.691 130.031 113.691L131.706 111.007H131.706Z" fill="#268CCB"/>
<path d="M135.565 87.7646C135.093 87.4982 134.697 87.145 134.324 86.7643C133.957 88.2123 133.086 90.862 131.42 92.103C131.42 92.103 134.374 93.7491 136.986 93.4823C136.986 93.4823 137.09 89.9948 137.814 88.3648C137.031 88.3229 136.257 88.1575 135.565 87.7645L135.565 87.7646Z" fill="#FBCDC2"/>
<path d="M133.554 91.7897C134.218 90.3221 135.864 89.555 137.409 89.7177C137.516 89.2126 137.648 88.7391 137.814 88.3649C137.031 88.323 136.257 88.1576 135.565 87.7646C135.093 87.4982 134.697 87.145 134.324 86.7643C133.957 88.2123 133.086 90.862 131.42 92.103C131.42 92.103 132.145 92.5061 133.192 92.881C133.26 92.5168 133.386 92.1595 133.554 91.7896V91.7897Z" fill="#E7A192"/>
<path d="M138.102 78.7861C138.102 78.7861 141.965 79.0277 142.793 80.1258C143.621 81.2248 143.648 83.6894 142.978 84.8683C142.308 86.0472 143.187 88.0518 143.051 88.5179C142.942 88.8929 141.72 88.7241 141.631 88.8485C141.541 88.9737 140.6 91.229 138.941 91.0343C136.608 90.7587 134.423 87.9579 133.94 86.2968C133.458 84.6362 134.566 78.3127 138.102 78.7861Z" fill="#FBCDC2"/>
<path d="M144.465 81.3967C144.353 81.1447 143.999 80.6704 143.975 80.3923C143.954 80.1596 143.996 79.9196 143.943 79.6958C143.775 78.988 143.841 78.5437 142.455 77.4447C141.251 76.4905 139.314 76.3125 137.893 76.7651C137.37 76.9316 136.87 77.1868 136.446 77.5393C136.319 77.6451 135.94 77.9239 135.943 78.087C135.946 78.2931 136.409 78.6105 136.532 78.7643C136.753 79.0382 136.891 79.3847 137.067 79.6903C138.149 81.5722 140.082 83.8847 142.495 82.777C142.812 82.6307 143.136 82.4675 143.432 82.2799C143.478 83.1034 143.402 84.0043 143.028 84.7525C143.028 84.7525 143.755 84.545 144.156 83.9156C144.836 82.8505 144.732 81.9996 144.465 81.3967Z" fill="#2C2A43"/>
<path d="M137.215 78.4886C136.885 78.1034 136.074 77.8761 135.604 77.8035C134.624 77.6524 133.881 78.1267 133.384 78.9444C133.083 79.439 132.799 79.9552 132.6 80.4983C132.247 81.4605 132.062 82.078 132.062 83.1026C132.062 84.0687 132.183 85.0699 132.623 85.9428C133.021 86.7305 133.973 87.8281 134.664 87.8166C134.932 87.8125 135.906 86.2774 136.01 85.8209C136.109 85.3818 135.907 85.298 135.652 84.9876C135.221 84.4637 134.843 83.614 135.501 83.1026C136.439 82.3737 137.336 83.218 137.215 84.6782C137.215 84.6782 137.349 85.5758 137.631 85.549C137.912 85.5215 140.404 82.204 137.215 78.4886Z" fill="#2C2A43"/>
<path d="M135.834 83.3877C135.834 83.3877 136.51 83.3652 136.753 84.0478C136.979 84.6861 136.488 85.3852 136.194 84.9393C135.9 84.4928 136.158 84.3032 136.178 84.0372C136.2 83.7722 135.984 83.4708 135.834 83.3876V83.3877Z" fill="#E7A192"/>
<path d="M116.633 114.066C116.633 114.066 121.128 118.906 132.965 115.568C132.965 115.568 133.366 112.613 134.621 109.702C135.876 106.791 137.914 101.071 138.316 97.9716C138.771 94.4722 137.033 92.6686 137.033 92.6686C137.033 92.6686 134.795 94.3242 132.077 91.5083C132.077 91.5083 126.223 92.1918 122.797 98.3571C119.373 104.522 116.633 114.066 116.633 114.066H116.633Z" fill="#3FC0C6"/>
<path d="M132.9 96.5262C132.86 96.381 132.828 96.2286 132.793 96.0786C129.957 97.4609 130.315 100.2 130.997 104.326C131.521 107.499 133.042 112.511 133.345 113.636C133.603 112.543 134.01 111.118 134.622 109.699C135.202 108.355 135.947 106.412 136.622 104.404C135.591 102.898 134.902 101.278 134.28 99.5158C133.915 98.4818 133.192 97.5945 132.9 96.5262V96.5262Z" fill="#33A5AD"/>
<path d="M152.253 103.415L162.204 97.4827C162.204 97.4827 165.831 101.039 166.858 105.887L155.564 111.179C155.564 111.179 153.803 107.033 152.253 103.415H152.253Z" fill="#E5E6E5"/>
<path d="M159.948 107.129C157.632 106.443 155.19 104.621 154.009 102.365L152.253 103.412C153.802 107.03 155.564 111.176 155.564 111.176L163.809 107.313C162.561 107.524 161.332 107.541 159.948 107.129Z" fill="#A8AAAB"/>
<path d="M154.016 104L158.267 103.542L158.398 103.529L158.465 103.63L159.062 104.54L158.896 104.451H162.074L162.107 104.607L162.364 105.795L162.14 105.641L164.33 105.301L164.391 105.692L162.201 106.032L162.017 106.061L161.977 105.878L161.72 104.691L161.914 104.847H158.789L158.73 104.758L158.133 103.847L158.33 103.934L154.143 104.812L154.016 104Z" fill="#F1666E"/>
<path d="M164.119 105.533L163.742 105.086L163.757 105.072L164.612 105.266C164.902 105.285 165.193 105.303 165.482 105.321C165.211 105.426 164.941 105.532 164.67 105.637L163.914 106.082L163.896 106.076L164.119 105.533Z" fill="#F1666E"/>
<path d="M162.886 100.072C162.84 99.9926 162.73 99.9652 162.643 100.012L161.855 100.419L161.485 99.7437C161.442 99.666 161.332 99.6434 161.238 99.6896C161.143 99.7364 161.098 99.8399 161.14 99.9182L161.5 100.602L160.64 101.046C160.532 101.102 160.478 101.222 160.517 101.314C160.547 101.382 160.622 101.417 160.701 101.407L160.787 101.379L161.663 100.912L162.063 101.671C162.099 101.739 162.171 101.771 162.247 101.76L162.334 101.729C162.432 101.668 162.472 101.545 162.421 101.454L162.02 100.721L162.805 100.303C162.896 100.255 162.931 100.151 162.886 100.072H162.886Z" fill="#33A5AD"/>
<path d="M152.219 109.53C152.735 109.557 153.231 109.576 153.686 109.348C153.9 109.24 154.098 109.127 154.335 109.112C154.579 109.095 154.854 108.988 155.104 108.91C155.339 108.837 155.614 108.718 155.881 108.789C156.199 108.875 155.903 109.173 155.676 109.343C155.431 109.528 154.468 109.549 154.393 109.866C154.318 110.183 155.488 110.084 155.721 110.062C156.27 110.007 156.445 109.632 156.862 109.355C157.105 109.194 157.265 109.195 157.252 109.532C157.242 109.783 157.003 109.955 156.823 110.098C156.456 110.39 155.978 110.64 155.504 110.716C155.88 110.702 156.466 110.456 156.793 110.268C157.019 110.138 157.883 109.415 158.118 109.752C158.592 110.428 156.24 111.398 155.777 111.368C156.243 111.351 156.671 111.17 157.103 111C157.357 110.901 157.946 110.639 157.852 111.119C157.712 111.827 156.229 111.828 155.566 111.947C156.021 112.015 156.385 111.921 156.873 111.867C157.451 111.802 157.297 112.248 156.717 112.417C156.474 112.488 155.965 112.548 155.854 112.559C154.683 112.668 154.068 112.45 153.057 111.945C152.693 111.764 151.837 111.815 151.704 111.49C151.446 110.861 152.002 110.063 152.219 109.53V109.53Z" fill="#FBCDC2"/>
<path d="M152.452 109.143L152.74 112.482C152.74 112.482 138.39 113.636 136.745 112.588C135.099 111.539 134.317 109.836 133.797 108.304C132.756 105.244 128.659 96.8133 132.351 95.5288C133.509 95.1264 135.04 95.1351 135.814 96.6477C137.545 100.028 139.399 107.571 139.888 107.892C140.572 108.341 152.452 109.143 152.452 109.143Z" fill="#3FC0C6"/>
</g>
<defs>
<filter id="filter0_d_0_5465" x="0.839759" y="0.0823008" width="273.695" height="273.695" filterUnits="userSpaceOnUse" color-interpolation-filters="sRGB">
<feFlood flood-opacity="0" result="BackgroundImageFix"/>
<feColorMatrix in="SourceAlpha" type="matrix" values="0 0 0 0 0 0 0 0 0 0 0 0 0 0 0 0 0 0 127 0" result="hardAlpha"/>
<feMorphology radius="0.732511" operator="erode" in="SourceAlpha" result="effect1_dropShadow_0_5465"/>
<feOffset dy="2.93004"/>
<feGaussianBlur stdDeviation="8.79013"/>
<feComposite in2="hardAlpha" operator="out"/>
<feColorMatrix type="matrix" values="0 0 0 0 0 0 0 0 0 0 0 0 0 0 0 0 0 0 0.2 0"/>
<feBlend mode="normal" in2="BackgroundImageFix" result="effect1_dropShadow_0_5465"/>
<feBlend mode="normal" in="SourceGraphic" in2="effect1_dropShadow_0_5465" result="shape"/>
</filter>
</defs>
</svg>
