<svg width="8" height="8" viewBox="0 0 8 8" fill="none" xmlns="http://www.w3.org/2000/svg">
<path d="M3.246 7.7103C3.20733 7.67075 3.042 7.5214 2.906 7.38229C2.05067 6.5667 0.650667 4.43909 0.223333 3.3255C0.154667 3.15638 0.00933333 2.72881 0 2.50036C0 2.28146 0.048 2.07279 0.145333 1.87367C0.281333 1.62545 0.495333 1.42632 0.748 1.31722C0.923333 1.24698 1.448 1.13787 1.45733 1.13787C2.03133 1.02876 2.964 0.96875 3.99467 0.96875C4.97667 0.96875 5.87133 1.02876 6.454 1.11809C6.46333 1.12832 7.11533 1.23743 7.33867 1.35677C7.74667 1.57567 8 2.00324 8 2.46081V2.50036C7.99 2.79837 7.73667 3.42506 7.72733 3.42506C7.29933 4.47864 5.968 6.55716 5.08333 7.39252C5.08333 7.39252 4.856 7.62779 4.714 7.73007C4.51 7.88965 4.25733 7.96875 4.00467 7.96875C3.72267 7.96875 3.46 7.87942 3.246 7.7103Z" fill="#323232"/>
</svg>
