<svg width="153" height="279" viewBox="0 0 153 279" fill="none" xmlns="http://www.w3.org/2000/svg">
<g clip-path="url(#clip0_0_5759)">
<rect x="0.6875" y="0.638672" width="152" height="278" rx="20" fill="#020202"/>
<path d="M16.9905 252.602V145.89C16.9905 144.238 18.3291 142.9 19.9801 142.9H105.851C107.503 142.9 108.841 144.239 108.841 145.89V252.602C108.841 254.253 107.502 255.592 105.851 255.592H19.9804C18.3291 255.592 16.9905 254.253 16.9905 252.602Z" fill="#696967"/>
<path d="M104.122 147.624H21.7209V250.872H104.122V147.624Z" fill="#E4E4E3"/>
<path d="M87.6246 187.312V224.345H30.947V198.825L37.4923 191.314L42.8747 195.983L51.7226 189.429L57.8213 194.33L65.8601 189.429L75.3663 196.447L87.6246 187.312Z" fill="#59B1E3"/>
<path d="M89.2917 227.169H28.0176V192.084H30.9176V224.269H89.2917V227.169Z" fill="#C7C7C7"/>
<path d="M62.9212 159.669C61.5374 159.669 60.2379 159.166 59.3548 158.288C58.5031 157.441 57.1041 156.431 55.2771 156.431H41.0805C39.5939 156.431 38.3855 155.223 38.3855 153.736V147.035H87.4573V153.736C87.4573 155.223 86.2488 156.431 84.7635 156.431H70.5738C68.756 156.431 67.3443 157.449 66.481 158.304C65.6023 159.171 64.3051 159.669 62.9212 159.669ZM39.5673 148.217V153.736C39.5673 154.571 40.2458 155.249 41.0805 155.249H55.2771C57.0418 155.249 58.7397 156.01 60.1883 157.451C61.5133 158.769 64.3318 158.765 65.6499 157.463C67.1146 156.015 68.8169 155.249 70.5738 155.249H84.7635C85.5969 155.249 86.2755 154.571 86.2755 153.736V148.217H39.5673Z" fill="#221F1F"/>
<path d="M89.229 146.065V147.199C89.229 147.767 88.7798 148.216 88.2125 148.216H37.6275C37.06 148.216 36.6111 147.767 36.6111 147.199V146.065C36.6111 145.498 37.0603 145.048 37.6275 145.048H88.2125C88.7798 145.048 89.229 145.498 89.229 146.065Z" fill="#221F1F"/>
<path d="M33.7304 179.629C33.5659 181.059 34.0601 182.159 34.0601 183.974C34.0601 185.789 29.0559 203.443 28.9457 204.323C28.8354 205.148 26.8556 209.383 24.6006 211.418C22.3461 213.398 18.1661 218.898 18.1661 218.898C11.3464 217.523 4.41658 216.808 -2.56836 216.863C-1.41358 210.483 -2.45816 192.389 -3.50361 189.309C-4.49396 186.229 -1.74389 181.994 -1.74389 181.994C-1.79899 177.979 -0.313901 173.359 0.512019 170.884C1.39159 168.409 8.10103 167.144 8.10103 167.144C16.0212 161.755 24.5455 160.159 26.0857 160.654C27.5708 161.149 26.6361 165.109 26.251 165.604C25.8105 166.099 17.836 169.674 15.0312 171.324C12.2263 173.029 14.0965 173.524 14.0965 173.524C17.2862 170.774 30.1004 165.494 31.2552 166.044C32.4106 166.539 32.1359 169.619 31.5855 170.774C31.0357 171.874 23.0604 175.999 21.0814 177.539C19.101 179.079 16.351 185.514 16.0757 187.604C15.8562 189.639 19.9812 191.124 22.0161 189.969C24.1061 188.759 25.9207 178.419 27.0754 176.604C28.3485 174.696 30.4972 173.109 32.7403 173.359C34.8329 173.629 34.0757 177.559 33.7304 179.629Z" fill="#FFCA67"/>
<path d="M24.3073 220.493L19.1372 281.376H-12.9583L-6.52315 216.862H-2.56349C4.56239 216.87 11.4908 217.493 18.1709 218.897L24.3073 220.493Z" fill="#83BD57"/>
<path d="M14.0107 173.591L3.01967 182.726C5.36838 179.623 13.0537 174.258 14.0107 173.591ZM8.00767 167.269L-1.73633 182.001C0.235672 177.419 7.16667 168.371 8.00767 167.269Z" fill="#F5B948"/>
<path d="M34.0098 178.089C33.5182 178.889 33.1792 179.241 32.3602 178.914C31.2127 178.421 31.032 177.75 30.4355 177.154C29.9303 176.775 29.5026 176.694 29.7755 174.514C29.7755 174.349 29.8848 174.129 29.9399 173.964C30.8206 173.469 31.7553 173.249 32.7448 173.359C34.45 173.579 34.2299 176.219 34.0098 178.089Z" fill="white"/>
<path d="M100.514 249.163L97.0685 249.117L91.7383 281.374H120.95L123.334 254.253L120.686 253.386L103.118 246.623L100.514 249.163Z" fill="#83BD57"/>
<path d="M112.845 213.384C114.306 213.81 115.145 215.338 114.72 216.799C114.263 218.366 112.545 219.204 111.018 218.572C83.5575 207.196 83.3727 207.586 84.0044 206.068C84.7703 204.227 85.7113 205.918 112.845 213.384Z" fill="#696967"/>
<path d="M89.2924 209.552L84.8264 207.696C85.7898 206.732 87.8743 206.716 89.2924 209.552Z" fill="#B77D55"/>
<path d="M85.4929 205.432L89.2919 206.534C87.3275 207.025 84.881 207.355 85.4929 205.432Z" fill="#B77D55"/>
<path d="M85.5167 205.391L84.3045 207.394L80.636 204.373L85.5167 205.391Z" fill="#696967"/>
<path d="M121.476 223.416C120.693 229.738 120.664 253.402 120.664 253.402L100.509 249.168C101.205 243.6 99.1461 240.119 99.1461 240.119C90.2434 238.176 80.2381 216.078 79.7161 213.961C79.1651 211.815 83.8921 209.176 83.8921 209.176C85.2597 206.099 87.8163 206.614 89.2861 209.553C89.8661 210.684 90.1271 211.844 90.0981 211.96C90.0401 212.25 90.9971 215.788 92.3601 216.774C93.7231 217.76 97.4931 215.585 100.19 214.193C100.219 214.165 100.277 214.165 100.306 214.135L111.007 218.572C112.853 219.189 114.306 218.181 114.719 216.803C115.125 215.353 114.313 213.816 112.834 213.381L101.988 210.22C101.959 209.089 101.727 208.19 101.727 208.19C99.8131 207.61 97.2611 203.492 97.2611 203.492C97.2611 203.492 94.5351 203.869 93.4621 204.797C92.8821 205.319 91.0551 206.073 89.2861 206.537C82.0746 208.34 86.7373 203.6 89.2861 199.635C90.3011 198.011 96.3911 196.706 98.3341 195.662C100.306 194.618 102.249 196.039 102.249 196.039C104.395 195.575 119.185 205.551 121.041 206.711C122.897 207.843 122.259 217.094 121.476 223.416Z" fill="#FFCA67"/>
<path d="M18.0837 80.6387L21.7157 69.1187H24.5397L28.1717 80.6387H26.1877L22.8917 70.3027H23.3237L20.0677 80.6387H18.0837ZM20.1077 78.1427V76.3427H26.1557V78.1427H20.1077ZM33.6901 80.8787C32.7995 80.8787 32.0395 80.6813 31.4101 80.2867C30.7808 79.8867 30.2981 79.3427 29.9621 78.6547C29.6315 77.9667 29.4635 77.188 29.4581 76.3187C29.4635 75.4333 29.6368 74.6493 29.9781 73.9667C30.3248 73.2787 30.8155 72.74 31.4501 72.3507C32.0848 71.956 32.8395 71.7587 33.7141 71.7587C34.6955 71.7587 35.5248 72.0067 36.2021 72.5027C36.8848 72.9933 37.3301 73.6653 37.5381 74.5187L35.6181 75.0387C35.4688 74.5747 35.2208 74.2147 34.8741 73.9587C34.5275 73.6973 34.1328 73.5667 33.6901 73.5667C33.1888 73.5667 32.7755 73.6867 32.4501 73.9267C32.1248 74.1613 31.8848 74.4867 31.7301 74.9027C31.5755 75.3187 31.4981 75.7907 31.4981 76.3187C31.4981 77.14 31.6821 77.804 32.0501 78.3107C32.4181 78.8173 32.9648 79.0707 33.6901 79.0707C34.2021 79.0707 34.6048 78.9533 34.8981 78.7187C35.1968 78.484 35.4208 78.1453 35.5701 77.7027L37.5381 78.1427C37.2715 79.0227 36.8048 79.7 36.1381 80.1747C35.4715 80.644 34.6555 80.8787 33.6901 80.8787ZM42.9789 80.8787C42.0882 80.8787 41.3282 80.6813 40.6989 80.2867C40.0695 79.8867 39.5869 79.3427 39.2509 78.6547C38.9202 77.9667 38.7522 77.188 38.7469 76.3187C38.7522 75.4333 38.9255 74.6493 39.2669 73.9667C39.6135 73.2787 40.1042 72.74 40.7389 72.3507C41.3735 71.956 42.1282 71.7587 43.0029 71.7587C43.9842 71.7587 44.8135 72.0067 45.4909 72.5027C46.1735 72.9933 46.6189 73.6653 46.8269 74.5187L44.9069 75.0387C44.7575 74.5747 44.5095 74.2147 44.1629 73.9587C43.8162 73.6973 43.4215 73.5667 42.9789 73.5667C42.4775 73.5667 42.0642 73.6867 41.7389 73.9267C41.4135 74.1613 41.1735 74.4867 41.0189 74.9027C40.8642 75.3187 40.7869 75.7907 40.7869 76.3187C40.7869 77.14 40.9709 77.804 41.3389 78.3107C41.7069 78.8173 42.2535 79.0707 42.9789 79.0707C43.4909 79.0707 43.8935 78.9533 44.1869 78.7187C44.4855 78.484 44.7095 78.1453 44.8589 77.7027L46.8269 78.1427C46.5602 79.0227 46.0935 79.7 45.4269 80.1747C44.7602 80.644 43.9442 80.8787 42.9789 80.8787ZM52.3316 80.8787C51.4676 80.8787 50.713 80.684 50.0676 80.2947C49.4223 79.9053 48.921 79.3693 48.5636 78.6867C48.2116 77.9987 48.0356 77.2093 48.0356 76.3187C48.0356 75.412 48.217 74.6173 48.5796 73.9347C48.9423 73.252 49.4463 72.7187 50.0916 72.3347C50.737 71.9507 51.4836 71.7587 52.3316 71.7587C53.201 71.7587 53.9583 71.9533 54.6036 72.3427C55.249 72.732 55.7503 73.2707 56.1076 73.9587C56.465 74.6413 56.6436 75.428 56.6436 76.3187C56.6436 77.2147 56.4623 78.0067 56.0996 78.6947C55.7423 79.3773 55.241 79.9133 54.5956 80.3027C53.9503 80.6867 53.1956 80.8787 52.3316 80.8787ZM52.3316 79.0707C53.0996 79.0707 53.6703 78.8147 54.0436 78.3027C54.417 77.7907 54.6036 77.1293 54.6036 76.3187C54.6036 75.4813 54.4143 74.8147 54.0356 74.3187C53.657 73.8173 53.089 73.5667 52.3316 73.5667C51.8143 73.5667 51.3876 73.684 51.0516 73.9187C50.721 74.148 50.4756 74.4707 50.3156 74.8867C50.1556 75.2973 50.0756 75.7747 50.0756 76.3187C50.0756 77.156 50.265 77.8253 50.6436 78.3267C51.0276 78.8227 51.5903 79.0707 52.3316 79.0707ZM61.9662 80.8867C61.3262 80.8867 60.7982 80.78 60.3822 80.5667C59.9662 80.3533 59.6356 80.0813 59.3902 79.7507C59.1449 79.42 58.9636 79.068 58.8462 78.6947C58.7289 78.3213 58.6516 77.9693 58.6142 77.6387C58.5822 77.3027 58.5662 77.0307 58.5662 76.8227V71.9987H60.5182V76.1587C60.5182 76.4253 60.5369 76.7267 60.5742 77.0627C60.6116 77.3933 60.6969 77.7133 60.8302 78.0227C60.9689 78.3267 61.1716 78.5773 61.4382 78.7747C61.7102 78.972 62.0756 79.0707 62.5342 79.0707C62.7796 79.0707 63.0222 79.0307 63.2622 78.9507C63.5022 78.8707 63.7182 78.7347 63.9102 78.5427C64.1076 78.3453 64.2649 78.076 64.3822 77.7347C64.4996 77.3933 64.5582 76.9613 64.5582 76.4387L65.7022 76.9267C65.7022 77.6627 65.5582 78.3293 65.2702 78.9267C64.9876 79.524 64.5689 80.0013 64.0142 80.3587C63.4596 80.7107 62.7769 80.8867 61.9662 80.8867ZM64.7902 80.6387V77.9587H64.5582V71.9987H66.4942V80.6387H64.7902ZM75.0379 80.6387V76.4787C75.0379 76.2067 75.0192 75.9053 74.9819 75.5747C74.9445 75.244 74.8565 74.9267 74.7179 74.6227C74.5845 74.3133 74.3819 74.06 74.1099 73.8627C73.8432 73.6653 73.4805 73.5667 73.0219 73.5667C72.7765 73.5667 72.5339 73.6067 72.2939 73.6867C72.0539 73.7667 71.8352 73.9053 71.6379 74.1027C71.4459 74.2947 71.2912 74.5613 71.1739 74.9027C71.0565 75.2387 70.9979 75.6707 70.9979 76.1987L69.8539 75.7107C69.8539 74.9747 69.9952 74.308 70.2779 73.7107C70.5659 73.1133 70.9872 72.6387 71.5419 72.2867C72.0965 71.9293 72.7792 71.7507 73.5899 71.7507C74.2299 71.7507 74.7579 71.8573 75.1739 72.0707C75.5899 72.284 75.9205 72.556 76.1659 72.8867C76.4112 73.2173 76.5925 73.5693 76.7099 73.9427C76.8272 74.316 76.9019 74.6707 76.9339 75.0067C76.9712 75.3373 76.9899 75.6067 76.9899 75.8147V80.6387H75.0379ZM69.0459 80.6387V71.9987H70.7659V74.6787H70.9979V80.6387H69.0459ZM84.4615 80.6387C83.8908 80.7453 83.3308 80.7907 82.7815 80.7747C82.2375 80.764 81.7495 80.6653 81.3175 80.4787C80.8855 80.2867 80.5575 79.9853 80.3335 79.5747C80.1362 79.2013 80.0322 78.82 80.0215 78.4307C80.0108 78.0413 80.0055 77.6013 80.0055 77.1107V69.5987H81.9255V76.9987C81.9255 77.3453 81.9282 77.6493 81.9335 77.9107C81.9442 78.172 82.0002 78.3853 82.1015 78.5507C82.2935 78.8707 82.6002 79.0493 83.0215 79.0867C83.4428 79.124 83.9228 79.1027 84.4615 79.0227V80.6387ZM78.4375 73.5107V71.9987H84.4615V73.5107H78.4375ZM89.0554 80.8787C88.4314 80.8787 87.9034 80.7613 87.4714 80.5267C87.0394 80.2867 86.7114 79.9693 86.4874 79.5747C86.2687 79.18 86.1594 78.7453 86.1594 78.2707C86.1594 77.8547 86.2287 77.4813 86.3674 77.1507C86.506 76.8147 86.7194 76.5267 87.0074 76.2867C87.2954 76.0413 87.6687 75.8413 88.1274 75.6867C88.474 75.5747 88.8794 75.4733 89.3434 75.3827C89.8127 75.292 90.3194 75.2093 90.8634 75.1347C91.4127 75.0547 91.986 74.9693 92.5834 74.8787L91.8954 75.2707C91.9007 74.6733 91.7674 74.2333 91.4954 73.9507C91.2234 73.668 90.7647 73.5267 90.1194 73.5267C89.73 73.5267 89.354 73.6173 88.9914 73.7987C88.6287 73.98 88.3754 74.292 88.2314 74.7347L86.4714 74.1827C86.6847 73.452 87.09 72.8653 87.6874 72.4227C88.29 71.98 89.1007 71.7587 90.1194 71.7587C90.8874 71.7587 91.562 71.884 92.1434 72.1347C92.73 72.3853 93.1647 72.796 93.4474 73.3667C93.602 73.6707 93.6954 73.9827 93.7274 74.3027C93.7594 74.6173 93.7754 74.9613 93.7754 75.3347V80.6387H92.0874V78.7667L92.3674 79.0707C91.978 79.6947 91.522 80.1533 90.9994 80.4467C90.482 80.7347 89.834 80.8787 89.0554 80.8787ZM89.4394 79.3427C89.8767 79.3427 90.25 79.2653 90.5594 79.1107C90.8687 78.956 91.114 78.7667 91.2954 78.5427C91.482 78.3187 91.6074 78.108 91.6714 77.9107C91.7727 77.6653 91.8287 77.3853 91.8394 77.0707C91.8554 76.7507 91.8634 76.492 91.8634 76.2947L92.4554 76.4707C91.874 76.5613 91.3754 76.6413 90.9594 76.7107C90.5434 76.78 90.186 76.8467 89.8874 76.9107C89.5887 76.9693 89.3247 77.036 89.0954 77.1107C88.8714 77.1907 88.682 77.284 88.5274 77.3907C88.3727 77.4973 88.2527 77.62 88.1674 77.7587C88.0874 77.8973 88.0474 78.06 88.0474 78.2467C88.0474 78.46 88.1007 78.6493 88.2074 78.8147C88.314 78.9747 88.4687 79.1027 88.6714 79.1987C88.8794 79.2947 89.1354 79.3427 89.4394 79.3427ZM100.33 80.8787C99.4875 80.8787 98.7808 80.6787 98.2101 80.2787C97.6395 79.8787 97.2101 79.3347 96.9221 78.6467C96.6341 77.9533 96.4901 77.1773 96.4901 76.3187C96.4901 75.4493 96.6341 74.6707 96.9221 73.9827C97.2101 73.2947 97.6315 72.7533 98.1861 72.3587C98.7461 71.9587 99.4368 71.7587 100.258 71.7587C101.074 71.7587 101.781 71.9587 102.378 72.3587C102.981 72.7533 103.447 73.2947 103.778 73.9827C104.109 74.6653 104.274 75.444 104.274 76.3187C104.274 77.1827 104.111 77.9587 103.786 78.6467C103.461 79.3347 103.002 79.8787 102.41 80.2787C101.818 80.6787 101.125 80.8787 100.33 80.8787ZM96.1621 80.6387V69.1187H98.1061V74.5747H97.8661V80.6387H96.1621ZM100.034 79.1507C100.535 79.1507 100.949 79.0253 101.274 78.7747C101.599 78.524 101.839 78.1853 101.994 77.7587C102.154 77.3267 102.234 76.8467 102.234 76.3187C102.234 75.796 102.154 75.3213 101.994 74.8947C101.834 74.4627 101.586 74.1213 101.25 73.8707C100.914 73.6147 100.487 73.4867 99.9701 73.4867C99.4795 73.4867 99.0795 73.6067 98.7701 73.8467C98.4608 74.0813 98.2315 74.412 98.0821 74.8387C97.9381 75.26 97.8661 75.7533 97.8661 76.3187C97.8661 76.8787 97.9381 77.372 98.0821 77.7987C98.2315 78.2253 98.4635 78.5587 98.7781 78.7987C99.0981 79.0333 99.5168 79.1507 100.034 79.1507ZM106.517 70.6867V68.9187H108.445V70.6867H106.517ZM106.517 80.6387V71.9987H108.445V80.6387H106.517ZM111.322 80.6387V68.8787H113.25V80.6387H111.322ZM116.126 70.6867V68.9187H118.054V70.6867H116.126ZM116.126 80.6387V71.9987H118.054V80.6387H116.126ZM125.835 80.6387C125.264 80.7453 124.704 80.7907 124.155 80.7747C123.611 80.764 123.123 80.6653 122.691 80.4787C122.259 80.2867 121.931 79.9853 121.707 79.5747C121.509 79.2013 121.405 78.82 121.395 78.4307C121.384 78.0413 121.379 77.6013 121.379 77.1107V69.5987H123.299V76.9987C123.299 77.3453 123.301 77.6493 123.307 77.9107C123.317 78.172 123.373 78.3853 123.475 78.5507C123.667 78.8707 123.973 79.0493 124.395 79.0867C124.816 79.124 125.296 79.1027 125.835 79.0227V80.6387ZM119.811 73.5107V71.9987H125.835V73.5107H119.811ZM128.914 84.4787L130.578 79.9107L130.61 81.2547L126.842 71.9987H128.85L131.522 78.8467H131.01L133.61 71.9987H135.538L130.722 84.4787H128.914Z" fill="#96FF47"/>
</g>
<rect x="2.6875" y="2.63867" width="148" height="274" rx="18" stroke="#83BD57" stroke-width="4"/>
<defs>
<clipPath id="clip0_0_5759">
<rect x="0.6875" y="0.638672" width="152" height="278" rx="20" fill="white"/>
</clipPath>
</defs>
</svg>
