<svg width="153" height="279" viewBox="0 0 153 279" fill="none" xmlns="http://www.w3.org/2000/svg">
<g clip-path="url(#clip0_0_5745)">
<rect x="0.6875" y="0.638672" width="152" height="278" rx="20" fill="#020202"/>
<path d="M83.7775 263.82L69.9629 296.814C69.1341 298.843 66.6314 298.979 66.0679 297.011L63.6027 288.428C63.2341 287.174 61.9874 286.664 60.844 287.301L53.075 291.705C51.2977 292.715 49.6049 290.867 50.4337 288.839L64.2483 255.847L83.7775 263.82Z" fill="#71C7E5"/>
<path d="M91.871 254.483L101.544 299.388C102.004 301.531 100.013 303.05 98.4402 301.745L91.5681 296.04C90.5586 295.211 89.2391 295.493 88.6568 296.664L84.7148 304.677C83.8133 306.513 81.3762 305.94 80.9184 303.797L71.2454 258.892L91.871 254.483Z" fill="#71C7E5"/>
<path d="M131.582 221.967C131.582 224.34 129.845 226.737 126.837 226.714H126.814C122.421 226.714 120.423 232.208 123.806 235.028C125.027 236.037 125.544 237.328 125.544 238.573C125.544 241.533 122.656 244.353 119.181 243.062C118.615 242.851 118.052 242.757 117.512 242.757C114.131 242.757 111.569 246.56 113.497 249.847C113.966 250.671 114.178 251.469 114.178 252.268C114.178 255.862 109.712 258.612 106.402 255.792C105.486 255.017 104.43 254.665 103.397 254.665C100.694 254.665 98.1562 257.083 98.7196 260.229C98.7901 260.56 98.8135 260.865 98.8135 261.194C98.8135 265.728 92.4744 267.7 90.0303 263.401C89.6317 262.673 89.0435 262.066 88.3281 261.644C87.6127 261.222 86.7966 261.002 85.9662 261.006C83.8532 261.006 81.7402 262.415 81.3152 264.927C80.8691 267.536 78.7795 268.853 76.69 268.853C74.5746 268.853 72.4827 267.538 72.0366 264.93C71.614 262.417 69.5009 261.009 67.3879 261.009C65.8148 261.009 64.2395 261.783 63.3238 263.403C62.3847 265.07 60.8586 265.775 59.3302 265.775C56.6536 265.775 54.0217 263.544 54.6322 260.232C54.6791 259.926 54.7026 259.645 54.7026 259.363C54.7026 255.51 50.0774 253.139 46.9501 255.794C45.9875 256.616 44.9544 256.945 43.9448 256.945C40.6814 256.945 37.8147 253.327 39.8596 249.849C40.3292 249.075 40.517 248.253 40.517 247.478C40.517 244.447 37.4625 241.839 34.1732 243.062C33.5862 243.273 32.9993 243.391 32.4593 243.391C28.4187 243.391 25.9535 238.012 29.548 235.028C30.7219 234.042 31.2384 232.75 31.2384 231.459C31.2384 229.038 29.4071 226.691 26.5169 226.714H26.47C21.232 226.714 19.9383 219.384 24.8969 217.6C26.9865 216.848 28.0195 215.017 28.0195 213.186C28.0195 211.329 26.9865 209.472 24.8969 208.744C22.7581 207.969 21.772 206.185 21.772 204.377C21.772 202.003 23.5094 199.606 26.5146 199.629H26.5381C30.9308 199.629 32.9288 194.136 29.5456 191.316C28.3248 190.306 27.8082 189.015 27.8082 187.771C27.8082 184.81 30.6961 181.99 34.1732 183.282C34.7367 183.493 35.3001 183.587 35.8401 183.587C39.2234 183.587 41.7848 179.783 39.8573 176.496C39.3877 175.672 39.1764 174.874 39.1764 174.076C39.1764 170.481 43.6373 167.732 46.9501 170.552C47.8657 171.326 48.9222 171.679 49.9576 171.679C52.6576 171.679 55.1956 169.26 54.6298 166.114C54.5617 165.786 54.5359 165.478 54.5359 165.149C54.5359 160.618 60.8797 158.643 63.3238 162.942C64.2395 164.562 65.8125 165.337 67.3855 165.337C69.4986 165.337 71.614 163.928 72.0366 161.416C72.4827 158.808 74.5722 157.514 76.6876 157.514C78.7772 157.514 80.8668 158.805 81.3152 161.414C82.043 165.76 87.8445 166.793 90.0303 162.94C90.9695 161.273 92.4955 160.569 94.0216 160.569C96.6982 160.569 99.3301 162.799 98.7196 166.112C98.6727 166.417 98.6492 166.699 98.6492 166.981C98.6492 170.833 103.277 173.205 106.402 170.549C107.364 169.728 108.397 169.399 109.407 169.399C112.67 169.399 115.537 173.017 113.495 176.494C113.025 177.269 112.837 178.091 112.837 178.865C112.837 181.896 115.889 184.505 119.179 183.282C119.766 183.07 120.353 182.953 120.893 182.953C124.933 182.953 127.401 188.332 123.806 191.316C122.632 192.302 122.116 193.593 122.116 194.885C122.116 197.305 123.947 199.653 126.835 199.629H126.882C132.122 199.629 133.413 206.959 128.455 208.744C126.389 209.472 125.332 211.326 125.332 213.183C125.332 215.015 126.389 216.846 128.455 217.597C130.594 218.375 131.582 220.159 131.582 221.969V221.967Z" fill="#FFCA78"/>
<path d="M117.963 213.183C117.963 235.98 99.4757 254.481 76.6783 254.481C53.8809 254.481 35.3965 235.98 35.3965 213.183C35.3965 190.386 53.8809 171.901 76.6783 171.901C99.4757 171.901 117.963 190.386 117.963 213.183Z" fill="#EFEFEF"/>
<path d="M43.2561 207.823L76.4943 241.185L110.094 207.823L90.2244 213.967H63.006L43.2561 207.823Z" fill="#9DE0EE"/>
<path d="M43.2561 207.819L57.8291 195.239H95.5234L110.094 207.819L90.2244 213.963H63.006L43.2561 207.819Z" fill="#9DE0EE"/>
<path d="M76.4944 241.182L90.2244 213.963L76.6751 195.239L63.0061 213.963L76.4944 241.182Z" fill="#9DE0EE"/>
<path d="M96.7388 276.951C96.588 276.983 96.4451 277.045 96.3182 277.133C96.1912 277.22 96.0828 277.332 95.9991 277.462C95.9154 277.591 95.858 277.736 95.8302 277.888C95.8025 278.039 95.8048 278.195 95.8373 278.346L97.0112 283.816C97.0763 284.121 97.2596 284.387 97.5209 284.556C97.7823 284.725 98.1001 284.784 98.4046 284.719C98.7091 284.654 98.9753 284.471 99.1446 284.209C99.3139 283.948 99.3724 283.63 99.3073 283.326L98.1334 277.855C98.0675 277.551 97.8839 277.285 97.6226 277.115C97.3613 276.946 97.0436 276.887 96.7388 276.951Z" fill="#414141"/>
<path d="M128.864 216.503C125.648 215.329 125.765 210.929 128.841 209.835C135.011 207.628 133.489 198.448 126.798 198.448C123.523 198.448 122.016 194.351 124.544 192.226C129.517 188.082 125.202 179.966 118.768 182.178C115.775 183.295 112.793 179.997 114.495 177.083C117.872 171.406 110.579 165.358 105.644 169.664C103.179 171.688 99.4764 169.835 99.8685 166.33C101.066 159.812 92.2592 156.69 88.998 162.362C87.3663 165.259 82.997 164.452 82.4711 161.212C81.33 154.692 72.0068 154.725 70.8728 161.212C70.3375 164.499 65.9541 165.28 64.3459 162.362C61.0472 156.554 52.1207 159.998 53.4754 166.306C54.0671 169.636 50.1462 171.73 47.6998 169.664C43.8024 166.266 38.0033 169.269 38.0033 174.078C38.0033 177.106 40.398 177.893 38.872 180.605C37.097 183.673 34.1575 181.779 32.4389 181.779C27.1727 181.779 24.4587 188.681 28.7998 192.226C31.3026 194.304 29.8845 198.448 26.4754 198.448C20.0095 198.448 18.2299 207.544 24.5033 209.859C27.5836 210.899 27.6822 215.327 24.5033 216.503C18.3379 218.705 19.8358 227.89 26.5694 227.89C29.8094 227.89 31.3284 231.984 28.7998 234.112C23.8388 238.244 28.1283 246.377 34.5754 244.16C37.6323 243.017 40.5507 246.456 38.8485 249.255C36.3621 253.43 39.6914 258.106 43.9433 258.106C47.1574 258.106 47.6387 255.829 49.9537 255.829C51.7967 255.829 53.7666 257.372 53.4754 260.008C52.8181 263.577 55.2387 266.354 58.3354 266.864L49.3433 288.393C48.8502 289.567 48.9676 290.859 49.6015 291.821C52.811 296.552 61.6693 285.947 62.4676 288.746L64.9328 297.339C65.8344 300.414 69.8281 300.287 71.0372 297.268L75.8502 285.787C79.8955 301.424 78.5878 306.941 83.0815 306.941C86.0727 306.941 86.1267 303.537 89.7024 297.198C89.8198 296.963 89.9841 296.799 90.1954 296.752C90.3833 296.705 90.618 296.775 90.8059 296.939L97.685 302.645C98.7415 303.513 100.08 303.654 101.207 302.973C102.428 302.222 103.015 300.696 102.686 299.146L100.479 288.792C100.413 288.491 100.23 288.228 99.9702 288.061C99.7107 287.894 99.3956 287.836 99.0937 287.9C98.4598 288.018 98.0372 288.652 98.178 289.286L100.385 299.639C100.526 300.297 100.291 300.79 99.9859 300.978C99.7276 301.119 99.4694 301.072 99.1876 300.837L92.3085 295.132C91.5337 294.498 90.5946 294.263 89.7024 294.451C88.8102 294.639 88.0354 295.272 87.5894 296.141C81.0201 309.061 83.7859 309.517 77.4233 282.007L74.7702 269.728C78.1088 270.841 81.8607 268.883 82.4711 265.126C82.7716 263.236 84.3916 262.168 85.9694 262.168C89.5122 262.168 88.7961 266.441 93.365 266.911C94.6023 271.116 94.1069 274.224 96.065 273.79C97.9949 273.431 96.2763 270.681 95.7128 266.699C98.758 265.819 100.488 262.926 99.8685 260.032C99.2768 256.707 103.216 254.625 105.644 256.674C110.514 260.924 117.858 255.141 114.495 249.255C112.807 246.363 115.737 243.045 118.768 244.16C125.058 246.466 129.587 238.253 124.544 234.135C122.041 232.013 123.462 227.89 126.868 227.89C133.372 227.89 135.126 218.773 128.864 216.503ZM74.9815 281.796L68.8772 296.376C68.3607 297.62 67.398 297.432 67.1867 296.681C64.8906 290.455 65.4728 285.858 61.8337 285.858C59.3098 285.858 49.8293 293.824 51.5033 289.286L60.965 266.723C62.3737 266.324 63.5711 265.361 64.3459 263.976C65.9518 261.058 70.3375 261.839 70.8728 265.126C71.0372 266.159 71.4363 267.028 71.9528 267.709L74.9815 281.796ZM126.822 225.542C121.321 225.542 118.808 232.433 123.065 235.919C126.075 238.472 123.351 243.339 119.59 241.953C116.937 240.967 113.862 242.094 112.429 244.583C110.323 248.314 112.993 250.251 112.993 252.26C112.993 254.89 109.741 257.05 107.147 254.89C103.045 251.417 96.5487 254.951 97.5676 260.478C98.3659 264.082 93.1725 266.411 91.0407 262.826C88.4252 258.177 81.2925 259.003 80.1468 264.727C79.4682 268.662 73.878 268.695 73.1972 264.727C73.0005 263.528 72.4356 262.419 71.5806 261.556C70.7257 260.692 69.6231 260.115 68.4258 259.906C67.2285 259.697 65.9959 259.866 64.8988 260.389C63.8018 260.912 62.8946 261.764 62.3033 262.826C60.4062 266.206 55.0579 264.443 55.7998 260.407C56.53 254.561 50.1885 251.504 46.1972 254.89C43.2859 257.367 38.7968 253.901 40.8676 250.452C43.5864 245.959 39.1795 240.021 33.7772 241.953C29.8868 243.36 27.2925 238.408 30.3024 235.919C34.4463 232.487 32.129 225.542 26.4754 225.542C22.5334 225.542 21.5896 220.018 25.3015 218.71C30.5888 216.752 30.3963 209.412 25.3015 207.628C21.5685 206.313 22.5053 200.796 26.5459 200.796C32.0421 200.796 34.505 193.903 30.3024 190.419C27.2854 187.916 29.9502 182.983 33.7537 184.385C38.8015 186.277 43.6991 180.71 40.8676 175.909C38.9142 172.523 43.0417 168.819 46.1972 171.448C50.2988 174.918 56.7929 171.385 55.7763 165.86C55.2833 163.656 57.1263 161.728 59.3215 161.728C62.8714 161.728 62.2868 166.518 67.3746 166.518C70.3094 166.518 72.7041 164.499 73.1972 161.611C73.8311 157.727 79.5011 157.664 80.1468 161.611C81.0835 167.095 88.3571 168.281 91.0407 163.512C92.9025 160.19 98.3048 161.9 97.5676 165.931C96.5698 171.249 102.841 175.038 107.17 171.448C108.884 169.969 111.49 170.556 112.57 172.458C114.052 175.029 111.655 175.792 111.655 178.867C111.655 182.906 115.81 185.859 119.567 184.385C122.032 183.492 123.628 185.042 124.145 186.545C125.528 190.318 120.928 190.252 120.928 194.879C120.928 197.791 123.135 200.796 126.868 200.796C130.843 200.796 131.764 206.309 128.066 207.628C122.929 209.459 122.76 216.754 128.042 218.71C131.832 220.041 130.825 225.542 126.822 225.542Z" fill="#414141"/>
<path d="M76.6745 170.718C53.2667 170.718 34.2258 189.759 34.2258 213.19C34.2258 236.598 53.2667 255.662 76.6745 255.662C100.007 255.662 119.123 236.659 119.123 213.19C119.123 189.759 100.082 170.718 76.6745 170.718ZM76.6745 253.314C54.558 253.314 36.5737 235.306 36.5737 213.19C36.5737 191.073 54.558 173.066 76.6745 173.066C98.791 173.066 116.775 191.073 116.775 213.19C116.775 235.306 98.791 253.314 76.6745 253.314Z" fill="#414141"/>
<path d="M95.5311 194.081H57.825C57.5432 194.081 57.285 194.175 57.0737 194.363L42.4937 206.924C42.0382 207.377 42.0218 208.013 42.1884 208.262C42.2612 208.483 42.4514 208.685 42.4702 208.685L75.645 241.977C75.8798 242.101 76.5583 242.799 77.3354 242.024L110.956 208.638C111.346 208.15 111.412 207.473 110.862 206.924L96.2824 194.363C96.0759 194.179 95.8079 194.078 95.5311 194.081ZM88.3232 215.141L76.5137 238.549L64.8919 215.141H88.3232ZM65.3145 212.794L76.678 197.251L87.9241 212.794H65.3145ZM58.2711 196.429H74.3771L62.5676 212.606L45.6163 207.323L58.2711 196.429ZM47.4476 210.352L62.1919 214.954L72.2641 235.286L47.4476 210.352ZM80.7867 235.286L91.0702 214.954L105.885 210.352L80.7867 235.286ZM90.6945 212.606L79.0024 196.429H95.085L107.716 207.323L90.6945 212.606Z" fill="#414141"/>
<path d="M34.6684 84.6387V70.2387H37.0784V84.6387H34.6684ZM47.9439 84.6387V79.4387C47.9439 79.0987 47.9206 78.722 47.8739 78.3087C47.8272 77.8953 47.7172 77.4987 47.5439 77.1187C47.3772 76.732 47.1239 76.4153 46.7839 76.1687C46.4506 75.922 45.9972 75.7987 45.4239 75.7987C45.1172 75.7987 44.8139 75.8487 44.5139 75.9487C44.2139 76.0487 43.9406 76.222 43.6939 76.4687C43.4539 76.7087 43.2606 77.042 43.1139 77.4687C42.9672 77.8887 42.8939 78.4287 42.8939 79.0887L41.4639 78.4787C41.4639 77.5587 41.6406 76.7253 41.9939 75.9787C42.3539 75.232 42.8806 74.6387 43.5739 74.1987C44.2672 73.752 45.1206 73.5287 46.1339 73.5287C46.9339 73.5287 47.5939 73.662 48.1139 73.9287C48.6339 74.1953 49.0472 74.5353 49.3539 74.9487C49.6606 75.362 49.8872 75.802 50.0339 76.2687C50.1806 76.7353 50.2739 77.1787 50.3139 77.5987C50.3606 78.012 50.3839 78.3487 50.3839 78.6087V84.6387H47.9439ZM40.4539 84.6387V73.8387H42.6039V77.1887H42.8939V84.6387H40.4539ZM59.7234 84.6387C59.0101 84.772 58.3101 84.8287 57.6234 84.8087C56.9434 84.7953 56.3334 84.672 55.7934 84.4387C55.2534 84.1987 54.8434 83.822 54.5634 83.3087C54.3168 82.842 54.1868 82.3653 54.1734 81.8787C54.1601 81.392 54.1534 80.842 54.1534 80.2287V70.8387H56.5534V80.0887C56.5534 80.522 56.5568 80.902 56.5634 81.2287C56.5768 81.5553 56.6468 81.822 56.7734 82.0287C57.0134 82.4287 57.3968 82.652 57.9234 82.6987C58.4501 82.7453 59.0501 82.7187 59.7234 82.6187V84.6387ZM52.1934 75.7287V73.8387H59.7234V75.7287H52.1934ZM66.8089 84.9387C65.7156 84.9387 64.7556 84.702 63.9289 84.2287C63.1022 83.7553 62.4556 83.0987 61.9889 82.2587C61.5289 81.4187 61.2989 80.452 61.2989 79.3587C61.2989 78.1787 61.5256 77.1553 61.9789 76.2887C62.4322 75.4153 63.0622 74.7387 63.8689 74.2587C64.6756 73.7787 65.6089 73.5387 66.6689 73.5387C67.7889 73.5387 68.7389 73.802 69.5189 74.3287C70.3056 74.8487 70.8889 75.5853 71.2689 76.5387C71.6489 77.492 71.7922 78.6153 71.6989 79.9087H69.3089V79.0287C69.3022 77.8553 69.0956 76.9987 68.6889 76.4587C68.2822 75.9187 67.6422 75.6487 66.7689 75.6487C65.7822 75.6487 65.0489 75.9553 64.5689 76.5687C64.0889 77.1753 63.8489 78.0653 63.8489 79.2387C63.8489 80.332 64.0889 81.1787 64.5689 81.7787C65.0489 82.3787 65.7489 82.6787 66.6689 82.6787C67.2622 82.6787 67.7722 82.5487 68.1989 82.2887C68.6322 82.022 68.9656 81.6387 69.1989 81.1387L71.5789 81.8587C71.1656 82.832 70.5256 83.5887 69.6589 84.1287C68.7989 84.6687 67.8489 84.9387 66.8089 84.9387ZM63.0889 79.9087V78.0887H70.5189V79.9087H63.0889ZM78.8701 89.7387C78.2701 89.7387 77.6935 89.6453 77.1401 89.4587C76.5935 89.272 76.1001 89.002 75.6601 88.6487C75.2201 88.302 74.8601 87.882 74.5801 87.3887L76.8001 86.2887C77.0068 86.682 77.2968 86.972 77.6701 87.1587C78.0501 87.352 78.4535 87.4487 78.8801 87.4487C79.3801 87.4487 79.8268 87.3587 80.2201 87.1787C80.6135 87.0053 80.9168 86.7453 81.1301 86.3987C81.3501 86.0587 81.4535 85.632 81.4401 85.1187V82.0487H81.7401V73.8387H83.8501V85.1587C83.8501 85.432 83.8368 85.692 83.8101 85.9387C83.7901 86.192 83.7535 86.4387 83.7001 86.6787C83.5401 87.3787 83.2335 87.952 82.7801 88.3987C82.3268 88.852 81.7635 89.1887 81.0901 89.4087C80.4235 89.6287 79.6835 89.7387 78.8701 89.7387ZM78.6601 84.9387C77.6668 84.9387 76.8001 84.6887 76.0601 84.1887C75.3201 83.6887 74.7468 83.0087 74.3401 82.1487C73.9335 81.2887 73.7301 80.3187 73.7301 79.2387C73.7301 78.1453 73.9335 77.172 74.3401 76.3187C74.7535 75.4587 75.3368 74.782 76.0901 74.2887C76.8435 73.7887 77.7301 73.5387 78.7501 73.5387C79.7768 73.5387 80.6368 73.7887 81.3301 74.2887C82.0301 74.782 82.5601 75.4587 82.9201 76.3187C83.2801 77.1787 83.4601 78.152 83.4601 79.2387C83.4601 80.312 83.2801 81.282 82.9201 82.1487C82.5601 83.0087 82.0235 83.6887 81.3101 84.1887C80.5968 84.6887 79.7135 84.9387 78.6601 84.9387ZM79.0301 82.7787C79.6768 82.7787 80.1968 82.632 80.5901 82.3387C80.9901 82.0387 81.2801 81.622 81.4601 81.0887C81.6468 80.5553 81.7401 79.9387 81.7401 79.2387C81.7401 78.532 81.6468 77.9153 81.4601 77.3887C81.2801 76.8553 80.9968 76.442 80.6101 76.1487C80.2235 75.8487 79.7235 75.6987 79.1101 75.6987C78.4635 75.6987 77.9301 75.8587 77.5101 76.1787C77.0901 76.492 76.7801 76.9187 76.5801 77.4587C76.3801 77.992 76.2801 78.5853 76.2801 79.2387C76.2801 79.8987 76.3768 80.4987 76.5701 81.0387C76.7701 81.572 77.0735 81.9953 77.4801 82.3087C77.8868 82.622 78.4035 82.7787 79.0301 82.7787ZM87.0544 84.6387V73.8387H89.1844V76.4687L88.9244 76.1287C89.0577 75.7687 89.2344 75.442 89.4544 75.1487C89.681 74.8487 89.951 74.602 90.2644 74.4087C90.531 74.2287 90.8244 74.0887 91.1444 73.9887C91.471 73.882 91.8044 73.8187 92.1444 73.7987C92.4844 73.772 92.8144 73.7853 93.1344 73.8387V76.0887C92.8144 75.9953 92.4444 75.9653 92.0244 75.9987C91.611 76.032 91.2377 76.1487 90.9044 76.3487C90.571 76.5287 90.2977 76.7587 90.0844 77.0387C89.8777 77.3187 89.7244 77.6387 89.6244 77.9987C89.5244 78.352 89.4744 78.7353 89.4744 79.1487V84.6387H87.0544ZM95.6426 72.1987V69.9887H98.0526V72.1987H95.6426ZM95.6426 84.6387V73.8387H98.0526V84.6387H95.6426ZM107.778 84.6387C107.065 84.772 106.365 84.8287 105.678 84.8087C104.998 84.7953 104.388 84.672 103.848 84.4387C103.308 84.1987 102.898 83.822 102.618 83.3087C102.371 82.842 102.241 82.3653 102.228 81.8787C102.215 81.392 102.208 80.842 102.208 80.2287V70.8387H104.608V80.0887C104.608 80.522 104.611 80.902 104.618 81.2287C104.631 81.5553 104.701 81.822 104.828 82.0287C105.068 82.4287 105.451 82.652 105.978 82.6987C106.505 82.7453 107.105 82.7187 107.778 82.6187V84.6387ZM100.248 75.7287V73.8387H107.778V75.7287H100.248ZM111.627 89.4387L113.707 83.7287L113.747 85.4087L109.037 73.8387H111.547L114.887 82.3987H114.247L117.497 73.8387H119.907L113.887 89.4387H111.627Z" fill="#9DE0EE"/>
</g>
<rect x="2.6875" y="2.63867" width="148" height="274" rx="18" stroke="#FFCA78" stroke-width="4"/>
<defs>
<clipPath id="clip0_0_5745">
<rect x="0.6875" y="0.638672" width="152" height="278" rx="20" fill="white"/>
</clipPath>
</defs>
</svg>
