<svg width="153" height="279" viewBox="0 0 153 279" fill="none" xmlns="http://www.w3.org/2000/svg">
<g clip-path="url(#clip0_0_5778)">
<rect x="0.6875" y="0.638672" width="152" height="278" rx="20" fill="#020202"/>
<path d="M55.037 84.6387V72.4987H50.377V70.2387H62.107V72.4987H57.447V84.6387H55.037ZM63.1098 84.6387V73.8387H65.2398V76.4687L64.9798 76.1287C65.1132 75.7687 65.2898 75.442 65.5098 75.1487C65.7365 74.8487 66.0065 74.602 66.3198 74.4087C66.5865 74.2287 66.8798 74.0887 67.1998 73.9887C67.5265 73.882 67.8598 73.8187 68.1998 73.7987C68.5398 73.772 68.8698 73.7853 69.1898 73.8387V76.0887C68.8698 75.9953 68.4998 75.9653 68.0798 75.9987C67.6665 76.032 67.2932 76.1487 66.9598 76.3487C66.6265 76.5287 66.3532 76.7587 66.1398 77.0387C65.9332 77.3187 65.7798 77.6387 65.6798 77.9987C65.5798 78.352 65.5298 78.7353 65.5298 79.1487V84.6387H63.1098ZM75.5481 84.9487C74.7481 84.9487 74.0881 84.8153 73.5681 84.5487C73.0481 84.282 72.6348 83.942 72.3281 83.5287C72.0214 83.1153 71.7948 82.6753 71.6481 82.2087C71.5014 81.742 71.4048 81.302 71.3581 80.8887C71.3181 80.4687 71.2981 80.1287 71.2981 79.8687V73.8387H73.7381V79.0387C73.7381 79.372 73.7614 79.7487 73.8081 80.1687C73.8548 80.582 73.9614 80.982 74.1281 81.3687C74.3014 81.7487 74.5548 82.062 74.8881 82.3087C75.2281 82.5553 75.6848 82.6787 76.2581 82.6787C76.5648 82.6787 76.8681 82.6287 77.1681 82.5287C77.4681 82.4287 77.7381 82.2587 77.9781 82.0187C78.2248 81.772 78.4214 81.4353 78.5681 81.0087C78.7148 80.582 78.7881 80.042 78.7881 79.3887L80.2181 79.9987C80.2181 80.9187 80.0381 81.752 79.6781 82.4987C79.3248 83.2453 78.8014 83.842 78.1081 84.2887C77.4148 84.7287 76.5614 84.9487 75.5481 84.9487ZM79.0781 84.6387V81.2887H78.7881V73.8387H81.2081V84.6387H79.0781ZM88.5876 84.9387C87.2543 84.9387 86.171 84.6387 85.3376 84.0387C84.5043 83.4387 83.9976 82.5953 83.8176 81.5087L86.2776 81.1287C86.4043 81.662 86.6843 82.082 87.1176 82.3887C87.551 82.6953 88.0976 82.8487 88.7576 82.8487C89.3376 82.8487 89.7843 82.7353 90.0976 82.5087C90.4176 82.2753 90.5776 81.9587 90.5776 81.5587C90.5776 81.312 90.5176 81.1153 90.3976 80.9687C90.2843 80.8153 90.031 80.6687 89.6376 80.5287C89.2443 80.3887 88.641 80.212 87.8276 79.9987C86.921 79.7587 86.201 79.502 85.6676 79.2287C85.1343 78.9487 84.751 78.6187 84.5176 78.2387C84.2843 77.8587 84.1676 77.3987 84.1676 76.8587C84.1676 76.1853 84.3443 75.5987 84.6976 75.0987C85.051 74.5987 85.5443 74.2153 86.1776 73.9487C86.811 73.6753 87.5576 73.5387 88.4176 73.5387C89.2576 73.5387 90.001 73.6687 90.6476 73.9287C91.301 74.1887 91.8276 74.5587 92.2276 75.0387C92.6276 75.5187 92.8743 76.082 92.9676 76.7287L90.5076 77.1687C90.4476 76.7087 90.2376 76.3453 89.8776 76.0787C89.5243 75.812 89.051 75.662 88.4576 75.6287C87.891 75.5953 87.4343 75.682 87.0876 75.8887C86.741 76.0887 86.5676 76.372 86.5676 76.7387C86.5676 76.9453 86.6376 77.122 86.7776 77.2687C86.9176 77.4153 87.1976 77.562 87.6176 77.7087C88.0443 77.8553 88.6776 78.0353 89.5176 78.2487C90.3776 78.4687 91.0643 78.722 91.5776 79.0087C92.0976 79.2887 92.471 79.6253 92.6976 80.0187C92.931 80.412 93.0476 80.8887 93.0476 81.4487C93.0476 82.5353 92.651 83.3887 91.8576 84.0087C91.071 84.6287 89.981 84.9387 88.5876 84.9387ZM101.968 84.6387C101.255 84.772 100.555 84.8287 99.868 84.8087C99.188 84.7953 98.578 84.672 98.038 84.4387C97.498 84.1987 97.088 83.822 96.808 83.3087C96.5613 82.842 96.4313 82.3653 96.418 81.8787C96.4046 81.392 96.398 80.842 96.398 80.2287V70.8387H98.798V80.0887C98.798 80.522 98.8013 80.902 98.808 81.2287C98.8213 81.5553 98.8913 81.822 99.018 82.0287C99.258 82.4287 99.6413 82.652 100.168 82.6987C100.695 82.7453 101.295 82.7187 101.968 82.6187V84.6387ZM94.438 75.7287V73.8387H101.968V75.7287H94.438Z" fill="#F2B0AE"/>
<g clip-path="url(#clip1_0_5778)">
<path d="M95.5016 245.393L82.443 235.647H82.3954C79.8388 236.361 77.1852 236.726 74.5166 236.733C68.2243 236.721 62.0935 234.874 56.983 231.449L56.8851 231.43C53.2783 233.348 50.1892 236.009 47.8541 239.211C45.519 242.413 43.9998 246.071 43.4126 249.905C42.8945 253.289 41.9452 256.602 40.5849 259.776L37.0469 268.037L3.48438 281.084V315.006H34.25L45.4375 304.569L49.5321 303.804C55.8638 302.623 61.4333 299.143 65.0156 294.131C68.7245 294.131 72.2815 292.757 74.9041 290.31C77.5266 287.863 79 284.544 79 281.084H81.7969C84.764 281.084 87.6096 279.985 89.7076 278.027C91.8057 276.07 92.9844 273.415 92.9844 270.647L96.7965 267.09C98.3509 265.64 99.5601 263.901 100.345 261.985C101.13 260.069 101.473 258.021 101.351 255.973C101.23 253.926 100.647 251.925 99.6403 250.102C98.6337 248.279 97.2263 246.674 95.51 245.393H95.5016ZM112.562 223.6C112.556 225.695 111.661 227.702 110.073 229.184C108.485 230.665 106.334 231.5 104.088 231.506C102.516 231.507 100.962 231.203 99.5225 230.615C98.0831 230.027 96.7901 229.166 95.7253 228.088C95.5078 227.907 95.311 227.706 95.138 227.488L87.3906 218.459L65.0156 221.069L61.2678 216.395L65.7148 211.385C68.1269 208.703 71.1324 206.54 74.525 205.044C79.9509 202.684 86.0902 202.167 91.8816 203.582C97.6729 204.997 102.752 208.256 106.242 212.794L110.996 219.005C112.012 220.35 112.559 221.954 112.562 223.6Z" fill="#F2B0AE"/>
<path d="M30.2691 273.519L26.2556 279.763L31.0494 282.451L39.44 269.404L39.3953 269.378C39.4875 269.269 39.5699 269.153 39.6414 269.031L43.1962 260.754C44.6396 257.387 45.6471 253.872 46.1973 250.283C46.7007 247.107 47.9137 244.066 49.7576 241.356C51.6015 238.646 54.0352 236.327 56.9009 234.551C62.1706 237.672 68.2793 239.338 74.5212 239.357C76.9726 239.351 79.4143 239.069 81.7931 238.517L93.7637 247.454C95.173 248.506 96.3286 249.823 97.1551 251.32C97.9816 252.817 98.4604 254.46 98.5601 256.141C98.6599 257.822 98.3784 259.504 97.7341 261.077C97.0898 262.649 96.0972 264.078 94.8209 265.268L92.4939 267.439C86.0325 264.243 80.1144 260.17 74.9324 255.355L66.9948 247.95L63.0401 251.64L70.9776 259.045C76.5963 264.266 83.0188 268.676 90.0327 272.128C89.6687 273.919 88.6466 275.535 87.1424 276.698C85.6383 277.86 83.7465 278.497 81.7931 278.498H79.522C74.5603 276.898 70.0504 274.273 66.3292 270.818L58.5986 263.606L54.6438 267.296L62.3744 274.508C66.271 278.107 70.912 280.929 76.0148 282.801C75.5958 285.167 74.3137 287.326 72.3852 288.912C70.4568 290.498 68.0004 291.414 65.4314 291.506C60.5123 289.903 56.0406 287.292 52.3448 283.865L50.208 281.872L46.2532 285.561L48.39 287.555C51.8845 290.792 55.9829 293.407 60.4837 295.271C57.4217 298.351 53.3961 300.451 48.9802 301.272L44.8744 302.034C44.3325 302.134 43.8349 302.382 43.4452 302.747L32.2577 313.184L36.2124 316.874L46.8014 306.995L50.0682 306.387C56.6444 305.177 62.5016 301.725 66.497 296.703C70.1913 296.391 73.6713 294.948 76.3957 292.6C79.12 290.251 80.936 287.128 81.561 283.717H81.7931C84.9422 283.707 87.9957 282.706 90.4591 280.876C92.9224 279.045 94.6515 276.493 95.3663 273.631C97.6882 275.107 100.433 275.893 103.242 275.888C106.009 275.889 108.757 275.473 111.381 274.657C113.043 274.139 114.529 273.22 115.686 271.992C116.843 270.764 117.63 269.271 117.967 267.667C118.304 266.063 118.178 264.404 117.604 262.859C117.029 261.315 116.025 259.94 114.696 258.875L101.975 248.699C100.805 246.643 99.1974 244.832 97.2514 243.376L87.9462 236.437C90.1485 235.438 92.2143 234.196 94.0994 232.737L95.6181 231.558C98.0711 233.244 101.04 234.148 104.087 234.139C106.59 234.132 109.02 233.347 110.992 231.908C112.964 230.469 114.365 228.458 114.975 226.193C138.222 217.238 158.839 203.233 175.114 185.343L179.029 181.035L174.761 177.664L170.846 181.972C155.623 198.689 136.46 211.892 114.855 220.546C114.501 219.462 113.962 218.438 113.258 217.514L110.881 214.419C114.386 209.473 116.836 203.942 118.097 198.129L112.615 197.085C111.637 201.616 109.847 205.96 107.32 209.934C104.176 206.341 100.076 203.58 95.4307 201.928L96.0684 200.624C98.668 195.352 99.26 189.411 97.7465 183.783L97.4388 182.627L99.8078 184.101L102.912 179.759L94.5217 174.54C94.0621 174.254 93.5219 174.102 92.9694 174.102C92.4169 174.102 91.8768 174.254 91.4172 174.54C86.1376 177.834 80.2883 180.253 74.1269 181.69L72.7284 182.019C72.337 182.11 71.9713 182.279 71.6565 182.515C71.3417 182.75 71.0853 183.047 70.9049 183.384L68.1975 188.435C67.5681 189.626 66.5933 190.627 65.3838 191.326C64.1744 192.025 62.779 192.393 61.3563 192.389C60.8425 192.388 60.3499 192.197 59.9866 191.858C59.6233 191.519 59.4188 191.06 59.4181 190.58C59.4185 190.363 59.4602 190.147 59.5412 189.944L62.9506 181.463C64.3041 178.116 66.3665 175.057 69.0147 172.47C71.6629 169.883 74.8426 167.82 78.3641 166.404C84.707 163.871 91.6953 163.085 98.5016 164.142L108.954 165.768C114.706 166.64 120.59 166.383 126.229 165.012C131.869 163.642 137.14 161.188 141.705 157.809L145.086 155.286L141.576 151.21L138.198 153.736C134.247 156.659 129.686 158.781 124.807 159.966C119.927 161.151 114.837 161.374 109.86 160.619L99.4134 158.989C91.5561 157.771 83.4895 158.677 76.1658 161.598C71.9488 163.291 68.1408 165.759 64.9692 168.856C61.7976 171.952 59.3275 175.614 57.7064 179.621L54.297 188.104C53.8682 189.168 53.7225 190.313 53.8722 191.442C54.022 192.57 54.4628 193.647 55.1569 194.582C55.851 195.516 56.7777 196.28 57.8574 196.807C58.9372 197.333 60.1378 197.608 61.3563 197.607C63.0164 197.601 64.6604 197.305 66.2033 196.733C66.9293 199.553 67.9678 202.294 69.3023 204.914C67.1679 206.274 65.2419 207.899 63.5771 209.743L61.3759 212.22C60.2497 210.919 58.8263 209.869 57.2097 209.147C55.5931 208.424 53.824 208.048 52.0316 208.045C50.4586 208.041 48.9004 208.328 47.4472 208.89C45.994 209.451 44.6746 210.276 43.5654 211.317L40.6595 214.028C40.1834 214.472 39.8951 215.062 39.8473 215.688C39.7995 216.314 39.9955 216.936 40.3994 217.438L48.1187 227.041C49.3533 228.55 50.7364 229.947 52.2497 231.216C45.962 235.679 41.7975 242.262 40.6483 249.555C40.1606 252.732 39.2686 255.843 37.9912 258.823L34.8839 266.075L2.40381 278.699L4.5574 283.516L30.2691 273.519ZM112.559 265.889C112.56 266.734 112.276 267.557 111.746 268.242C111.217 268.927 110.47 269.439 109.611 269.704C107.558 270.344 105.407 270.67 103.242 270.67C101.526 270.67 99.8497 270.18 98.4401 269.266L98.7701 268.958C102.099 265.864 104.023 261.692 104.143 257.31L111.054 262.842C111.525 263.219 111.904 263.686 112.163 264.212C112.423 264.738 112.558 265.31 112.559 265.889ZM71.2293 193.474C72.0072 192.661 72.6656 191.756 73.1871 190.781L75.3211 186.799L75.4778 186.765C80.9834 185.468 86.2676 183.458 91.1766 180.795L92.3233 185.072C93.5232 189.547 93.0496 194.27 90.9808 198.461L89.9376 200.577C89.2863 195.264 87.2894 190.172 84.1117 185.722L79.4577 188.618C81.9478 192.128 83.5717 196.11 84.2124 200.277C80.7648 200.407 77.3717 201.124 74.1996 202.39C72.8035 199.549 71.8052 196.553 71.2293 193.474ZM67.8731 213.094C70.1056 210.595 72.9222 208.608 76.1066 207.283C79.2911 205.959 82.7585 205.333 86.2426 205.454C89.7267 205.575 93.1347 206.44 96.2048 207.981C99.2749 209.523 101.925 211.7 103.953 214.346L108.707 220.549C109.313 221.341 109.674 222.273 109.749 223.243C109.824 224.213 109.612 225.184 109.134 226.049C108.657 226.914 107.933 227.64 107.043 228.146C106.152 228.652 105.13 228.92 104.087 228.92C102.786 228.923 101.501 228.651 100.328 228.125C99.1558 227.599 98.1259 226.832 97.3158 225.882L89.5712 216.851C89.3091 216.546 88.9766 216.299 88.5985 216.13C88.2204 215.961 87.8063 215.873 87.3869 215.873C87.2709 215.872 87.155 215.879 87.04 215.894L66.276 218.315L64.8217 216.507L67.8731 213.094ZM46.3371 216.118L47.5286 215.007C48.1909 214.432 48.9728 213.99 49.8258 213.71C50.6788 213.429 51.5846 213.315 52.4868 213.375C53.389 213.435 54.2683 213.668 55.0701 214.058C55.8718 214.449 56.5788 214.989 57.147 215.646L62.7744 222.657C63.0703 223.025 63.4652 223.313 63.919 223.493C64.3728 223.673 64.8695 223.737 65.3587 223.68L86.1814 221.253L91.7752 227.777L90.5389 228.737C86.0397 232.228 80.3728 234.139 74.5212 234.139C70.2678 234.129 66.0745 233.201 62.2701 231.426C58.4658 229.652 55.1537 227.079 52.5937 223.91L46.3371 216.118Z" fill="#B1404A"/>
</g>
</g>
<rect x="2.6875" y="2.63867" width="148" height="274" rx="18" stroke="#B1404A" stroke-width="4"/>
<defs>
<clipPath id="clip0_0_5778">
<rect x="0.6875" y="0.638672" width="152" height="278" rx="20" fill="white"/>
</clipPath>
<clipPath id="clip1_0_5778">
<rect width="179" height="167" fill="white" transform="translate(0.6875 150.639)"/>
</clipPath>
</defs>
</svg>
