<svg width="153" height="279" viewBox="0 0 153 279" fill="none" xmlns="http://www.w3.org/2000/svg">
<g clip-path="url(#clip0_0_5733)">
<rect x="0.6875" y="0.638672" width="152" height="278" rx="20" fill="#020202"/>
<g clip-path="url(#clip1_0_5733)">
<path d="M109.263 276.542C109.406 276.892 109.405 277.284 109.261 277.633C109.118 277.983 108.843 278.26 108.496 278.405C108.185 278.534 107.839 278.548 107.519 278.442L102.089 276.669C101.764 276.562 101.413 276.578 101.099 276.713C100.785 276.848 100.53 277.092 100.381 277.402L98.0007 282.322C97.8807 282.57 97.6923 282.777 97.4583 282.919C97.2242 283.06 96.9546 283.131 96.6817 283.122C96.4089 283.112 96.1445 283.024 95.9205 282.866C95.6964 282.709 95.5223 282.49 95.419 282.235L91.1152 271.621L87.9016 263.695L90.9309 261.096C90.9561 261.074 90.9884 261.061 91.0218 261.061C91.0552 261.061 91.0874 261.074 91.1126 261.096L96.1625 265.43C96.1761 265.443 96.1921 265.452 96.2093 265.458C96.2266 265.464 96.2449 265.467 96.2632 265.466C96.2814 265.464 96.2993 265.46 96.3157 265.451C96.3321 265.443 96.3467 265.432 96.3587 265.418C96.3687 265.406 96.3769 265.393 96.3829 265.379L99.0785 259.263C99.0916 259.232 99.1156 259.207 99.1459 259.192C99.1762 259.177 99.2107 259.174 99.2432 259.183L102.564 260.06L102.551 260.104L109.263 276.542Z" fill="#00EFD1"/>
<path d="M0.774927 191.558V250.221C0.742716 253.818 3.60735 256.759 7.17216 256.79C7.21188 256.791 7.25063 256.791 7.28938 256.79H84.573L98.6201 224.541V191.558H0.774927Z" fill="#00ACEA"/>
<path d="M76.2681 225.762L88.4534 221.528L88.3987 221.547M69.7139 232.439C69.6965 232.406 69.6928 232.367 69.7036 232.331C69.7145 232.295 69.739 232.265 69.7718 232.247C69.7843 232.241 69.7977 232.237 69.8115 232.234" fill="#00ACEA"/>
<path d="M98.6225 176.095V191.535H0.6875V176.095C0.6875 172.418 3.64223 169.438 7.2872 169.438H92.0247C95.669 169.438 98.6225 172.419 98.6225 176.095Z" fill="#FEDB41"/>
<path d="M87.9049 263.695L91.1187 271.621L91.0921 271.631L86.6259 282.664C86.4837 283.015 86.2094 283.294 85.8633 283.44C85.5172 283.587 85.1276 283.589 84.7801 283.446C84.4583 283.313 84.1962 283.065 84.0438 282.75L81.6655 277.829C81.5162 277.52 81.2612 277.276 80.9475 277.141C80.6338 277.007 80.2825 276.991 79.9581 277.096L74.5257 278.873C74.3488 278.93 74.1623 278.952 73.9769 278.937C73.7916 278.921 73.6111 278.87 73.4456 278.784C73.2802 278.698 73.1331 278.581 73.0127 278.438C72.8924 278.295 72.8011 278.129 72.7442 277.951C72.641 277.629 72.6545 277.282 72.7822 276.969L79.7091 260.011L79.7065 260.002L82.8038 259.183C82.8363 259.174 82.8708 259.177 82.9011 259.192C82.9313 259.207 82.9553 259.232 82.9685 259.263L85.6617 265.379C85.6707 265.399 85.6842 265.417 85.7014 265.432C85.7185 265.446 85.7388 265.456 85.7605 265.461C85.7821 265.466 85.8047 265.466 85.8263 265.461C85.8479 265.455 85.868 265.445 85.885 265.43L87.9049 263.695Z" fill="#00CEB4"/>
<path d="M37.3825 176.735C39.6191 176.735 41.4307 178.564 41.4298 180.819C41.4288 183.074 39.6162 184.903 37.3806 184.902C35.1461 184.901 33.3343 183.074 33.3336 180.82C33.3326 178.564 35.1432 176.736 37.3779 176.735L37.3825 176.735ZM24.217 176.735C26.4527 176.735 28.2655 178.564 28.2645 180.819C28.2635 183.074 26.451 184.903 24.2153 184.902C21.9799 184.901 20.169 183.074 20.1683 180.82C20.1661 178.564 21.978 176.736 24.2124 176.735L24.217 176.735ZM10.611 176.735C12.8464 176.735 14.6592 178.564 14.6582 180.819C14.6572 183.074 12.8447 184.903 10.609 184.902C8.3736 184.901 6.56274 183.074 6.56201 180.82C6.56008 178.564 8.3707 176.736 10.6064 176.735L10.611 176.735Z" fill="#00ACEA"/>
<path d="M98.6264 224.55L99.0863 225.594C99.0995 225.625 99.1235 225.651 99.1538 225.665C99.184 225.68 99.2186 225.683 99.251 225.674L105.664 223.981C105.685 223.976 105.708 223.975 105.729 223.98C105.75 223.984 105.771 223.994 105.788 224.007C105.805 224.021 105.819 224.039 105.828 224.059C105.837 224.079 105.842 224.101 105.841 224.123L105.633 230.813C105.632 230.882 105.681 230.944 105.749 230.957L112.247 232.234C112.265 232.238 112.282 232.244 112.298 232.254C112.314 232.264 112.327 232.277 112.338 232.292C112.348 232.307 112.356 232.325 112.36 232.343C112.364 232.361 112.364 232.38 112.361 232.398C112.358 232.413 112.354 232.427 112.346 232.44L109.292 238.369C109.277 238.4 109.273 238.434 109.28 238.467C109.288 238.5 109.306 238.529 109.333 238.55L114.634 242.554C114.652 242.567 114.666 242.584 114.676 242.604C114.686 242.624 114.691 242.646 114.691 242.668C114.691 242.69 114.686 242.712 114.676 242.731C114.666 242.751 114.652 242.768 114.634 242.781L109.333 246.798C109.306 246.819 109.287 246.848 109.28 246.881C109.273 246.914 109.277 246.948 109.292 246.978L112.346 252.909C112.357 252.929 112.362 252.951 112.363 252.973C112.363 252.995 112.358 253.018 112.348 253.038C112.339 253.058 112.325 253.076 112.307 253.089C112.289 253.103 112.269 253.112 112.247 253.116L105.749 254.392C105.716 254.398 105.686 254.416 105.665 254.442C105.643 254.469 105.632 254.502 105.633 254.536L105.841 261.225C105.842 261.247 105.838 261.269 105.829 261.29C105.82 261.31 105.806 261.328 105.788 261.341C105.771 261.355 105.751 261.365 105.729 261.369C105.708 261.373 105.685 261.372 105.664 261.366L102.571 260.55L99.251 259.673C99.2186 259.664 99.184 259.668 99.1537 259.682C99.1234 259.697 99.0995 259.722 99.0863 259.754L96.3907 265.869C96.3821 265.889 96.3688 265.907 96.3519 265.922C96.335 265.936 96.315 265.946 96.2935 265.951C96.2721 265.956 96.2497 265.956 96.2283 265.951C96.2069 265.945 96.187 265.935 96.1703 265.921L91.1206 261.586C91.0955 261.564 91.0632 261.552 91.0298 261.552C90.9964 261.552 90.9642 261.564 90.939 261.586L87.9097 264.186L85.8898 265.921C85.8729 265.935 85.8528 265.946 85.8312 265.951C85.8096 265.957 85.787 265.957 85.7652 265.952C85.7435 265.947 85.7232 265.937 85.7061 265.922C85.6889 265.908 85.6754 265.89 85.6665 265.869L82.9733 259.754C82.9601 259.722 82.9361 259.697 82.9059 259.682C82.8756 259.668 82.8411 259.664 82.8087 259.673L79.711 260.492L76.3954 261.366C76.3743 261.372 76.3521 261.372 76.3307 261.368C76.3093 261.363 76.2892 261.354 76.2721 261.34C76.2549 261.327 76.2411 261.309 76.2318 261.289C76.2225 261.269 76.2179 261.247 76.2184 261.225L76.3516 256.876L76.4245 254.535C76.4258 254.501 76.415 254.468 76.3942 254.442C76.3734 254.415 76.3438 254.397 76.3109 254.391L69.8105 253.116C69.7889 253.112 69.7686 253.102 69.7513 253.088C69.7339 253.074 69.72 253.057 69.7106 253.036C69.7011 253.016 69.6965 252.994 69.6969 252.972C69.6974 252.95 69.7029 252.928 69.7131 252.908L72.7672 246.978C72.7825 246.948 72.7869 246.914 72.7794 246.881C72.772 246.848 72.7532 246.819 72.7265 246.798L67.4249 242.781C67.4074 242.768 67.3931 242.751 67.3833 242.731C67.3735 242.712 67.3684 242.69 67.3684 242.668C67.3684 242.646 67.3735 242.624 67.3833 242.604C67.3931 242.584 67.4074 242.567 67.4249 242.554L72.7265 238.55C72.7533 238.529 72.7721 238.5 72.7795 238.467C72.787 238.434 72.7826 238.399 72.7672 238.369L69.7131 232.44C69.6958 232.406 69.6921 232.368 69.703 232.332C69.7138 232.296 69.7383 232.266 69.771 232.248C69.7835 232.242 69.7969 232.237 69.8107 232.235L76.3112 230.957C76.344 230.951 76.3735 230.932 76.3943 230.906C76.4151 230.88 76.4258 230.847 76.4245 230.813L76.2676 225.709L76.2184 224.123C76.218 224.101 76.2226 224.079 76.2319 224.059C76.2412 224.039 76.255 224.022 76.2721 224.008C76.2892 223.994 76.3092 223.985 76.3306 223.98C76.3519 223.976 76.374 223.976 76.3952 223.981L82.8084 225.675C82.8408 225.683 82.8753 225.68 82.9056 225.665C82.9358 225.651 82.9598 225.625 82.9731 225.594L83.6033 224.167L85.6667 219.479C85.6756 219.458 85.6891 219.44 85.7061 219.426C85.7232 219.412 85.7433 219.401 85.7649 219.396C85.7865 219.391 85.809 219.392 85.8305 219.397C85.852 219.402 85.872 219.413 85.8888 219.427L88.3599 221.548L90.939 223.762C90.9642 223.784 90.9964 223.796 91.0298 223.796C91.0632 223.796 91.0955 223.784 91.1206 223.762L96.1706 219.427C96.1871 219.412 96.207 219.402 96.2284 219.396C96.2499 219.391 96.2723 219.391 96.2938 219.396C96.3154 219.401 96.3354 219.411 96.3523 219.425C96.3692 219.44 96.3825 219.458 96.391 219.479L98.6264 224.55Z" fill="#FEDB41"/>
<path d="M50.0966 238.139H9.90189C8.565 238.139 7.47998 237.045 7.47998 235.696C7.47998 234.346 8.565 233.253 9.90189 233.253H50.0966C51.4345 233.253 52.5185 234.346 52.5185 235.696C52.5185 237.045 51.4345 238.139 50.0966 238.139ZM50.0966 248.383H9.90189C8.565 248.383 7.47998 247.289 7.47998 245.94C7.47998 244.59 8.565 243.497 9.90189 243.497H50.0966C51.4345 243.497 52.5185 244.59 52.5185 245.94C52.5185 247.289 51.4345 248.383 50.0966 248.383Z" fill="#00EFD1"/>
</g>
<path d="M53.1111 84.9387L49.0011 80.8487L50.5111 79.3387L54.6011 83.4287L53.1111 84.9387ZM47.9311 84.9387C46.4911 84.9387 45.2577 84.6253 44.2311 83.9987C43.2044 83.3653 42.4144 82.4853 41.8611 81.3587C41.3144 80.232 41.0411 78.9253 41.0411 77.4387C41.0411 75.952 41.3144 74.6453 41.8611 73.5187C42.4144 72.392 43.2044 71.5153 44.2311 70.8887C45.2577 70.2553 46.4911 69.9387 47.9311 69.9387C49.3711 69.9387 50.6044 70.2553 51.6311 70.8887C52.6644 71.5153 53.4544 72.392 54.0011 73.5187C54.5544 74.6453 54.8311 75.952 54.8311 77.4387C54.8311 78.9253 54.5544 80.232 54.0011 81.3587C53.4544 82.4853 52.6644 83.3653 51.6311 83.9987C50.6044 84.6253 49.3711 84.9387 47.9311 84.9387ZM47.9311 82.6687C48.8977 82.6753 49.7011 82.462 50.3411 82.0287C50.9877 81.5953 51.4711 80.9853 51.7911 80.1987C52.1177 79.412 52.2811 78.492 52.2811 77.4387C52.2811 76.3853 52.1177 75.472 51.7911 74.6987C51.4711 73.9187 50.9877 73.312 50.3411 72.8787C49.7011 72.4453 48.8977 72.222 47.9311 72.2087C46.9644 72.202 46.1611 72.4153 45.5211 72.8487C44.8811 73.282 44.3977 73.892 44.0711 74.6787C43.7511 75.4653 43.5911 76.3853 43.5911 77.4387C43.5911 78.492 43.7511 79.4087 44.0711 80.1887C44.3911 80.962 44.8711 81.5653 45.5111 81.9987C46.1577 82.432 46.9644 82.6553 47.9311 82.6687ZM61.2715 84.9487C60.4715 84.9487 59.8115 84.8153 59.2915 84.5487C58.7715 84.282 58.3582 83.942 58.0515 83.5287C57.7449 83.1153 57.5182 82.6753 57.3715 82.2087C57.2249 81.742 57.1282 81.302 57.0815 80.8887C57.0415 80.4687 57.0215 80.1287 57.0215 79.8687V73.8387H59.4615V79.0387C59.4615 79.372 59.4849 79.7487 59.5315 80.1687C59.5782 80.582 59.6849 80.982 59.8515 81.3687C60.0249 81.7487 60.2782 82.062 60.6115 82.3087C60.9515 82.5553 61.4082 82.6787 61.9815 82.6787C62.2882 82.6787 62.5915 82.6287 62.8915 82.5287C63.1915 82.4287 63.4615 82.2587 63.7015 82.0187C63.9482 81.772 64.1449 81.4353 64.2915 81.0087C64.4382 80.582 64.5115 80.042 64.5115 79.3887L65.9415 79.9987C65.9415 80.9187 65.7615 81.752 65.4015 82.4987C65.0482 83.2453 64.5249 83.842 63.8315 84.2887C63.1382 84.7287 62.2849 84.9487 61.2715 84.9487ZM64.8015 84.6387V81.2887H64.5115V73.8387H66.9315V84.6387H64.8015ZM73.1611 84.9387C72.3811 84.9387 71.7211 84.792 71.1811 84.4987C70.6411 84.1987 70.2311 83.802 69.9511 83.3087C69.6777 82.8153 69.5411 82.272 69.5411 81.6787C69.5411 81.1587 69.6277 80.692 69.8011 80.2787C69.9744 79.8587 70.2411 79.4987 70.6011 79.1987C70.9611 78.892 71.4277 78.642 72.0011 78.4487C72.4344 78.3087 72.9411 78.182 73.5211 78.0687C74.1077 77.9553 74.7411 77.852 75.4211 77.7587C76.1077 77.6587 76.8244 77.552 77.5711 77.4387L76.7111 77.9287C76.7177 77.182 76.5511 76.632 76.2111 76.2787C75.8711 75.9253 75.2977 75.7487 74.4911 75.7487C74.0044 75.7487 73.5344 75.862 73.0811 76.0887C72.6277 76.3153 72.3111 76.7053 72.1311 77.2587L69.9311 76.5687C70.1977 75.6553 70.7044 74.922 71.4511 74.3687C72.2044 73.8153 73.2177 73.5387 74.4911 73.5387C75.4511 73.5387 76.2944 73.6953 77.0211 74.0087C77.7544 74.322 78.2977 74.8353 78.6511 75.5487C78.8444 75.9287 78.9611 76.3187 79.0011 76.7187C79.0411 77.112 79.0611 77.542 79.0611 78.0087V84.6387H76.9511V82.2987L77.3011 82.6787C76.8144 83.4587 76.2444 84.032 75.5911 84.3987C74.9444 84.7587 74.1344 84.9387 73.1611 84.9387ZM73.6411 83.0187C74.1877 83.0187 74.6544 82.922 75.0411 82.7287C75.4277 82.5353 75.7344 82.2987 75.9611 82.0187C76.1944 81.7387 76.3511 81.4753 76.4311 81.2287C76.5577 80.922 76.6277 80.572 76.6411 80.1787C76.6611 79.7787 76.6711 79.4553 76.6711 79.2087L77.4111 79.4287C76.6844 79.542 76.0611 79.642 75.5411 79.7287C75.0211 79.8153 74.5744 79.8987 74.2011 79.9787C73.8277 80.052 73.4977 80.1353 73.2111 80.2287C72.9311 80.3287 72.6944 80.4453 72.5011 80.5787C72.3077 80.712 72.1577 80.8653 72.0511 81.0387C71.9511 81.212 71.9011 81.4153 71.9011 81.6487C71.9011 81.9153 71.9677 82.152 72.1011 82.3587C72.2344 82.5587 72.4277 82.7187 72.6811 82.8387C72.9411 82.9587 73.2611 83.0187 73.6411 83.0187ZM82.2645 84.6387V69.9387H84.6745V84.6387H82.2645ZM88.27 72.1987V69.9887H90.68V72.1987H88.27ZM88.27 84.6387V73.8387H90.68V84.6387H88.27ZM100.405 84.6387C99.6921 84.772 98.9921 84.8287 98.3055 84.8087C97.6255 84.7953 97.0155 84.672 96.4755 84.4387C95.9355 84.1987 95.5255 83.822 95.2455 83.3087C94.9988 82.842 94.8688 82.3653 94.8555 81.8787C94.8421 81.392 94.8355 80.842 94.8355 80.2287V70.8387H97.2355V80.0887C97.2355 80.522 97.2388 80.902 97.2455 81.2287C97.2588 81.5553 97.3288 81.822 97.4555 82.0287C97.6955 82.4287 98.0788 82.652 98.6055 82.6987C99.1321 82.7453 99.7321 82.7187 100.405 82.6187V84.6387ZM92.8755 75.7287V73.8387H100.405V75.7287H92.8755ZM104.255 89.4387L106.335 83.7287L106.375 85.4087L101.665 73.8387H104.175L107.515 82.3987H106.875L110.125 73.8387H112.535L106.515 89.4387H104.255Z" fill="#FEDB41"/>
</g>
<rect x="2.6875" y="2.63867" width="148" height="274" rx="18" stroke="#00EFD1" stroke-width="4"/>
<defs>
<clipPath id="clip0_0_5733">
<rect x="0.6875" y="0.638672" width="152" height="278" rx="20" fill="white"/>
</clipPath>
<clipPath id="clip1_0_5733">
<rect width="114" height="115" fill="white" transform="translate(0.6875 168.777)"/>
</clipPath>
</defs>
</svg>
