<svg width="573" height="505" viewBox="0 0 573 505" fill="none" xmlns="http://www.w3.org/2000/svg">
<g opacity="0.2">
<path d="M122.216 300.939C141.174 283.443 173.576 281.7 198.216 280.406C228.087 278.887 258.071 281.812 287.604 286.2C307.069 289.125 326.814 292.782 344.028 302.232C379.187 321.528 382.844 357.475 370.974 392.859C359.667 426.611 346.278 464.64 319.501 489.448C284.005 522.357 244.682 496.592 214.305 471.503C188.54 450.238 163.225 428.243 140.499 403.772C119.459 381.158 95.8887 349.318 110.571 316.69C113.496 310.783 117.434 305.439 122.216 300.939Z" fill="#000C12"/>
</g>
<g opacity="0.2">
<path d="M139.933 303.718C156.903 288.057 185.908 286.496 207.965 285.338C234.704 283.978 261.544 286.597 287.982 290.524C305.406 293.143 323.08 296.416 338.49 304.876C369.963 322.149 373.236 354.327 362.61 386.001C352.489 416.215 340.504 450.256 316.534 472.464C284.759 501.922 249.559 478.859 222.367 456.4C199.303 437.364 176.643 417.675 156.299 395.77C137.465 375.527 116.366 347.025 129.509 317.818C132.127 312.53 135.652 307.747 139.933 303.718Z" fill="#000C12"/>
</g>
<g opacity="0.2">
<path d="M127.133 446.959C132.054 446.959 136.05 450.955 136.05 455.877C136.05 460.799 132.054 464.795 127.133 464.795C122.211 464.795 118.215 460.799 118.215 455.877C118.215 450.955 122.211 446.959 127.133 446.959Z" fill="#0077B7"/>
</g>
<g opacity="0.2">
<path d="M398.778 303.91C403.7 303.91 407.696 307.906 407.696 312.828C407.696 317.75 403.7 321.746 398.778 321.746C393.856 321.746 389.86 317.75 389.86 312.828C389.86 307.906 393.856 303.91 398.778 303.91Z" fill="#0077B7"/>
</g>
<g opacity="0.2">
<path d="M16.2158 20.9386C35.1737 3.44341 67.5763 1.69952 92.2159 0.405659C122.087 -1.11321 152.071 1.81202 181.604 6.19989C201.069 9.12513 220.814 12.7817 238.028 22.2325C273.187 41.5278 276.844 77.4745 264.974 112.859C253.667 146.611 240.278 184.64 213.501 209.448C178.005 242.357 138.682 216.592 108.305 191.503C82.5401 170.238 57.2255 148.243 34.4986 123.772C13.4594 101.158 -10.1113 69.3176 4.57112 36.6899C7.49637 30.7832 11.4342 25.439 16.2158 20.9386Z" fill="#000C12"/>
</g>
<g opacity="0.2">
<path d="M33.9327 23.718C50.903 8.05701 79.9085 6.49595 101.965 5.33774C128.704 3.97811 155.544 6.59666 181.982 10.5245C199.406 13.143 217.08 16.4162 232.49 24.8762C263.963 42.1485 267.236 74.3265 256.61 106.001C246.489 136.215 234.504 170.256 210.534 192.464C178.759 221.922 143.559 198.859 116.367 176.4C93.3034 157.364 70.6428 137.675 50.2987 115.77C31.4652 95.5267 10.3657 67.0248 23.5089 37.8179C26.1274 32.5304 29.6524 27.7465 33.9327 23.718Z" fill="#000C12"/>
</g>
<g opacity="0.2">
<path d="M21.1327 166.959C26.0544 166.959 30.0505 170.955 30.0505 175.877C30.0505 180.799 26.0544 184.795 21.1327 184.795C16.2109 184.795 12.2148 180.799 12.2148 175.877C12.2148 170.955 16.2109 166.959 21.1327 166.959Z" fill="#0077B7"/>
</g>
<g opacity="0.2">
<path d="M292.778 23.9102C297.7 23.9102 301.696 27.9062 301.696 32.828C301.696 37.7497 297.7 41.7458 292.778 41.7458C287.856 41.7458 283.86 37.7497 283.86 32.828C283.86 27.9062 287.856 23.9102 292.778 23.9102Z" fill="#0077B7"/>
</g>
<g opacity="0.2">
<path d="M317.216 92.9386C336.174 75.4434 368.576 73.6995 393.216 72.4057C423.087 70.8868 453.071 73.812 482.604 78.1999C502.069 81.1251 521.814 84.7817 539.028 94.2325C574.187 113.528 577.844 149.475 565.974 184.859C554.667 218.611 541.278 256.64 514.501 281.448C479.005 314.357 439.682 288.592 409.305 263.503C383.54 242.238 358.225 220.243 335.499 195.772C314.459 173.158 290.889 141.318 305.571 108.69C308.496 102.783 312.434 97.439 317.216 92.9386Z" fill="#000C12"/>
</g>
<g opacity="0.2">
<path d="M334.933 95.718C351.903 80.057 380.908 78.4959 402.965 77.3377C429.704 75.9781 456.544 78.5967 482.982 82.5245C500.406 85.143 518.08 88.4162 533.49 96.8762C564.963 114.149 568.236 146.327 557.61 178.001C547.489 208.215 535.504 242.256 511.534 264.464C479.759 293.922 444.559 270.859 417.367 248.4C394.303 229.364 371.643 209.675 351.299 187.77C332.465 167.527 311.366 139.025 324.509 109.818C327.127 104.53 330.652 99.7465 334.933 95.718Z" fill="#000C12"/>
</g>
<g opacity="0.2">
<path d="M322.133 238.959C327.054 238.959 331.05 242.955 331.05 247.877C331.05 252.799 327.054 256.795 322.133 256.795C317.211 256.795 313.215 252.799 313.215 247.877C313.215 242.955 317.211 238.959 322.133 238.959Z" fill="#0077B7"/>
</g>
<path d="M95.2889 138.96C95.2889 137.573 95.5889 136.34 96.1889 135.26C96.7889 134.167 97.6222 133.32 98.6889 132.72C99.7689 132.107 100.989 131.8 102.349 131.8C104.016 131.8 105.442 132.24 106.629 133.12C107.816 134 108.609 135.2 109.009 136.72H105.249C104.969 136.133 104.569 135.687 104.049 135.38C103.542 135.073 102.962 134.92 102.309 134.92C101.256 134.92 100.402 135.287 99.7489 136.02C99.0956 136.753 98.7689 137.733 98.7689 138.96C98.7689 140.187 99.0956 141.167 99.7489 141.9C100.402 142.633 101.256 143 102.309 143C102.962 143 103.542 142.847 104.049 142.54C104.569 142.233 104.969 141.787 105.249 141.2H109.009C108.609 142.72 107.816 143.92 106.629 144.8C105.442 145.667 104.016 146.1 102.349 146.1C100.989 146.1 99.7689 145.8 98.6889 145.2C97.6222 144.587 96.7889 143.74 96.1889 142.66C95.5889 141.58 95.2889 140.347 95.2889 138.96ZM116.183 146.16C115.09 146.16 114.103 145.927 113.223 145.46C112.357 144.993 111.67 144.327 111.163 143.46C110.67 142.593 110.423 141.58 110.423 140.42C110.423 139.273 110.677 138.267 111.183 137.4C111.69 136.52 112.383 135.847 113.263 135.38C114.143 134.913 115.13 134.68 116.223 134.68C117.317 134.68 118.303 134.913 119.183 135.38C120.063 135.847 120.757 136.52 121.263 137.4C121.77 138.267 122.023 139.273 122.023 140.42C122.023 141.567 121.763 142.58 121.243 143.46C120.737 144.327 120.037 144.993 119.143 145.46C118.263 145.927 117.277 146.16 116.183 146.16ZM116.183 143.2C116.837 143.2 117.39 142.96 117.843 142.48C118.31 142 118.543 141.313 118.543 140.42C118.543 139.527 118.317 138.84 117.863 138.36C117.423 137.88 116.877 137.64 116.223 137.64C115.557 137.64 115.003 137.88 114.563 138.36C114.123 138.827 113.903 139.513 113.903 140.42C113.903 141.313 114.117 142 114.543 142.48C114.983 142.96 115.53 143.2 116.183 143.2ZM130.638 134.72C131.944 134.72 132.984 135.147 133.758 136C134.544 136.84 134.938 138 134.938 139.48V146H131.538V139.94C131.538 139.193 131.344 138.613 130.958 138.2C130.571 137.787 130.051 137.58 129.398 137.58C128.744 137.58 128.224 137.787 127.838 138.2C127.451 138.613 127.258 139.193 127.258 139.94V146H123.838V134.84H127.258V136.32C127.604 135.827 128.071 135.44 128.658 135.16C129.244 134.867 129.904 134.72 130.638 134.72ZM144.114 134.72C145.421 134.72 146.461 135.147 147.234 136C148.021 136.84 148.414 138 148.414 139.48V146H145.014V139.94C145.014 139.193 144.821 138.613 144.434 138.2C144.048 137.787 143.528 137.58 142.874 137.58C142.221 137.58 141.701 137.787 141.314 138.2C140.928 138.613 140.734 139.193 140.734 139.94V146H137.314V134.84H140.734V136.32C141.081 135.827 141.548 135.44 142.134 135.16C142.721 134.867 143.381 134.72 144.114 134.72ZM161.311 140.24C161.311 140.56 161.291 140.893 161.251 141.24H153.511C153.564 141.933 153.784 142.467 154.171 142.84C154.571 143.2 155.057 143.38 155.631 143.38C156.484 143.38 157.077 143.02 157.411 142.3H161.051C160.864 143.033 160.524 143.693 160.031 144.28C159.551 144.867 158.944 145.327 158.211 145.66C157.477 145.993 156.657 146.16 155.751 146.16C154.657 146.16 153.684 145.927 152.831 145.46C151.977 144.993 151.311 144.327 150.831 143.46C150.351 142.593 150.111 141.58 150.111 140.42C150.111 139.26 150.344 138.247 150.811 137.38C151.291 136.513 151.957 135.847 152.811 135.38C153.664 134.913 154.644 134.68 155.751 134.68C156.831 134.68 157.791 134.907 158.631 135.36C159.471 135.813 160.124 136.46 160.591 137.3C161.071 138.14 161.311 139.12 161.311 140.24ZM157.811 139.34C157.811 138.753 157.611 138.287 157.211 137.94C156.811 137.593 156.311 137.42 155.711 137.42C155.137 137.42 154.651 137.587 154.251 137.92C153.864 138.253 153.624 138.727 153.531 139.34H157.811ZM162.435 140.42C162.435 139.26 162.668 138.247 163.135 137.38C163.615 136.513 164.275 135.847 165.115 135.38C165.968 134.913 166.942 134.68 168.035 134.68C169.435 134.68 170.602 135.047 171.535 135.78C172.482 136.513 173.102 137.547 173.395 138.88H169.755C169.448 138.027 168.855 137.6 167.975 137.6C167.348 137.6 166.848 137.847 166.475 138.34C166.102 138.82 165.915 139.513 165.915 140.42C165.915 141.327 166.102 142.027 166.475 142.52C166.848 143 167.348 143.24 167.975 143.24C168.855 143.24 169.448 142.813 169.755 141.96H173.395C173.102 143.267 172.482 144.293 171.535 145.04C170.588 145.787 169.422 146.16 168.035 146.16C166.942 146.16 165.968 145.927 165.115 145.46C164.275 144.993 163.615 144.327 163.135 143.46C162.668 142.593 162.435 141.58 162.435 140.42ZM181.444 143.1V146H179.704C178.464 146 177.498 145.7 176.804 145.1C176.111 144.487 175.764 143.493 175.764 142.12V137.68H174.404V134.84H175.764V132.12H179.184V134.84H181.424V137.68H179.184V142.16C179.184 142.493 179.264 142.733 179.424 142.88C179.584 143.027 179.851 143.1 180.224 143.1H181.444ZM185.069 133.68C184.469 133.68 183.976 133.507 183.589 133.16C183.216 132.8 183.029 132.36 183.029 131.84C183.029 131.307 183.216 130.867 183.589 130.52C183.976 130.16 184.469 129.98 185.069 129.98C185.656 129.98 186.136 130.16 186.509 130.52C186.896 130.867 187.089 131.307 187.089 131.84C187.089 132.36 186.896 132.8 186.509 133.16C186.136 133.507 185.656 133.68 185.069 133.68ZM186.769 134.84V146H183.349V134.84H186.769ZM194.328 146.16C193.234 146.16 192.248 145.927 191.368 145.46C190.501 144.993 189.814 144.327 189.308 143.46C188.814 142.593 188.568 141.58 188.568 140.42C188.568 139.273 188.821 138.267 189.328 137.4C189.834 136.52 190.528 135.847 191.408 135.38C192.288 134.913 193.274 134.68 194.368 134.68C195.461 134.68 196.448 134.913 197.328 135.38C198.208 135.847 198.901 136.52 199.408 137.4C199.914 138.267 200.168 139.273 200.168 140.42C200.168 141.567 199.908 142.58 199.388 143.46C198.881 144.327 198.181 144.993 197.288 145.46C196.408 145.927 195.421 146.16 194.328 146.16ZM194.328 143.2C194.981 143.2 195.534 142.96 195.988 142.48C196.454 142 196.688 141.313 196.688 140.42C196.688 139.527 196.461 138.84 196.008 138.36C195.568 137.88 195.021 137.64 194.368 137.64C193.701 137.64 193.148 137.88 192.708 138.36C192.268 138.827 192.048 139.513 192.048 140.42C192.048 141.313 192.261 142 192.688 142.48C193.128 142.96 193.674 143.2 194.328 143.2ZM208.782 134.72C210.089 134.72 211.129 135.147 211.902 136C212.689 136.84 213.082 138 213.082 139.48V146H209.682V139.94C209.682 139.193 209.489 138.613 209.102 138.2C208.716 137.787 208.196 137.58 207.542 137.58C206.889 137.58 206.369 137.787 205.982 138.2C205.596 138.613 205.402 139.193 205.402 139.94V146H201.982V134.84H205.402V136.32C205.749 135.827 206.216 135.44 206.802 135.16C207.389 134.867 208.049 134.72 208.782 134.72ZM219.999 146.16C219.025 146.16 218.159 145.993 217.399 145.66C216.639 145.327 216.039 144.873 215.599 144.3C215.159 143.713 214.912 143.06 214.859 142.34H218.239C218.279 142.727 218.459 143.04 218.779 143.28C219.099 143.52 219.492 143.64 219.959 143.64C220.385 143.64 220.712 143.56 220.939 143.4C221.179 143.227 221.299 143.007 221.299 142.74C221.299 142.42 221.132 142.187 220.799 142.04C220.465 141.88 219.925 141.707 219.179 141.52C218.379 141.333 217.712 141.14 217.179 140.94C216.645 140.727 216.185 140.4 215.799 139.96C215.412 139.507 215.219 138.9 215.219 138.14C215.219 137.5 215.392 136.92 215.739 136.4C216.099 135.867 216.619 135.447 217.299 135.14C217.992 134.833 218.812 134.68 219.759 134.68C221.159 134.68 222.259 135.027 223.059 135.72C223.872 136.413 224.339 137.333 224.459 138.48H221.299C221.245 138.093 221.072 137.787 220.779 137.56C220.499 137.333 220.125 137.22 219.659 137.22C219.259 137.22 218.952 137.3 218.739 137.46C218.525 137.607 218.419 137.813 218.419 138.08C218.419 138.4 218.585 138.64 218.919 138.8C219.265 138.96 219.799 139.12 220.519 139.28C221.345 139.493 222.019 139.707 222.539 139.92C223.059 140.12 223.512 140.453 223.899 140.92C224.299 141.373 224.505 141.987 224.519 142.76C224.519 143.413 224.332 144 223.959 144.52C223.599 145.027 223.072 145.427 222.379 145.72C221.699 146.013 220.905 146.16 219.999 146.16Z" fill="#2A72DE"/>
<path d="M410.792 216L406.072 209.8V216H402.652V201.96H406.072V208.12L410.752 201.96H414.772L409.332 208.84L414.972 216H410.792ZM423.397 204.72C424.704 204.72 425.744 205.147 426.517 206C427.304 206.84 427.697 208 427.697 209.48V216H424.297V209.94C424.297 209.193 424.104 208.613 423.717 208.2C423.331 207.787 422.811 207.58 422.157 207.58C421.504 207.58 420.984 207.787 420.597 208.2C420.211 208.613 420.017 209.193 420.017 209.94V216H416.597V204.84H420.017V206.32C420.364 205.827 420.831 205.44 421.417 205.16C422.004 204.867 422.664 204.72 423.397 204.72ZM435.154 216.16C434.061 216.16 433.074 215.927 432.194 215.46C431.327 214.993 430.641 214.327 430.134 213.46C429.641 212.593 429.394 211.58 429.394 210.42C429.394 209.273 429.647 208.267 430.154 207.4C430.661 206.52 431.354 205.847 432.234 205.38C433.114 204.913 434.101 204.68 435.194 204.68C436.287 204.68 437.274 204.913 438.154 205.38C439.034 205.847 439.727 206.52 440.234 207.4C440.741 208.267 440.994 209.273 440.994 210.42C440.994 211.567 440.734 212.58 440.214 213.46C439.707 214.327 439.007 214.993 438.114 215.46C437.234 215.927 436.247 216.16 435.154 216.16ZM435.154 213.2C435.807 213.2 436.361 212.96 436.814 212.48C437.281 212 437.514 211.313 437.514 210.42C437.514 209.527 437.287 208.84 436.834 208.36C436.394 207.88 435.847 207.64 435.194 207.64C434.527 207.64 433.974 207.88 433.534 208.36C433.094 208.827 432.874 209.513 432.874 210.42C432.874 211.313 433.087 212 433.514 212.48C433.954 212.96 434.501 213.2 435.154 213.2ZM458.828 204.84L455.808 216H452.028L450.268 208.76L448.448 216H444.688L441.648 204.84H445.068L446.648 212.82L448.528 204.84H452.148L454.048 212.78L455.608 204.84H458.828ZM463.553 201.2V216H460.133V201.2H463.553ZM476.551 210.24C476.551 210.56 476.531 210.893 476.491 211.24H468.751C468.804 211.933 469.024 212.467 469.411 212.84C469.811 213.2 470.298 213.38 470.871 213.38C471.724 213.38 472.318 213.02 472.651 212.3H476.291C476.104 213.033 475.764 213.693 475.271 214.28C474.791 214.867 474.184 215.327 473.451 215.66C472.718 215.993 471.898 216.16 470.991 216.16C469.898 216.16 468.924 215.927 468.071 215.46C467.218 214.993 466.551 214.327 466.071 213.46C465.591 212.593 465.351 211.58 465.351 210.42C465.351 209.26 465.584 208.247 466.051 207.38C466.531 206.513 467.198 205.847 468.051 205.38C468.904 204.913 469.884 204.68 470.991 204.68C472.071 204.68 473.031 204.907 473.871 205.36C474.711 205.813 475.364 206.46 475.831 207.3C476.311 208.14 476.551 209.12 476.551 210.24ZM473.051 209.34C473.051 208.753 472.851 208.287 472.451 207.94C472.051 207.593 471.551 207.42 470.951 207.42C470.378 207.42 469.891 207.587 469.491 207.92C469.104 208.253 468.864 208.727 468.771 209.34H473.051ZM477.675 210.4C477.675 209.253 477.889 208.247 478.315 207.38C478.755 206.513 479.349 205.847 480.095 205.38C480.842 204.913 481.675 204.68 482.595 204.68C483.329 204.68 483.995 204.833 484.595 205.14C485.209 205.447 485.689 205.86 486.035 206.38V201.2H489.455V216H486.035V214.4C485.715 214.933 485.255 215.36 484.655 215.68C484.069 216 483.382 216.16 482.595 216.16C481.675 216.16 480.842 215.927 480.095 215.46C479.349 214.98 478.755 214.307 478.315 213.44C477.889 212.56 477.675 211.547 477.675 210.4ZM486.035 210.42C486.035 209.567 485.795 208.893 485.315 208.4C484.849 207.907 484.275 207.66 483.595 207.66C482.915 207.66 482.335 207.907 481.855 208.4C481.389 208.88 481.155 209.547 481.155 210.4C481.155 211.253 481.389 211.933 481.855 212.44C482.335 212.933 482.915 213.18 483.595 213.18C484.275 213.18 484.849 212.933 485.315 212.44C485.795 211.947 486.035 211.273 486.035 210.42ZM496.169 204.68C496.956 204.68 497.643 204.84 498.229 205.16C498.829 205.48 499.289 205.9 499.609 206.42V204.84H503.029V215.98C503.029 217.007 502.823 217.933 502.409 218.76C502.009 219.6 501.389 220.267 500.549 220.76C499.723 221.253 498.689 221.5 497.449 221.5C495.796 221.5 494.456 221.107 493.429 220.32C492.403 219.547 491.816 218.493 491.669 217.16H495.049C495.156 217.587 495.409 217.92 495.809 218.16C496.209 218.413 496.703 218.54 497.289 218.54C497.996 218.54 498.556 218.333 498.969 217.92C499.396 217.52 499.609 216.873 499.609 215.98V214.4C499.276 214.92 498.816 215.347 498.229 215.68C497.643 216 496.956 216.16 496.169 216.16C495.249 216.16 494.416 215.927 493.669 215.46C492.923 214.98 492.329 214.307 491.889 213.44C491.463 212.56 491.249 211.547 491.249 210.4C491.249 209.253 491.463 208.247 491.889 207.38C492.329 206.513 492.923 205.847 493.669 205.38C494.416 204.913 495.249 204.68 496.169 204.68ZM499.609 210.42C499.609 209.567 499.369 208.893 498.889 208.4C498.423 207.907 497.849 207.66 497.169 207.66C496.489 207.66 495.909 207.907 495.429 208.4C494.963 208.88 494.729 209.547 494.729 210.4C494.729 211.253 494.963 211.933 495.429 212.44C495.909 212.933 496.489 213.18 497.169 213.18C497.849 213.18 498.423 212.933 498.889 212.44C499.369 211.947 499.609 211.273 499.609 210.42ZM516.024 210.24C516.024 210.56 516.004 210.893 515.964 211.24H508.224C508.277 211.933 508.497 212.467 508.884 212.84C509.284 213.2 509.77 213.38 510.344 213.38C511.197 213.38 511.79 213.02 512.124 212.3H515.764C515.577 213.033 515.237 213.693 514.744 214.28C514.264 214.867 513.657 215.327 512.924 215.66C512.19 215.993 511.37 216.16 510.464 216.16C509.37 216.16 508.397 215.927 507.544 215.46C506.69 214.993 506.024 214.327 505.544 213.46C505.064 212.593 504.824 211.58 504.824 210.42C504.824 209.26 505.057 208.247 505.524 207.38C506.004 206.513 506.67 205.847 507.524 205.38C508.377 204.913 509.357 204.68 510.464 204.68C511.544 204.68 512.504 204.907 513.344 205.36C514.184 205.813 514.837 206.46 515.304 207.3C515.784 208.14 516.024 209.12 516.024 210.24ZM512.524 209.34C512.524 208.753 512.324 208.287 511.924 207.94C511.524 207.593 511.024 207.42 510.424 207.42C509.85 207.42 509.364 207.587 508.964 207.92C508.577 208.253 508.337 208.727 508.244 209.34H512.524Z" fill="#2A72DE"/>
<path d="M226.451 414.7V417.54H231.031V420.18H226.451V423.26H231.631V426H223.031V411.96H231.631V414.7H226.451ZM238.871 422.8L241.291 414.84H244.931L240.971 426H236.751L232.791 414.84H236.451L238.871 422.8ZM256.891 420.24C256.891 420.56 256.871 420.893 256.831 421.24H249.091C249.144 421.933 249.364 422.467 249.751 422.84C250.151 423.2 250.638 423.38 251.211 423.38C252.064 423.38 252.658 423.02 252.991 422.3H256.631C256.444 423.033 256.104 423.693 255.611 424.28C255.131 424.867 254.524 425.327 253.791 425.66C253.058 425.993 252.238 426.16 251.331 426.16C250.238 426.16 249.264 425.927 248.411 425.46C247.558 424.993 246.891 424.327 246.411 423.46C245.931 422.593 245.691 421.58 245.691 420.42C245.691 419.26 245.924 418.247 246.391 417.38C246.871 416.513 247.538 415.847 248.391 415.38C249.244 414.913 250.224 414.68 251.331 414.68C252.411 414.68 253.371 414.907 254.211 415.36C255.051 415.813 255.704 416.46 256.171 417.3C256.651 418.14 256.891 419.12 256.891 420.24ZM253.391 419.34C253.391 418.753 253.191 418.287 252.791 417.94C252.391 417.593 251.891 417.42 251.291 417.42C250.718 417.42 250.231 417.587 249.831 417.92C249.444 418.253 249.204 418.727 249.111 419.34H253.391ZM265.495 414.72C266.802 414.72 267.842 415.147 268.615 416C269.402 416.84 269.795 418 269.795 419.48V426H266.395V419.94C266.395 419.193 266.202 418.613 265.815 418.2C265.428 417.787 264.908 417.58 264.255 417.58C263.602 417.58 263.082 417.787 262.695 418.2C262.308 418.613 262.115 419.193 262.115 419.94V426H258.695V414.84H262.115V416.32C262.462 415.827 262.928 415.44 263.515 415.16C264.102 414.867 264.762 414.72 265.495 414.72ZM278.392 423.1V426H276.652C275.412 426 274.445 425.7 273.752 425.1C273.058 424.487 272.712 423.493 272.712 422.12V417.68H271.352V414.84H272.712V412.12H276.132V414.84H278.372V417.68H276.132V422.16C276.132 422.493 276.212 422.733 276.372 422.88C276.532 423.027 276.798 423.1 277.172 423.1H278.392ZM284.837 426.16C283.863 426.16 282.997 425.993 282.237 425.66C281.477 425.327 280.877 424.873 280.437 424.3C279.997 423.713 279.75 423.06 279.697 422.34H283.077C283.117 422.727 283.297 423.04 283.617 423.28C283.937 423.52 284.33 423.64 284.797 423.64C285.223 423.64 285.55 423.56 285.777 423.4C286.017 423.227 286.137 423.007 286.137 422.74C286.137 422.42 285.97 422.187 285.637 422.04C285.303 421.88 284.763 421.707 284.017 421.52C283.217 421.333 282.55 421.14 282.017 420.94C281.483 420.727 281.023 420.4 280.637 419.96C280.25 419.507 280.057 418.9 280.057 418.14C280.057 417.5 280.23 416.92 280.577 416.4C280.937 415.867 281.457 415.447 282.137 415.14C282.83 414.833 283.65 414.68 284.597 414.68C285.997 414.68 287.097 415.027 287.897 415.72C288.71 416.413 289.177 417.333 289.297 418.48H286.137C286.083 418.093 285.91 417.787 285.617 417.56C285.337 417.333 284.963 417.22 284.497 417.22C284.097 417.22 283.79 417.3 283.577 417.46C283.363 417.607 283.257 417.813 283.257 418.08C283.257 418.4 283.423 418.64 283.757 418.8C284.103 418.96 284.637 419.12 285.357 419.28C286.183 419.493 286.857 419.707 287.377 419.92C287.897 420.12 288.35 420.453 288.737 420.92C289.137 421.373 289.343 421.987 289.357 422.76C289.357 423.413 289.17 424 288.797 424.52C288.437 425.027 287.91 425.427 287.217 425.72C286.537 426.013 285.743 426.16 284.837 426.16Z" fill="#2A72DE"/>
<g opacity="0.7">
<path d="M231.364 363.849L246.075 323.352C246.201 323.006 246.412 322.697 246.69 322.454C246.967 322.211 247.301 322.042 247.662 321.963C248.022 321.884 248.396 321.897 248.75 322.001C249.103 322.106 249.425 322.298 249.684 322.559L275.442 348.317C275.704 348.577 275.896 348.898 276 349.252C276.105 349.606 276.118 349.98 276.039 350.34C275.959 350.7 275.791 351.035 275.548 351.312C275.305 351.589 274.996 351.801 274.649 351.927L234.153 366.638C233.764 366.787 233.339 366.819 232.931 366.732C232.523 366.645 232.149 366.442 231.854 366.147C231.559 365.852 231.356 365.478 231.269 365.07C231.182 364.663 231.215 364.238 231.364 363.849V363.849Z" stroke="#2A72DE" stroke-width="3.5" stroke-linecap="round" stroke-linejoin="round"/>
<path d="M266.938 326.688C266.938 326.688 266.938 320.125 273.5 320.125C280.062 320.125 280.062 313.562 280.062 313.562" stroke="#2A72DE" stroke-width="3.5" stroke-linecap="round" stroke-linejoin="round"/>
<path d="M249 361.248L236.75 348.998" stroke="#2A72DE" stroke-width="3.5" stroke-linecap="round" stroke-linejoin="round"/>
<path d="M260.375 311.375V317.938" stroke="#2A72DE" stroke-width="3.5" stroke-linecap="round" stroke-linejoin="round"/>
<path d="M280.062 337.625L284.438 342" stroke="#2A72DE" stroke-width="3.5" stroke-linecap="round" stroke-linejoin="round"/>
<path d="M280.062 328.875L286.625 326.688" stroke="#2A72DE" stroke-width="3.5" stroke-linecap="round" stroke-linejoin="round"/>
<path d="M241.999 334.562L263.437 356" stroke="#2A72DE" stroke-width="3.5" stroke-linecap="round" stroke-linejoin="round"/>
</g>
<g opacity="0.7">
<path d="M149 76.2188C155.041 76.2188 159.938 71.3219 159.938 65.2812C159.938 59.2406 155.041 54.3438 149 54.3438C142.959 54.3438 138.062 59.2406 138.062 65.2812C138.062 71.3219 142.959 76.2188 149 76.2188Z" stroke="#2A72DE" stroke-width="3.5" stroke-linecap="round" stroke-linejoin="round"/>
<path d="M167.594 58.7188C170.141 58.7145 172.655 59.3056 174.934 60.445C177.213 61.5844 179.194 63.2405 180.719 65.2813" stroke="#2A72DE" stroke-width="3.5" stroke-linecap="round" stroke-linejoin="round"/>
<path d="M117.281 65.2813C118.806 63.2405 120.787 61.5844 123.066 60.445C125.345 59.3056 127.859 58.7145 130.406 58.7188" stroke="#2A72DE" stroke-width="3.5" stroke-linecap="round" stroke-linejoin="round"/>
<path d="M133.25 86.0653C134.691 83.1151 136.931 80.6289 139.715 78.8897C142.5 77.1506 145.717 76.2285 149 76.2285C152.283 76.2285 155.5 77.1506 158.285 78.8897C161.069 80.6289 163.309 83.1151 164.75 86.0653" stroke="#2A72DE" stroke-width="3.5" stroke-linecap="round" stroke-linejoin="round"/>
<path d="M130.407 58.7187C128.747 58.7204 127.12 58.2495 125.717 57.3609C124.314 56.4722 123.192 55.2027 122.484 53.7006C121.776 52.1985 121.51 50.5258 121.717 48.878C121.924 47.2302 122.595 45.6753 123.653 44.3951C124.711 43.1149 126.112 42.1622 127.691 41.6482C129.27 41.1343 130.963 41.0804 132.572 41.4929C134.18 41.9054 135.638 42.7671 136.776 43.9775C137.913 45.1878 138.682 46.6968 138.993 48.3281" stroke="#2A72DE" stroke-width="3.5" stroke-linecap="round" stroke-linejoin="round"/>
<path d="M159.008 48.3281C159.319 46.6968 160.088 45.1878 161.226 43.9775C162.363 42.7671 163.821 41.9054 165.43 41.4929C167.038 41.0804 168.731 41.1343 170.31 41.6482C171.89 42.1622 173.29 43.1149 174.348 44.3951C175.406 45.6753 176.077 47.2302 176.284 48.878C176.491 50.5258 176.225 52.1985 175.517 53.7006C174.809 55.2027 173.687 56.4722 172.284 57.3609C170.881 58.2495 169.254 58.7204 167.594 58.7187" stroke="#2A72DE" stroke-width="3.5" stroke-linecap="round" stroke-linejoin="round"/>
</g>
<g opacity="0.7">
<path d="M457 121.062C457 118.742 457.922 116.516 459.563 114.875C461.204 113.234 463.429 112.312 465.75 112.312H483.25C483.83 112.312 484.387 112.543 484.797 112.953C485.207 113.363 485.438 113.92 485.438 114.5V149.5C485.438 150.08 485.207 150.637 484.797 151.047C484.387 151.457 483.83 151.688 483.25 151.688H465.75C463.429 151.688 461.204 152.609 459.563 154.25C457.922 155.891 457 158.117 457 160.438" stroke="#2A72DE" stroke-width="3.5" stroke-linecap="round" stroke-linejoin="round"/>
<path d="M428.562 149.5C428.562 150.08 428.793 150.637 429.203 151.047C429.613 151.457 430.17 151.688 430.75 151.688H448.25C450.571 151.688 452.796 152.609 454.437 154.25C456.078 155.891 457 158.117 457 160.438V121.062C457 118.742 456.078 116.516 454.437 114.875C452.796 113.234 450.571 112.312 448.25 112.312H430.75C430.17 112.312 429.613 112.543 429.203 112.953C428.793 113.363 428.562 113.92 428.562 114.5V149.5Z" stroke="#2A72DE" stroke-width="3.5" stroke-linecap="round" stroke-linejoin="round"/>
</g>
</svg>
